<svg width="320" height="77" viewBox="0 0 320 77" fill="none" xmlns="http://www.w3.org/2000/svg">
<rect width="320" height="77" rx="12" fill="url(#paint0_linear)"/>
<mask id="mask0" mask-type="alpha" maskUnits="userSpaceOnUse" x="0" y="0" width="320" height="77">
<rect width="320" height="77" rx="12" fill="url(#paint1_linear)"/>
</mask>
<g mask="url(#mask0)">
<path d="M17.9988 59.513L24.7143 53.3226L31.4297 59.513L24.7143 65.7035L17.9988 59.513Z" stroke="white" stroke-opacity="0.2" stroke-width="3"/>
<path d="M26.9273 72.6819L33.6428 66.4914L40.3583 72.6819L33.6428 78.8723L26.9273 72.6819Z" stroke="white" stroke-opacity="0.2" stroke-width="3"/>
<path d="M9.07022 72.6819L15.7857 66.4914L22.5012 72.6819L15.7857 78.8724L9.07022 72.6819Z" stroke="white" stroke-opacity="0.2" stroke-width="3"/>
<path d="M17.9988 69.3897L24.7143 63.1992L31.4297 69.3897L24.7143 75.5801L17.9988 69.3897Z" stroke="black" stroke-opacity="0.1" stroke-width="3"/>
<path d="M17.9988 75.9741L24.7143 69.7836L31.4297 75.9741L24.7143 82.1646L17.9988 75.9741Z" stroke="black" stroke-opacity="0.1" stroke-width="3"/>
<path d="M60.856 59.513L67.5715 53.3226L74.2869 59.513L67.5715 65.7035L60.856 59.513Z" stroke="white" stroke-opacity="0.2" stroke-width="3"/>
<path d="M69.7845 72.6819L76.5 66.4914L83.2155 72.6819L76.5 78.8723L69.7845 72.6819Z" stroke="white" stroke-opacity="0.2" stroke-width="3"/>
<path d="M51.9274 72.6819L58.6429 66.4914L65.3583 72.6819L58.6429 78.8724L51.9274 72.6819Z" stroke="white" stroke-opacity="0.2" stroke-width="3"/>
<path d="M60.856 69.3897L67.5715 63.1992L74.2869 69.3897L67.5715 75.5801L60.856 69.3897Z" stroke="black" stroke-opacity="0.1" stroke-width="3"/>
<path d="M60.856 75.9741L67.5715 69.7836L74.2869 75.9741L67.5715 82.1646L60.856 75.9741Z" stroke="black" stroke-opacity="0.1" stroke-width="3"/>
<path d="M103.713 59.513L110.429 53.3226L117.144 59.513L110.429 65.7035L103.713 59.513Z" stroke="white" stroke-opacity="0.2" stroke-width="3"/>
<path d="M112.642 72.6819L119.357 66.4914L126.073 72.6819L119.357 78.8723L112.642 72.6819Z" stroke="white" stroke-opacity="0.2" stroke-width="3"/>
<path d="M94.7846 72.6819L101.5 66.4914L108.216 72.6819L101.5 78.8724L94.7846 72.6819Z" stroke="white" stroke-opacity="0.2" stroke-width="3"/>
<path d="M103.713 69.3897L110.429 63.1992L117.144 69.3897L110.429 75.5801L103.713 69.3897Z" stroke="black" stroke-opacity="0.1" stroke-width="3"/>
<path d="M103.713 75.9741L110.429 69.7836L117.144 75.9741L110.429 82.1646L103.713 75.9741Z" stroke="black" stroke-opacity="0.1" stroke-width="3"/>
<path d="M146.57 59.513L153.286 53.3226L160.001 59.513L153.286 65.7035L146.57 59.513Z" stroke="white" stroke-opacity="0.2" stroke-width="3"/>
<path d="M155.499 72.6819L162.214 66.4914L168.93 72.6819L162.214 78.8723L155.499 72.6819Z" stroke="white" stroke-opacity="0.2" stroke-width="3"/>
<path d="M137.642 72.6819L144.357 66.4914L151.073 72.6819L144.357 78.8724L137.642 72.6819Z" stroke="white" stroke-opacity="0.2" stroke-width="3"/>
<path d="M146.57 69.3897L153.286 63.1992L160.001 69.3897L153.286 75.5801L146.57 69.3897Z" stroke="black" stroke-opacity="0.1" stroke-width="3"/>
<path d="M146.57 75.9741L153.286 69.7836L160.001 75.9741L153.286 82.1646L146.57 75.9741Z" stroke="black" stroke-opacity="0.1" stroke-width="3"/>
<path d="M189.427 59.513L196.143 53.3226L202.858 59.513L196.143 65.7035L189.427 59.513Z" stroke="white" stroke-opacity="0.2" stroke-width="3"/>
<path d="M198.356 72.6819L205.071 66.4914L211.787 72.6819L205.071 78.8723L198.356 72.6819Z" stroke="white" stroke-opacity="0.2" stroke-width="3"/>
<path d="M180.499 72.6819L187.214 66.4914L193.93 72.6819L187.214 78.8724L180.499 72.6819Z" stroke="white" stroke-opacity="0.2" stroke-width="3"/>
<path d="M189.427 69.3897L196.143 63.1992L202.858 69.3897L196.143 75.5801L189.427 69.3897Z" stroke="black" stroke-opacity="0.1" stroke-width="3"/>
<path d="M189.427 75.9741L196.143 69.7836L202.858 75.9741L196.143 82.1646L189.427 75.9741Z" stroke="black" stroke-opacity="0.1" stroke-width="3"/>
<path d="M232.285 59.513L239 53.3226L245.715 59.513L239 65.7035L232.285 59.513Z" stroke="white" stroke-opacity="0.2" stroke-width="3"/>
<path d="M241.213 72.6819L247.929 66.4914L254.644 72.6819L247.929 78.8723L241.213 72.6819Z" stroke="white" stroke-opacity="0.2" stroke-width="3"/>
<path d="M223.356 72.6819L230.071 66.4914L236.787 72.6819L230.071 78.8724L223.356 72.6819Z" stroke="white" stroke-opacity="0.2" stroke-width="3"/>
<path d="M232.285 69.3897L239 63.1992L245.715 69.3897L239 75.5801L232.285 69.3897Z" stroke="black" stroke-opacity="0.1" stroke-width="3"/>
<path d="M232.285 75.9741L239 69.7836L245.715 75.9741L239 82.1646L232.285 75.9741Z" stroke="black" stroke-opacity="0.1" stroke-width="3"/>
<path d="M275.142 59.513L281.857 53.3226L288.573 59.513L281.857 65.7035L275.142 59.513Z" stroke="white" stroke-opacity="0.2" stroke-width="3"/>
<path d="M284.07 72.6819L290.786 66.4914L297.501 72.6819L290.786 78.8723L284.07 72.6819Z" stroke="white" stroke-opacity="0.2" stroke-width="3"/>
<path d="M266.213 72.6819L272.929 66.4914L279.644 72.6819L272.929 78.8724L266.213 72.6819Z" stroke="white" stroke-opacity="0.2" stroke-width="3"/>
<path d="M275.142 69.3897L281.857 63.1992L288.573 69.3897L281.857 75.5801L275.142 69.3897Z" stroke="black" stroke-opacity="0.1" stroke-width="3"/>
<path d="M275.142 75.9741L281.857 69.7836L288.573 75.9741L281.857 82.1646L275.142 75.9741Z" stroke="black" stroke-opacity="0.1" stroke-width="3"/>
<path d="M317.999 59.513L324.714 53.3226L331.43 59.513L324.714 65.7035L317.999 59.513Z" stroke="white" stroke-opacity="0.2" stroke-width="3"/>
<path d="M309.07 72.6819L315.786 66.4914L322.501 72.6819L315.786 78.8724L309.07 72.6819Z" stroke="white" stroke-opacity="0.2" stroke-width="3"/>
<path d="M317.999 69.3897L324.714 63.1992L331.43 69.3897L324.714 75.5801L317.999 69.3897Z" stroke="black" stroke-opacity="0.1" stroke-width="3"/>
<path d="M317.999 75.9741L324.714 69.7836L331.43 75.9741L324.714 82.1646L317.999 75.9741Z" stroke="black" stroke-opacity="0.1" stroke-width="3"/>
<path d="M-3.4329 23.0133L3.28575 16.8034L10.0044 23.0133L3.28575 29.2232L-3.4329 23.0133Z" stroke="white" stroke-opacity="0.2" stroke-width="3"/>
<path d="M5.49563 36.2173L12.2143 30.0074L18.9329 36.2173L12.2143 42.4272L5.49563 36.2173Z" stroke="white" stroke-opacity="0.2" stroke-width="3"/>
<path d="M-12.3615 36.2173L-5.64284 30.0074L1.07581 36.2173L-5.64284 42.4272L-12.3615 36.2173Z" stroke="white" stroke-opacity="0.2" stroke-width="3"/>
<path d="M-3.4329 49.4213L3.28575 43.2114L10.0044 49.4213L3.28575 55.6312L-3.4329 49.4213Z" stroke="white" stroke-opacity="0.2" stroke-width="3"/>
<path d="M-3.4329 32.9163L3.28575 26.7064L10.0044 32.9163L3.28575 39.1262L-3.4329 32.9163Z" stroke="black" stroke-opacity="0.1" stroke-width="3"/>
<path d="M-3.4329 39.5183L3.28575 33.3084L10.0044 39.5183L3.28575 45.7282L-3.4329 39.5183Z" stroke="black" stroke-opacity="0.1" stroke-width="3"/>
<path d="M26.9242 0.45646L33.6428 -5.75345L40.3615 0.45646L33.6428 6.66637L26.9242 0.45646Z" stroke="white" stroke-opacity="0.2" stroke-width="3"/>
<path d="M9.06704 0.456493L15.7857 -5.75342L22.5043 0.456493L15.7857 6.66641L9.06704 0.456493Z" stroke="white" stroke-opacity="0.2" stroke-width="3"/>
<path d="M17.9956 13.6605L24.7143 7.45056L31.4329 13.6605L24.7143 19.8704L17.9956 13.6605Z" stroke="white" stroke-opacity="0.2" stroke-width="3"/>
<path d="M17.9956 -2.84452L24.7143 -9.05443L31.4329 -2.84452L24.7143 3.36539L17.9956 -2.84452Z" stroke="black" stroke-opacity="0.1" stroke-width="3"/>
<path d="M17.9956 3.75748L24.7143 -2.45242L31.4329 3.75748L24.7143 9.96739L17.9956 3.75748Z" stroke="black" stroke-opacity="0.1" stroke-width="3"/>
<path d="M39.4242 23.0133L46.1429 16.8034L52.8615 23.0133L46.1429 29.2232L39.4242 23.0133Z" stroke="white" stroke-opacity="0.2" stroke-width="3"/>
<path d="M48.3527 36.2173L55.0714 30.0074L61.79 36.2173L55.0714 42.4272L48.3527 36.2173Z" stroke="white" stroke-opacity="0.2" stroke-width="3"/>
<path d="M30.4956 36.2173L37.2143 30.0074L43.9329 36.2173L37.2143 42.4272L30.4956 36.2173Z" stroke="white" stroke-opacity="0.2" stroke-width="3"/>
<path d="M39.4242 49.4213L46.1429 43.2114L52.8615 49.4213L46.1429 55.6312L39.4242 49.4213Z" stroke="white" stroke-opacity="0.2" stroke-width="3"/>
<path d="M39.4242 32.9163L46.1429 26.7064L52.8615 32.9163L46.1429 39.1262L39.4242 32.9163Z" stroke="black" stroke-opacity="0.1" stroke-width="3"/>
<path d="M39.4242 39.5183L46.1429 33.3084L52.8615 39.5183L46.1429 45.7282L39.4242 39.5183Z" stroke="black" stroke-opacity="0.1" stroke-width="3"/>
<path d="M69.7813 0.45646L76.5 -5.75345L83.2186 0.45646L76.5 6.66637L69.7813 0.45646Z" stroke="white" stroke-opacity="0.2" stroke-width="3"/>
<path d="M51.9242 0.456493L58.6429 -5.75342L65.3615 0.456493L58.6429 6.66641L51.9242 0.456493Z" stroke="white" stroke-opacity="0.2" stroke-width="3"/>
<path d="M60.8528 13.6605L67.5715 7.45056L74.2901 13.6605L67.5715 19.8704L60.8528 13.6605Z" stroke="white" stroke-opacity="0.2" stroke-width="3"/>
<path d="M60.8528 -2.84452L67.5715 -9.05443L74.2901 -2.84452L67.5715 3.36539L60.8528 -2.84452Z" stroke="black" stroke-opacity="0.1" stroke-width="3"/>
<path d="M60.8528 3.75748L67.5715 -2.45242L74.2901 3.75748L67.5715 9.96739L60.8528 3.75748Z" stroke="black" stroke-opacity="0.1" stroke-width="3"/>
<path d="M82.2814 23.0133L89 16.8034L95.7187 23.0133L89 29.2232L82.2814 23.0133Z" stroke="white" stroke-opacity="0.2" stroke-width="3"/>
<path d="M91.2099 36.2173L97.9286 30.0074L104.647 36.2173L97.9286 42.4272L91.2099 36.2173Z" stroke="white" stroke-opacity="0.2" stroke-width="3"/>
<path d="M73.3528 36.2173L80.0715 30.0074L86.7901 36.2173L80.0715 42.4272L73.3528 36.2173Z" stroke="white" stroke-opacity="0.2" stroke-width="3"/>
<path d="M82.2814 49.4213L89 43.2114L95.7187 49.4213L89 55.6312L82.2814 49.4213Z" stroke="white" stroke-opacity="0.2" stroke-width="3"/>
<path d="M82.2814 32.9163L89 26.7064L95.7187 32.9163L89 39.1262L82.2814 32.9163Z" stroke="black" stroke-opacity="0.1" stroke-width="3"/>
<path d="M82.2814 39.5183L89 33.3084L95.7187 39.5183L89 45.7282L82.2814 39.5183Z" stroke="black" stroke-opacity="0.1" stroke-width="3"/>
<path d="M112.639 0.45646L119.357 -5.75345L126.076 0.45646L119.357 6.66637L112.639 0.45646Z" stroke="white" stroke-opacity="0.2" stroke-width="3"/>
<path d="M94.7814 0.456493L101.5 -5.75342L108.219 0.456493L101.5 6.66641L94.7814 0.456493Z" stroke="white" stroke-opacity="0.2" stroke-width="3"/>
<path d="M103.71 13.6605L110.429 7.45056L117.147 13.6605L110.429 19.8704L103.71 13.6605Z" stroke="white" stroke-opacity="0.2" stroke-width="3"/>
<path d="M103.71 -2.84452L110.429 -9.05443L117.147 -2.84452L110.429 3.36539L103.71 -2.84452Z" stroke="black" stroke-opacity="0.1" stroke-width="3"/>
<path d="M103.71 3.75748L110.429 -2.45242L117.147 3.75748L110.429 9.96739L103.71 3.75748Z" stroke="black" stroke-opacity="0.1" stroke-width="3"/>
<path d="M125.139 23.0133L131.857 16.8034L138.576 23.0133L131.857 29.2232L125.139 23.0133Z" stroke="white" stroke-opacity="0.2" stroke-width="3"/>
<path d="M134.067 36.2173L140.786 30.0074L147.504 36.2173L140.786 42.4272L134.067 36.2173Z" stroke="white" stroke-opacity="0.2" stroke-width="3"/>
<path d="M116.21 36.2173L122.929 30.0074L129.647 36.2173L122.929 42.4272L116.21 36.2173Z" stroke="white" stroke-opacity="0.2" stroke-width="3"/>
<path d="M125.139 49.4213L131.857 43.2114L138.576 49.4213L131.857 55.6312L125.139 49.4213Z" stroke="white" stroke-opacity="0.2" stroke-width="3"/>
<path d="M125.139 32.9163L131.857 26.7064L138.576 32.9163L131.857 39.1262L125.139 32.9163Z" stroke="black" stroke-opacity="0.1" stroke-width="3"/>
<path d="M125.139 39.5183L131.857 33.3084L138.576 39.5183L131.857 45.7282L125.139 39.5183Z" stroke="black" stroke-opacity="0.1" stroke-width="3"/>
<path d="M155.496 0.45646L162.214 -5.75345L168.933 0.45646L162.214 6.66637L155.496 0.45646Z" stroke="white" stroke-opacity="0.2" stroke-width="3"/>
<path d="M137.638 0.456493L144.357 -5.75342L151.076 0.456493L144.357 6.66641L137.638 0.456493Z" stroke="white" stroke-opacity="0.2" stroke-width="3"/>
<path d="M146.567 13.6605L153.286 7.45056L160.004 13.6605L153.286 19.8704L146.567 13.6605Z" stroke="white" stroke-opacity="0.2" stroke-width="3"/>
<path d="M146.567 -2.84452L153.286 -9.05443L160.004 -2.84452L153.286 3.36539L146.567 -2.84452Z" stroke="black" stroke-opacity="0.1" stroke-width="3"/>
<path d="M146.567 3.75748L153.286 -2.45242L160.004 3.75748L153.286 9.96739L146.567 3.75748Z" stroke="black" stroke-opacity="0.1" stroke-width="3"/>
<path d="M167.996 23.0133L174.714 16.8034L181.433 23.0133L174.714 29.2232L167.996 23.0133Z" stroke="white" stroke-opacity="0.2" stroke-width="3"/>
<path d="M176.924 36.2173L183.643 30.0074L190.361 36.2173L183.643 42.4272L176.924 36.2173Z" stroke="white" stroke-opacity="0.2" stroke-width="3"/>
<path d="M159.067 36.2173L165.786 30.0074L172.504 36.2173L165.786 42.4272L159.067 36.2173Z" stroke="white" stroke-opacity="0.2" stroke-width="3"/>
<path d="M167.996 49.4213L174.714 43.2114L181.433 49.4213L174.714 55.6312L167.996 49.4213Z" stroke="white" stroke-opacity="0.2" stroke-width="3"/>
<path d="M167.996 32.9163L174.714 26.7064L181.433 32.9163L174.714 39.1262L167.996 32.9163Z" stroke="black" stroke-opacity="0.1" stroke-width="3"/>
<path d="M167.996 39.5183L174.714 33.3084L181.433 39.5183L174.714 45.7282L167.996 39.5183Z" stroke="black" stroke-opacity="0.1" stroke-width="3"/>
<path d="M198.353 0.45646L205.071 -5.75345L211.79 0.45646L205.071 6.66637L198.353 0.45646Z" stroke="white" stroke-opacity="0.2" stroke-width="3"/>
<path d="M180.496 0.456493L187.214 -5.75342L193.933 0.456493L187.214 6.66641L180.496 0.456493Z" stroke="white" stroke-opacity="0.2" stroke-width="3"/>
<path d="M189.424 13.6605L196.143 7.45056L202.862 13.6605L196.143 19.8704L189.424 13.6605Z" stroke="white" stroke-opacity="0.2" stroke-width="3"/>
<path d="M189.424 -2.84452L196.143 -9.05443L202.862 -2.84452L196.143 3.36539L189.424 -2.84452Z" stroke="black" stroke-opacity="0.1" stroke-width="3"/>
<path d="M189.424 3.75748L196.143 -2.45242L202.862 3.75748L196.143 9.96739L189.424 3.75748Z" stroke="black" stroke-opacity="0.1" stroke-width="3"/>
<path d="M210.853 23.0133L217.571 16.8034L224.29 23.0133L217.571 29.2232L210.853 23.0133Z" stroke="white" stroke-opacity="0.2" stroke-width="3"/>
<path d="M219.781 36.2173L226.5 30.0074L233.219 36.2173L226.5 42.4272L219.781 36.2173Z" stroke="white" stroke-opacity="0.2" stroke-width="3"/>
<path d="M201.924 36.2173L208.643 30.0074L215.362 36.2173L208.643 42.4272L201.924 36.2173Z" stroke="white" stroke-opacity="0.2" stroke-width="3"/>
<path d="M210.853 49.4213L217.571 43.2114L224.29 49.4213L217.571 55.6312L210.853 49.4213Z" stroke="white" stroke-opacity="0.2" stroke-width="3"/>
<path d="M210.853 32.9163L217.571 26.7064L224.29 32.9163L217.571 39.1262L210.853 32.9163Z" stroke="black" stroke-opacity="0.1" stroke-width="3"/>
<path d="M210.853 39.5183L217.571 33.3084L224.29 39.5183L217.571 45.7282L210.853 39.5183Z" stroke="black" stroke-opacity="0.1" stroke-width="3"/>
<path d="M241.21 0.45646L247.929 -5.75345L254.647 0.45646L247.929 6.66637L241.21 0.45646Z" stroke="white" stroke-opacity="0.2" stroke-width="3"/>
<path d="M223.353 0.456493L230.071 -5.75342L236.79 0.456493L230.071 6.66641L223.353 0.456493Z" stroke="white" stroke-opacity="0.2" stroke-width="3"/>
<path d="M232.281 13.6605L239 7.45056L245.719 13.6605L239 19.8704L232.281 13.6605Z" stroke="white" stroke-opacity="0.2" stroke-width="3"/>
<path d="M232.281 -2.84452L239 -9.05443L245.719 -2.84452L239 3.36539L232.281 -2.84452Z" stroke="black" stroke-opacity="0.1" stroke-width="3"/>
<path d="M232.281 3.75748L239 -2.45242L245.719 3.75748L239 9.96739L232.281 3.75748Z" stroke="black" stroke-opacity="0.1" stroke-width="3"/>
<path d="M253.71 23.0133L260.429 16.8034L267.147 23.0133L260.429 29.2232L253.71 23.0133Z" stroke="white" stroke-opacity="0.2" stroke-width="3"/>
<path d="M262.638 36.2173L269.357 30.0074L276.076 36.2173L269.357 42.4272L262.638 36.2173Z" stroke="white" stroke-opacity="0.2" stroke-width="3"/>
<path d="M244.781 36.2173L251.5 30.0074L258.219 36.2173L251.5 42.4272L244.781 36.2173Z" stroke="white" stroke-opacity="0.2" stroke-width="3"/>
<path d="M253.71 49.4213L260.429 43.2114L267.147 49.4213L260.429 55.6312L253.71 49.4213Z" stroke="white" stroke-opacity="0.2" stroke-width="3"/>
<path d="M253.71 32.9163L260.429 26.7064L267.147 32.9163L260.429 39.1262L253.71 32.9163Z" stroke="black" stroke-opacity="0.1" stroke-width="3"/>
<path d="M253.71 39.5183L260.429 33.3084L267.147 39.5183L260.429 45.7282L253.71 39.5183Z" stroke="black" stroke-opacity="0.1" stroke-width="3"/>
<path d="M284.067 0.45646L290.786 -5.75345L297.504 0.45646L290.786 6.66637L284.067 0.45646Z" stroke="white" stroke-opacity="0.2" stroke-width="3"/>
<path d="M266.21 0.456493L272.929 -5.75342L279.647 0.456493L272.929 6.66641L266.21 0.456493Z" stroke="white" stroke-opacity="0.2" stroke-width="3"/>
<path d="M275.139 13.6605L281.857 7.45056L288.576 13.6605L281.857 19.8704L275.139 13.6605Z" stroke="white" stroke-opacity="0.2" stroke-width="3"/>
<path d="M275.139 -2.84452L281.857 -9.05443L288.576 -2.84452L281.857 3.36539L275.139 -2.84452Z" stroke="black" stroke-opacity="0.1" stroke-width="3"/>
<path d="M275.139 3.75748L281.857 -2.45242L288.576 3.75748L281.857 9.96739L275.139 3.75748Z" stroke="black" stroke-opacity="0.1" stroke-width="3"/>
<path d="M296.567 23.0133L303.286 16.8034L310.004 23.0133L303.286 29.2232L296.567 23.0133Z" stroke="white" stroke-opacity="0.2" stroke-width="3"/>
<path d="M305.496 36.2173L312.214 30.0074L318.933 36.2173L312.214 42.4272L305.496 36.2173Z" stroke="white" stroke-opacity="0.2" stroke-width="3"/>
<path d="M287.639 36.2173L294.357 30.0074L301.076 36.2173L294.357 42.4272L287.639 36.2173Z" stroke="white" stroke-opacity="0.2" stroke-width="3"/>
<path d="M296.567 49.4213L303.286 43.2114L310.004 49.4213L303.286 55.6312L296.567 49.4213Z" stroke="white" stroke-opacity="0.2" stroke-width="3"/>
<path d="M296.567 32.9163L303.286 26.7064L310.004 32.9163L303.286 39.1262L296.567 32.9163Z" stroke="black" stroke-opacity="0.1" stroke-width="3"/>
<path d="M296.567 39.5183L303.286 33.3084L310.004 39.5183L303.286 45.7282L296.567 39.5183Z" stroke="black" stroke-opacity="0.1" stroke-width="3"/>
<path d="M309.067 0.456493L315.786 -5.75342L322.504 0.456493L315.786 6.66641L309.067 0.456493Z" stroke="white" stroke-opacity="0.2" stroke-width="3"/>
<path d="M317.996 13.6605L324.714 7.45056L331.433 13.6605L324.714 19.8704L317.996 13.6605Z" stroke="white" stroke-opacity="0.2" stroke-width="3"/>
<path d="M317.996 -2.84452L324.714 -9.05443L331.433 -2.84452L324.714 3.36539L317.996 -2.84452Z" stroke="black" stroke-opacity="0.1" stroke-width="3"/>
<path d="M317.996 3.75748L324.714 -2.45242L331.433 3.75748L324.714 9.96739L317.996 3.75748Z" stroke="black" stroke-opacity="0.1" stroke-width="3"/>
</g>
<defs>
<linearGradient id="paint0_linear" x1="0" y1="0" x2="150.372" y2="204.379" gradientUnits="userSpaceOnUse">
<stop stop-color="#7C0000"/>
<stop offset="0.0001" stop-color="#BF2222"/>
<stop offset="1" stop-color="#FF0000"/>
</linearGradient>
<linearGradient id="paint1_linear" x1="320" y1="0" x2="58.8" y2="0" gradientUnits="userSpaceOnUse">
<stop stop-color="white"/>
<stop offset="1" stop-color="white" stop-opacity="0"/>
</linearGradient>
</defs>
</svg>
