<svg width="1200" height="600" viewBox="0 0 1200 600" fill="none" xmlns="http://www.w3.org/2000/svg">
<g clip-path="url(#clip0)">
<rect width="1200" height="600" fill="#2D2D35"/>
<path d="M23.2115 39.0769L46 18.0414L68.7885 39.0769L46 60.1125L23.2115 39.0769Z" stroke="#6B4A44" stroke-width="3"/>
<path d="M48.2115 76L71 54.9644L93.7885 76L71 97.0356L48.2115 76Z" stroke="#6B4A44" stroke-width="3"/>
<path d="M-1.78852 76L21 54.9644L43.7885 76L21 97.0356L-1.78852 76Z" stroke="#6B4A44" stroke-width="3"/>
<path d="M23.2115 112.923L46 91.8875L68.7885 112.923L46 133.959L23.2115 112.923Z" stroke="#6B4A44" stroke-width="3"/>
<path d="M23.2115 66.7692L46 45.7337L68.7885 66.7692L46 87.8048L23.2115 66.7692Z" stroke="#E99B55" stroke-width="3"/>
<path d="M23.2115 85.2308L46 64.1952L68.7885 85.2308L46 106.266L23.2115 85.2308Z" stroke="#E99B55" stroke-width="3"/>
<path d="M83.2115 139.077L106 118.041L128.789 139.077L106 160.113L83.2115 139.077Z" stroke="#6B4A44" stroke-width="3"/>
<path d="M108.211 176L131 154.964L153.789 176L131 197.036L108.211 176Z" stroke="#6B4A44" stroke-width="3"/>
<path d="M58.2115 176L81 154.964L103.789 176L81 197.036L58.2115 176Z" stroke="#6B4A44" stroke-width="3"/>
<path d="M83.2115 212.923L106 191.888L128.789 212.923L106 233.959L83.2115 212.923Z" stroke="#6B4A44" stroke-width="3"/>
<path d="M83.2115 166.769L106 145.734L128.789 166.769L106 187.805L83.2115 166.769Z" stroke="#E99B55" stroke-width="3"/>
<path d="M83.2115 185.231L106 164.195L128.789 185.231L106 206.266L83.2115 185.231Z" stroke="#E99B55" stroke-width="3"/>
<path d="M143.211 39.0769L166 18.0414L188.789 39.0769L166 60.1125L143.211 39.0769Z" stroke="#6B4A44" stroke-width="3"/>
<path d="M168.211 76L191 54.9644L213.789 76L191 97.0356L168.211 76Z" stroke="#6B4A44" stroke-width="3"/>
<path d="M118.211 76L141 54.9644L163.789 76L141 97.0356L118.211 76Z" stroke="#6B4A44" stroke-width="3"/>
<path d="M143.211 112.923L166 91.8875L188.789 112.923L166 133.959L143.211 112.923Z" stroke="#6B4A44" stroke-width="3"/>
<path d="M143.211 66.7692L166 45.7337L188.789 66.7692L166 87.8048L143.211 66.7692Z" stroke="#E99B55" stroke-width="3"/>
<path d="M143.211 85.2308L166 64.1952L188.789 85.2308L166 106.266L143.211 85.2308Z" stroke="#E99B55" stroke-width="3"/>
<path d="M203.211 139.077L226 118.041L248.789 139.077L226 160.113L203.211 139.077Z" stroke="#6B4A44" stroke-width="3"/>
<path d="M228.211 176L251 154.964L273.789 176L251 197.036L228.211 176Z" stroke="#6B4A44" stroke-width="3"/>
<path d="M178.211 176L201 154.964L223.789 176L201 197.036L178.211 176Z" stroke="#6B4A44" stroke-width="3"/>
<path d="M203.211 212.923L226 191.888L248.789 212.923L226 233.959L203.211 212.923Z" stroke="#6B4A44" stroke-width="3"/>
<path d="M203.211 166.769L226 145.734L248.789 166.769L226 187.805L203.211 166.769Z" stroke="#E99B55" stroke-width="3"/>
<path d="M203.211 185.231L226 164.195L248.789 185.231L226 206.266L203.211 185.231Z" stroke="#E99B55" stroke-width="3"/>
<path d="M263.211 39.0769L286 18.0414L308.789 39.0769L286 60.1125L263.211 39.0769Z" stroke="#6B4A44" stroke-width="3"/>
<path d="M288.211 76L311 54.9644L333.789 76L311 97.0356L288.211 76Z" stroke="#6B4A44" stroke-width="3"/>
<path d="M238.211 76L261 54.9644L283.789 76L261 97.0356L238.211 76Z" stroke="#6B4A44" stroke-width="3"/>
<path d="M263.211 112.923L286 91.8875L308.789 112.923L286 133.959L263.211 112.923Z" stroke="#6B4A44" stroke-width="3"/>
<path d="M263.211 66.7692L286 45.7337L308.789 66.7692L286 87.8048L263.211 66.7692Z" stroke="#E99B55" stroke-width="3"/>
<path d="M263.211 85.2308L286 64.1952L308.789 85.2308L286 106.266L263.211 85.2308Z" stroke="#E99B55" stroke-width="3"/>
<path d="M323.211 139.077L346 118.041L368.789 139.077L346 160.113L323.211 139.077Z" stroke="#6B4A44" stroke-width="3"/>
<path d="M348.211 176L371 154.964L393.789 176L371 197.036L348.211 176Z" stroke="#6B4A44" stroke-width="3"/>
<path d="M298.211 176L321 154.964L343.789 176L321 197.036L298.211 176Z" stroke="#6B4A44" stroke-width="3"/>
<path d="M323.211 212.923L346 191.888L368.789 212.923L346 233.959L323.211 212.923Z" stroke="#6B4A44" stroke-width="3"/>
<path d="M323.211 166.769L346 145.734L368.789 166.769L346 187.805L323.211 166.769Z" stroke="#E99B55" stroke-width="3"/>
<path d="M323.211 185.231L346 164.195L368.789 185.231L346 206.266L323.211 185.231Z" stroke="#E99B55" stroke-width="3"/>
<path d="M383.211 39.0769L406 18.0414L428.789 39.0769L406 60.1125L383.211 39.0769Z" stroke="#6B4A44" stroke-width="3"/>
<path d="M408.211 76L431 54.9644L453.789 76L431 97.0356L408.211 76Z" stroke="#6B4A44" stroke-width="3"/>
<path d="M358.211 76L381 54.9644L403.789 76L381 97.0356L358.211 76Z" stroke="#6B4A44" stroke-width="3"/>
<path d="M383.211 112.923L406 91.8875L428.789 112.923L406 133.959L383.211 112.923Z" stroke="#6B4A44" stroke-width="3"/>
<path d="M383.211 66.7692L406 45.7337L428.789 66.7692L406 87.8048L383.211 66.7692Z" stroke="#E99B55" stroke-width="3"/>
<path d="M383.211 85.2308L406 64.1952L428.789 85.2308L406 106.266L383.211 85.2308Z" stroke="#E99B55" stroke-width="3"/>
<path d="M443.211 139.077L466 118.041L488.789 139.077L466 160.113L443.211 139.077Z" stroke="#6B4A44" stroke-width="3"/>
<path d="M468.211 176L491 154.964L513.789 176L491 197.036L468.211 176Z" stroke="#6B4A44" stroke-width="3"/>
<path d="M418.211 176L441 154.964L463.789 176L441 197.036L418.211 176Z" stroke="#6B4A44" stroke-width="3"/>
<path d="M443.211 212.923L466 191.888L488.789 212.923L466 233.959L443.211 212.923Z" stroke="#6B4A44" stroke-width="3"/>
<path d="M443.211 166.769L466 145.734L488.789 166.769L466 187.805L443.211 166.769Z" stroke="#E99B55" stroke-width="3"/>
<path d="M443.211 185.231L466 164.195L488.789 185.231L466 206.266L443.211 185.231Z" stroke="#E99B55" stroke-width="3"/>
<path d="M503.211 39.0769L526 18.0414L548.789 39.0769L526 60.1125L503.211 39.0769Z" stroke="#6B4A44" stroke-width="3"/>
<path d="M528.211 76L551 54.9644L573.789 76L551 97.0356L528.211 76Z" stroke="#6B4A44" stroke-width="3"/>
<path d="M478.211 76L501 54.9644L523.789 76L501 97.0356L478.211 76Z" stroke="#6B4A44" stroke-width="3"/>
<path d="M503.211 112.923L526 91.8875L548.789 112.923L526 133.959L503.211 112.923Z" stroke="#6B4A44" stroke-width="3"/>
<path d="M503.211 66.7692L526 45.7337L548.789 66.7692L526 87.8048L503.211 66.7692Z" stroke="#E99B55" stroke-width="3"/>
<path d="M503.211 85.2308L526 64.1952L548.789 85.2308L526 106.266L503.211 85.2308Z" stroke="#E99B55" stroke-width="3"/>
<path d="M563.211 139.077L586 118.041L608.789 139.077L586 160.113L563.211 139.077Z" stroke="#6B4A44" stroke-width="3"/>
<path d="M588.211 176L611 154.964L633.789 176L611 197.036L588.211 176Z" stroke="#6B4A44" stroke-width="3"/>
<path d="M538.211 176L561 154.964L583.789 176L561 197.036L538.211 176Z" stroke="#6B4A44" stroke-width="3"/>
<path d="M563.211 212.923L586 191.888L608.789 212.923L586 233.959L563.211 212.923Z" stroke="#6B4A44" stroke-width="3"/>
<path d="M563.211 166.769L586 145.734L608.789 166.769L586 187.805L563.211 166.769Z" stroke="#E99B55" stroke-width="3"/>
<path d="M563.211 185.231L586 164.195L608.789 185.231L586 206.266L563.211 185.231Z" stroke="#E99B55" stroke-width="3"/>
<path d="M623.211 39.0769L646 18.0414L668.789 39.0769L646 60.1125L623.211 39.0769Z" stroke="#6B4A44" stroke-width="3"/>
<path d="M648.211 76L671 54.9644L693.789 76L671 97.0356L648.211 76Z" stroke="#6B4A44" stroke-width="3"/>
<path d="M598.211 76L621 54.9644L643.789 76L621 97.0356L598.211 76Z" stroke="#6B4A44" stroke-width="3"/>
<path d="M623.211 112.923L646 91.8875L668.789 112.923L646 133.959L623.211 112.923Z" stroke="#6B4A44" stroke-width="3"/>
<path d="M623.211 66.7692L646 45.7337L668.789 66.7692L646 87.8048L623.211 66.7692Z" stroke="#E99B55" stroke-width="3"/>
<path d="M623.211 85.2308L646 64.1952L668.789 85.2308L646 106.266L623.211 85.2308Z" stroke="#E99B55" stroke-width="3"/>
<path d="M683.211 139.077L706 118.041L728.789 139.077L706 160.113L683.211 139.077Z" stroke="#6B4A44" stroke-width="3"/>
<path d="M708.211 176L731 154.964L753.789 176L731 197.036L708.211 176Z" stroke="#6B4A44" stroke-width="3"/>
<path d="M658.211 176L681 154.964L703.789 176L681 197.036L658.211 176Z" stroke="#6B4A44" stroke-width="3"/>
<path d="M683.211 212.923L706 191.888L728.789 212.923L706 233.959L683.211 212.923Z" stroke="#6B4A44" stroke-width="3"/>
<path d="M683.211 166.769L706 145.734L728.789 166.769L706 187.805L683.211 166.769Z" stroke="#E99B55" stroke-width="3"/>
<path d="M683.211 185.231L706 164.195L728.789 185.231L706 206.266L683.211 185.231Z" stroke="#E99B55" stroke-width="3"/>
<path d="M743.211 39.0769L766 18.0414L788.789 39.0769L766 60.1125L743.211 39.0769Z" stroke="#6B4A44" stroke-width="3"/>
<path d="M768.211 76L791 54.9644L813.789 76L791 97.0356L768.211 76Z" stroke="#6B4A44" stroke-width="3"/>
<path d="M718.211 76L741 54.9644L763.789 76L741 97.0356L718.211 76Z" stroke="#6B4A44" stroke-width="3"/>
<path d="M743.211 112.923L766 91.8875L788.789 112.923L766 133.959L743.211 112.923Z" stroke="#6B4A44" stroke-width="3"/>
<path d="M743.211 66.7692L766 45.7337L788.789 66.7692L766 87.8048L743.211 66.7692Z" stroke="#E99B55" stroke-width="3"/>
<path d="M743.211 85.2308L766 64.1952L788.789 85.2308L766 106.266L743.211 85.2308Z" stroke="#E99B55" stroke-width="3"/>
<path d="M803.211 139.077L826 118.041L848.789 139.077L826 160.113L803.211 139.077Z" stroke="#6B4A44" stroke-width="3"/>
<path d="M828.211 176L851 154.964L873.789 176L851 197.036L828.211 176Z" stroke="#6B4A44" stroke-width="3"/>
<path d="M778.211 176L801 154.964L823.789 176L801 197.036L778.211 176Z" stroke="#6B4A44" stroke-width="3"/>
<path d="M803.211 212.923L826 191.888L848.789 212.923L826 233.959L803.211 212.923Z" stroke="#6B4A44" stroke-width="3"/>
<path d="M803.211 166.769L826 145.734L848.789 166.769L826 187.805L803.211 166.769Z" stroke="#E99B55" stroke-width="3"/>
<path d="M803.211 185.231L826 164.195L848.789 185.231L826 206.266L803.211 185.231Z" stroke="#E99B55" stroke-width="3"/>
<path d="M863.211 39.0769L886 18.0414L908.789 39.0769L886 60.1125L863.211 39.0769Z" stroke="#6B4A44" stroke-width="3"/>
<path d="M888.211 76L911 54.9644L933.789 76L911 97.0356L888.211 76Z" stroke="#6B4A44" stroke-width="3"/>
<path d="M838.211 76L861 54.9644L883.789 76L861 97.0356L838.211 76Z" stroke="#6B4A44" stroke-width="3"/>
<path d="M863.211 112.923L886 91.8875L908.789 112.923L886 133.959L863.211 112.923Z" stroke="#6B4A44" stroke-width="3"/>
<path d="M863.211 66.7692L886 45.7337L908.789 66.7692L886 87.8048L863.211 66.7692Z" stroke="#E99B55" stroke-width="3"/>
<path d="M863.211 85.2308L886 64.1952L908.789 85.2308L886 106.266L863.211 85.2308Z" stroke="#E99B55" stroke-width="3"/>
<path d="M923.211 139.077L946 118.041L968.789 139.077L946 160.113L923.211 139.077Z" stroke="#6B4A44" stroke-width="3"/>
<path d="M948.211 176L971 154.964L993.789 176L971 197.036L948.211 176Z" stroke="#6B4A44" stroke-width="3"/>
<path d="M898.211 176L921 154.964L943.789 176L921 197.036L898.211 176Z" stroke="#6B4A44" stroke-width="3"/>
<path d="M923.211 212.923L946 191.888L968.789 212.923L946 233.959L923.211 212.923Z" stroke="#6B4A44" stroke-width="3"/>
<path d="M923.211 166.769L946 145.734L968.789 166.769L946 187.805L923.211 166.769Z" stroke="#E99B55" stroke-width="3"/>
<path d="M923.211 185.231L946 164.195L968.789 185.231L946 206.266L923.211 185.231Z" stroke="#E99B55" stroke-width="3"/>
<path d="M983.211 39.0769L1006 18.0414L1028.79 39.0769L1006 60.1125L983.211 39.0769Z" stroke="#6B4A44" stroke-width="3"/>
<path d="M1008.21 76L1031 54.9644L1053.79 76L1031 97.0356L1008.21 76Z" stroke="#6B4A44" stroke-width="3"/>
<path d="M958.211 76L981 54.9644L1003.79 76L981 97.0356L958.211 76Z" stroke="#6B4A44" stroke-width="3"/>
<path d="M983.211 112.923L1006 91.8875L1028.79 112.923L1006 133.959L983.211 112.923Z" stroke="#6B4A44" stroke-width="3"/>
<path d="M983.211 66.7692L1006 45.7337L1028.79 66.7692L1006 87.8048L983.211 66.7692Z" stroke="#E99B55" stroke-width="3"/>
<path d="M983.211 85.2308L1006 64.1952L1028.79 85.2308L1006 106.266L983.211 85.2308Z" stroke="#E99B55" stroke-width="3"/>
<path d="M1043.21 139.077L1066 118.041L1088.79 139.077L1066 160.113L1043.21 139.077Z" stroke="#6B4A44" stroke-width="3"/>
<path d="M1068.21 176L1091 154.964L1113.79 176L1091 197.036L1068.21 176Z" stroke="#6B4A44" stroke-width="3"/>
<path d="M1018.21 176L1041 154.964L1063.79 176L1041 197.036L1018.21 176Z" stroke="#6B4A44" stroke-width="3"/>
<path d="M1043.21 212.923L1066 191.888L1088.79 212.923L1066 233.959L1043.21 212.923Z" stroke="#6B4A44" stroke-width="3"/>
<path d="M1043.21 166.769L1066 145.734L1088.79 166.769L1066 187.805L1043.21 166.769Z" stroke="#E99B55" stroke-width="3"/>
<path d="M1043.21 185.231L1066 164.195L1088.79 185.231L1066 206.266L1043.21 185.231Z" stroke="#E99B55" stroke-width="3"/>
<path d="M1103.21 39.0769L1126 18.0414L1148.79 39.0769L1126 60.1125L1103.21 39.0769Z" stroke="#6B4A44" stroke-width="3"/>
<path d="M1128.21 76L1151 54.9644L1173.79 76L1151 97.0356L1128.21 76Z" stroke="#6B4A44" stroke-width="3"/>
<path d="M1078.21 76L1101 54.9644L1123.79 76L1101 97.0356L1078.21 76Z" stroke="#6B4A44" stroke-width="3"/>
<path d="M1103.21 112.923L1126 91.8875L1148.79 112.923L1126 133.959L1103.21 112.923Z" stroke="#6B4A44" stroke-width="3"/>
<path d="M1103.21 66.7692L1126 45.7337L1148.79 66.7692L1126 87.8048L1103.21 66.7692Z" stroke="#E99B55" stroke-width="3"/>
<path d="M1103.21 85.2308L1126 64.1952L1148.79 85.2308L1126 106.266L1103.21 85.2308Z" stroke="#E99B55" stroke-width="3"/>
<path d="M1163.21 139.077L1186 118.041L1208.79 139.077L1186 160.113L1163.21 139.077Z" stroke="#6B4A44" stroke-width="3"/>
<path d="M1188.21 176L1211 154.964L1233.79 176L1211 197.036L1188.21 176Z" stroke="#6B4A44" stroke-width="3"/>
<path d="M1138.21 176L1161 154.964L1183.79 176L1161 197.036L1138.21 176Z" stroke="#6B4A44" stroke-width="3"/>
<path d="M1163.21 212.923L1186 191.888L1208.79 212.923L1186 233.959L1163.21 212.923Z" stroke="#6B4A44" stroke-width="3"/>
<path d="M1163.21 166.769L1186 145.734L1208.79 166.769L1186 187.805L1163.21 166.769Z" stroke="#E99B55" stroke-width="3"/>
<path d="M1163.21 185.231L1186 164.195L1208.79 185.231L1186 206.266L1163.21 185.231Z" stroke="#E99B55" stroke-width="3"/>
<path d="M23.2115 259.077L46 238.041L68.7885 259.077L46 280.113L23.2115 259.077Z" stroke="#6B4A44" stroke-width="3"/>
<path d="M48.2115 296L71 274.964L93.7885 296L71 317.036L48.2115 296Z" stroke="#6B4A44" stroke-width="3"/>
<path d="M-1.78852 296L21 274.964L43.7885 296L21 317.036L-1.78852 296Z" stroke="#6B4A44" stroke-width="3"/>
<path d="M23.2115 332.923L46 311.888L68.7885 332.923L46 353.959L23.2115 332.923Z" stroke="#6B4A44" stroke-width="3"/>
<path d="M23.2115 286.769L46 265.734L68.7885 286.769L46 307.805L23.2115 286.769Z" stroke="#E99B55" stroke-width="3"/>
<path d="M23.2115 305.231L46 284.195L68.7885 305.231L46 326.266L23.2115 305.231Z" stroke="#E99B55" stroke-width="3"/>
<path d="M83.2115 359.077L106 338.041L128.789 359.077L106 380.113L83.2115 359.077Z" stroke="#6B4A44" stroke-width="3"/>
<path d="M108.211 396L131 374.964L153.789 396L131 417.036L108.211 396Z" stroke="#6B4A44" stroke-width="3"/>
<path d="M58.2115 396L81 374.964L103.789 396L81 417.036L58.2115 396Z" stroke="#6B4A44" stroke-width="3"/>
<path d="M83.2115 432.923L106 411.888L128.789 432.923L106 453.959L83.2115 432.923Z" stroke="#6B4A44" stroke-width="3"/>
<path d="M83.2115 386.769L106 365.734L128.789 386.769L106 407.805L83.2115 386.769Z" stroke="#E99B55" stroke-width="3"/>
<path d="M83.2115 405.231L106 384.195L128.789 405.231L106 426.266L83.2115 405.231Z" stroke="#E99B55" stroke-width="3"/>
<path d="M143.211 259.077L166 238.041L188.789 259.077L166 280.113L143.211 259.077Z" stroke="#6B4A44" stroke-width="3"/>
<path d="M168.211 296L191 274.964L213.789 296L191 317.036L168.211 296Z" stroke="#6B4A44" stroke-width="3"/>
<path d="M118.211 296L141 274.964L163.789 296L141 317.036L118.211 296Z" stroke="#6B4A44" stroke-width="3"/>
<path d="M143.211 332.923L166 311.888L188.789 332.923L166 353.959L143.211 332.923Z" stroke="#6B4A44" stroke-width="3"/>
<path d="M143.211 286.769L166 265.734L188.789 286.769L166 307.805L143.211 286.769Z" stroke="#E99B55" stroke-width="3"/>
<path d="M143.211 305.231L166 284.195L188.789 305.231L166 326.266L143.211 305.231Z" stroke="#E99B55" stroke-width="3"/>
<path d="M203.211 359.077L226 338.041L248.789 359.077L226 380.113L203.211 359.077Z" stroke="#6B4A44" stroke-width="3"/>
<path d="M228.211 396L251 374.964L273.789 396L251 417.036L228.211 396Z" stroke="#6B4A44" stroke-width="3"/>
<path d="M178.211 396L201 374.964L223.789 396L201 417.036L178.211 396Z" stroke="#6B4A44" stroke-width="3"/>
<path d="M203.211 432.923L226 411.888L248.789 432.923L226 453.959L203.211 432.923Z" stroke="#6B4A44" stroke-width="3"/>
<path d="M203.211 386.769L226 365.734L248.789 386.769L226 407.805L203.211 386.769Z" stroke="#E99B55" stroke-width="3"/>
<path d="M203.211 405.231L226 384.195L248.789 405.231L226 426.266L203.211 405.231Z" stroke="#E99B55" stroke-width="3"/>
<path d="M263.211 259.077L286 238.041L308.789 259.077L286 280.113L263.211 259.077Z" stroke="#6B4A44" stroke-width="3"/>
<path d="M288.211 296L311 274.964L333.789 296L311 317.036L288.211 296Z" stroke="#6B4A44" stroke-width="3"/>
<path d="M238.211 296L261 274.964L283.789 296L261 317.036L238.211 296Z" stroke="#6B4A44" stroke-width="3"/>
<path d="M263.211 332.923L286 311.888L308.789 332.923L286 353.959L263.211 332.923Z" stroke="#6B4A44" stroke-width="3"/>
<path d="M263.211 286.769L286 265.734L308.789 286.769L286 307.805L263.211 286.769Z" stroke="#E99B55" stroke-width="3"/>
<path d="M263.211 305.231L286 284.195L308.789 305.231L286 326.266L263.211 305.231Z" stroke="#E99B55" stroke-width="3"/>
<path d="M323.211 359.077L346 338.041L368.789 359.077L346 380.113L323.211 359.077Z" stroke="#6B4A44" stroke-width="3"/>
<path d="M348.211 396L371 374.964L393.789 396L371 417.036L348.211 396Z" stroke="#6B4A44" stroke-width="3"/>
<path d="M298.211 396L321 374.964L343.789 396L321 417.036L298.211 396Z" stroke="#6B4A44" stroke-width="3"/>
<path d="M323.211 432.923L346 411.888L368.789 432.923L346 453.959L323.211 432.923Z" stroke="#6B4A44" stroke-width="3"/>
<path d="M323.211 386.769L346 365.734L368.789 386.769L346 407.805L323.211 386.769Z" stroke="#E99B55" stroke-width="3"/>
<path d="M323.211 405.231L346 384.195L368.789 405.231L346 426.266L323.211 405.231Z" stroke="#E99B55" stroke-width="3"/>
<path d="M383.211 259.077L406 238.041L428.789 259.077L406 280.113L383.211 259.077Z" stroke="#6B4A44" stroke-width="3"/>
<path d="M408.211 296L431 274.964L453.789 296L431 317.036L408.211 296Z" stroke="#6B4A44" stroke-width="3"/>
<path d="M358.211 296L381 274.964L403.789 296L381 317.036L358.211 296Z" stroke="#6B4A44" stroke-width="3"/>
<path d="M383.211 332.923L406 311.888L428.789 332.923L406 353.959L383.211 332.923Z" stroke="#6B4A44" stroke-width="3"/>
<path d="M383.211 286.769L406 265.734L428.789 286.769L406 307.805L383.211 286.769Z" stroke="#E99B55" stroke-width="3"/>
<path d="M383.211 305.231L406 284.195L428.789 305.231L406 326.266L383.211 305.231Z" stroke="#E99B55" stroke-width="3"/>
<path d="M443.211 359.077L466 338.041L488.789 359.077L466 380.113L443.211 359.077Z" stroke="#6B4A44" stroke-width="3"/>
<path d="M468.211 396L491 374.964L513.789 396L491 417.036L468.211 396Z" stroke="#6B4A44" stroke-width="3"/>
<path d="M418.211 396L441 374.964L463.789 396L441 417.036L418.211 396Z" stroke="#6B4A44" stroke-width="3"/>
<path d="M443.211 432.923L466 411.888L488.789 432.923L466 453.959L443.211 432.923Z" stroke="#6B4A44" stroke-width="3"/>
<path d="M443.211 386.769L466 365.734L488.789 386.769L466 407.805L443.211 386.769Z" stroke="#E99B55" stroke-width="3"/>
<path d="M443.211 405.231L466 384.195L488.789 405.231L466 426.266L443.211 405.231Z" stroke="#E99B55" stroke-width="3"/>
<path d="M503.211 259.077L526 238.041L548.789 259.077L526 280.113L503.211 259.077Z" stroke="#6B4A44" stroke-width="3"/>
<path d="M528.211 296L551 274.964L573.789 296L551 317.036L528.211 296Z" stroke="#6B4A44" stroke-width="3"/>
<path d="M478.211 296L501 274.964L523.789 296L501 317.036L478.211 296Z" stroke="#6B4A44" stroke-width="3"/>
<path d="M503.211 332.923L526 311.888L548.789 332.923L526 353.959L503.211 332.923Z" stroke="#6B4A44" stroke-width="3"/>
<path d="M503.211 286.769L526 265.734L548.789 286.769L526 307.805L503.211 286.769Z" stroke="#E99B55" stroke-width="3"/>
<path d="M503.211 305.231L526 284.195L548.789 305.231L526 326.266L503.211 305.231Z" stroke="#E99B55" stroke-width="3"/>
<path d="M563.211 359.077L586 338.041L608.789 359.077L586 380.113L563.211 359.077Z" stroke="#6B4A44" stroke-width="3"/>
<path d="M588.211 396L611 374.964L633.789 396L611 417.036L588.211 396Z" stroke="#6B4A44" stroke-width="3"/>
<path d="M538.211 396L561 374.964L583.789 396L561 417.036L538.211 396Z" stroke="#6B4A44" stroke-width="3"/>
<path d="M563.211 432.923L586 411.888L608.789 432.923L586 453.959L563.211 432.923Z" stroke="#6B4A44" stroke-width="3"/>
<path d="M563.211 386.769L586 365.734L608.789 386.769L586 407.805L563.211 386.769Z" stroke="#E99B55" stroke-width="3"/>
<path d="M563.211 405.231L586 384.195L608.789 405.231L586 426.266L563.211 405.231Z" stroke="#E99B55" stroke-width="3"/>
<path d="M623.211 259.077L646 238.041L668.789 259.077L646 280.113L623.211 259.077Z" stroke="#6B4A44" stroke-width="3"/>
<path d="M648.211 296L671 274.964L693.789 296L671 317.036L648.211 296Z" stroke="#6B4A44" stroke-width="3"/>
<path d="M598.211 296L621 274.964L643.789 296L621 317.036L598.211 296Z" stroke="#6B4A44" stroke-width="3"/>
<path d="M623.211 332.923L646 311.888L668.789 332.923L646 353.959L623.211 332.923Z" stroke="#6B4A44" stroke-width="3"/>
<path d="M623.211 286.769L646 265.734L668.789 286.769L646 307.805L623.211 286.769Z" stroke="#E99B55" stroke-width="3"/>
<path d="M623.211 305.231L646 284.195L668.789 305.231L646 326.266L623.211 305.231Z" stroke="#E99B55" stroke-width="3"/>
<path d="M683.211 359.077L706 338.041L728.789 359.077L706 380.113L683.211 359.077Z" stroke="#6B4A44" stroke-width="3"/>
<path d="M708.211 396L731 374.964L753.789 396L731 417.036L708.211 396Z" stroke="#6B4A44" stroke-width="3"/>
<path d="M658.211 396L681 374.964L703.789 396L681 417.036L658.211 396Z" stroke="#6B4A44" stroke-width="3"/>
<path d="M683.211 432.923L706 411.888L728.789 432.923L706 453.959L683.211 432.923Z" stroke="#6B4A44" stroke-width="3"/>
<path d="M683.211 386.769L706 365.734L728.789 386.769L706 407.805L683.211 386.769Z" stroke="#E99B55" stroke-width="3"/>
<path d="M683.211 405.231L706 384.195L728.789 405.231L706 426.266L683.211 405.231Z" stroke="#E99B55" stroke-width="3"/>
<path d="M743.211 259.077L766 238.041L788.789 259.077L766 280.113L743.211 259.077Z" stroke="#6B4A44" stroke-width="3"/>
<path d="M768.211 296L791 274.964L813.789 296L791 317.036L768.211 296Z" stroke="#6B4A44" stroke-width="3"/>
<path d="M718.211 296L741 274.964L763.789 296L741 317.036L718.211 296Z" stroke="#6B4A44" stroke-width="3"/>
<path d="M743.211 332.923L766 311.888L788.789 332.923L766 353.959L743.211 332.923Z" stroke="#6B4A44" stroke-width="3"/>
<path d="M743.211 286.769L766 265.734L788.789 286.769L766 307.805L743.211 286.769Z" stroke="#E99B55" stroke-width="3"/>
<path d="M743.211 305.231L766 284.195L788.789 305.231L766 326.266L743.211 305.231Z" stroke="#E99B55" stroke-width="3"/>
<path d="M803.211 359.077L826 338.041L848.789 359.077L826 380.113L803.211 359.077Z" stroke="#6B4A44" stroke-width="3"/>
<path d="M828.211 396L851 374.964L873.789 396L851 417.036L828.211 396Z" stroke="#6B4A44" stroke-width="3"/>
<path d="M778.211 396L801 374.964L823.789 396L801 417.036L778.211 396Z" stroke="#6B4A44" stroke-width="3"/>
<path d="M803.211 432.923L826 411.888L848.789 432.923L826 453.959L803.211 432.923Z" stroke="#6B4A44" stroke-width="3"/>
<path d="M803.211 386.769L826 365.734L848.789 386.769L826 407.805L803.211 386.769Z" stroke="#E99B55" stroke-width="3"/>
<path d="M803.211 405.231L826 384.195L848.789 405.231L826 426.266L803.211 405.231Z" stroke="#E99B55" stroke-width="3"/>
<path d="M863.211 259.077L886 238.041L908.789 259.077L886 280.113L863.211 259.077Z" stroke="#6B4A44" stroke-width="3"/>
<path d="M888.211 296L911 274.964L933.789 296L911 317.036L888.211 296Z" stroke="#6B4A44" stroke-width="3"/>
<path d="M838.211 296L861 274.964L883.789 296L861 317.036L838.211 296Z" stroke="#6B4A44" stroke-width="3"/>
<path d="M863.211 332.923L886 311.888L908.789 332.923L886 353.959L863.211 332.923Z" stroke="#6B4A44" stroke-width="3"/>
<path d="M863.211 286.769L886 265.734L908.789 286.769L886 307.805L863.211 286.769Z" stroke="#E99B55" stroke-width="3"/>
<path d="M863.211 305.231L886 284.195L908.789 305.231L886 326.266L863.211 305.231Z" stroke="#E99B55" stroke-width="3"/>
<path d="M923.211 359.077L946 338.041L968.789 359.077L946 380.113L923.211 359.077Z" stroke="#6B4A44" stroke-width="3"/>
<path d="M948.211 396L971 374.964L993.789 396L971 417.036L948.211 396Z" stroke="#6B4A44" stroke-width="3"/>
<path d="M898.211 396L921 374.964L943.789 396L921 417.036L898.211 396Z" stroke="#6B4A44" stroke-width="3"/>
<path d="M923.211 432.923L946 411.888L968.789 432.923L946 453.959L923.211 432.923Z" stroke="#6B4A44" stroke-width="3"/>
<path d="M923.211 386.769L946 365.734L968.789 386.769L946 407.805L923.211 386.769Z" stroke="#E99B55" stroke-width="3"/>
<path d="M923.211 405.231L946 384.195L968.789 405.231L946 426.266L923.211 405.231Z" stroke="#E99B55" stroke-width="3"/>
<path d="M983.211 259.077L1006 238.041L1028.79 259.077L1006 280.113L983.211 259.077Z" stroke="#6B4A44" stroke-width="3"/>
<path d="M1008.21 296L1031 274.964L1053.79 296L1031 317.036L1008.21 296Z" stroke="#6B4A44" stroke-width="3"/>
<path d="M958.211 296L981 274.964L1003.79 296L981 317.036L958.211 296Z" stroke="#6B4A44" stroke-width="3"/>
<path d="M983.211 332.923L1006 311.888L1028.79 332.923L1006 353.959L983.211 332.923Z" stroke="#6B4A44" stroke-width="3"/>
<path d="M983.211 286.769L1006 265.734L1028.79 286.769L1006 307.805L983.211 286.769Z" stroke="#E99B55" stroke-width="3"/>
<path d="M983.211 305.231L1006 284.195L1028.79 305.231L1006 326.266L983.211 305.231Z" stroke="#E99B55" stroke-width="3"/>
<path d="M1043.21 359.077L1066 338.041L1088.79 359.077L1066 380.113L1043.21 359.077Z" stroke="#6B4A44" stroke-width="3"/>
<path d="M1068.21 396L1091 374.964L1113.79 396L1091 417.036L1068.21 396Z" stroke="#6B4A44" stroke-width="3"/>
<path d="M1018.21 396L1041 374.964L1063.79 396L1041 417.036L1018.21 396Z" stroke="#6B4A44" stroke-width="3"/>
<path d="M1043.21 432.923L1066 411.888L1088.79 432.923L1066 453.959L1043.21 432.923Z" stroke="#6B4A44" stroke-width="3"/>
<path d="M1043.21 386.769L1066 365.734L1088.79 386.769L1066 407.805L1043.21 386.769Z" stroke="#E99B55" stroke-width="3"/>
<path d="M1043.21 405.231L1066 384.195L1088.79 405.231L1066 426.266L1043.21 405.231Z" stroke="#E99B55" stroke-width="3"/>
<path d="M1103.21 259.077L1126 238.041L1148.79 259.077L1126 280.113L1103.21 259.077Z" stroke="#6B4A44" stroke-width="3"/>
<path d="M1128.21 296L1151 274.964L1173.79 296L1151 317.036L1128.21 296Z" stroke="#6B4A44" stroke-width="3"/>
<path d="M1078.21 296L1101 274.964L1123.79 296L1101 317.036L1078.21 296Z" stroke="#6B4A44" stroke-width="3"/>
<path d="M1103.21 332.923L1126 311.888L1148.79 332.923L1126 353.959L1103.21 332.923Z" stroke="#6B4A44" stroke-width="3"/>
<path d="M1103.21 286.769L1126 265.734L1148.79 286.769L1126 307.805L1103.21 286.769Z" stroke="#E99B55" stroke-width="3"/>
<path d="M1103.21 305.231L1126 284.195L1148.79 305.231L1126 326.266L1103.21 305.231Z" stroke="#E99B55" stroke-width="3"/>
<path d="M1163.21 359.077L1186 338.041L1208.79 359.077L1186 380.113L1163.21 359.077Z" stroke="#6B4A44" stroke-width="3"/>
<path d="M1188.21 396L1211 374.964L1233.79 396L1211 417.036L1188.21 396Z" stroke="#6B4A44" stroke-width="3"/>
<path d="M1138.21 396L1161 374.964L1183.79 396L1161 417.036L1138.21 396Z" stroke="#6B4A44" stroke-width="3"/>
<path d="M1163.21 432.923L1186 411.888L1208.79 432.923L1186 453.959L1163.21 432.923Z" stroke="#6B4A44" stroke-width="3"/>
<path d="M1163.21 386.769L1186 365.734L1208.79 386.769L1186 407.805L1163.21 386.769Z" stroke="#E99B55" stroke-width="3"/>
<path d="M1163.21 405.231L1186 384.195L1208.79 405.231L1186 426.266L1163.21 405.231Z" stroke="#E99B55" stroke-width="3"/>
<path d="M23.2115 479.077L46 458.041L68.7885 479.077L46 500.113L23.2115 479.077Z" stroke="#6B4A44" stroke-width="3"/>
<path d="M48.2115 516L71 494.964L93.7885 516L71 537.036L48.2115 516Z" stroke="#6B4A44" stroke-width="3"/>
<path d="M-1.78852 516L21 494.964L43.7885 516L21 537.036L-1.78852 516Z" stroke="#6B4A44" stroke-width="3"/>
<path d="M23.2115 552.923L46 531.888L68.7885 552.923L46 573.959L23.2115 552.923Z" stroke="#6B4A44" stroke-width="3"/>
<path d="M23.2115 506.769L46 485.734L68.7885 506.769L46 527.805L23.2115 506.769Z" stroke="#E99B55" stroke-width="3"/>
<path d="M23.2115 525.231L46 504.195L68.7885 525.231L46 546.266L23.2115 525.231Z" stroke="#E99B55" stroke-width="3"/>
<path d="M83.2115 579.077L106 558.041L128.789 579.077L106 600.113L83.2115 579.077Z" stroke="#6B4A44" stroke-width="3"/>
<path d="M108.211 616L131 594.964L153.789 616L131 637.036L108.211 616Z" stroke="#6B4A44" stroke-width="3"/>
<path d="M58.2115 616L81 594.964L103.789 616L81 637.036L58.2115 616Z" stroke="#6B4A44" stroke-width="3"/>
<path d="M83.2115 606.769L106 585.734L128.789 606.769L106 627.805L83.2115 606.769Z" stroke="#E99B55" stroke-width="3"/>
<path d="M-36.7885 139.077L-14 118.041L8.78852 139.077L-14 160.113L-36.7885 139.077Z" stroke="#6B4A44" stroke-width="3"/>
<path d="M-11.7885 176L11 154.964L33.7885 176L11 197.036L-11.7885 176Z" stroke="#6B4A44" stroke-width="3"/>
<path d="M-36.7885 212.923L-14 191.888L8.78852 212.923L-14 233.959L-36.7885 212.923Z" stroke="#6B4A44" stroke-width="3"/>
<path d="M-36.7885 166.769L-14 145.734L8.78852 166.769L-14 187.805L-36.7885 166.769Z" stroke="#E99B55" stroke-width="3"/>
<path d="M-36.7885 185.231L-14 164.195L8.78852 185.231L-14 206.266L-36.7885 185.231Z" stroke="#E99B55" stroke-width="3"/>
<path d="M-36.7885 359.077L-14 338.041L8.78852 359.077L-14 380.113L-36.7885 359.077Z" stroke="#6B4A44" stroke-width="3"/>
<path d="M-11.7885 396L11 374.964L33.7885 396L11 417.036L-11.7885 396Z" stroke="#6B4A44" stroke-width="3"/>
<path d="M-36.7885 432.923L-14 411.888L8.78852 432.923L-14 453.959L-36.7885 432.923Z" stroke="#6B4A44" stroke-width="3"/>
<path d="M-36.7885 386.769L-14 365.734L8.78852 386.769L-14 407.805L-36.7885 386.769Z" stroke="#E99B55" stroke-width="3"/>
<path d="M-36.7885 405.231L-14 384.195L8.78852 405.231L-14 426.266L-36.7885 405.231Z" stroke="#E99B55" stroke-width="3"/>
<path d="M-36.7885 579.077L-14 558.041L8.78852 579.077L-14 600.113L-36.7885 579.077Z" stroke="#6B4A44" stroke-width="3"/>
<path d="M-11.7885 616L11 594.964L33.7885 616L11 637.036L-11.7885 616Z" stroke="#6B4A44" stroke-width="3"/>
<path d="M-36.7885 606.769L-14 585.734L8.78852 606.769L-14 627.805L-36.7885 606.769Z" stroke="#E99B55" stroke-width="3"/>
<path d="M143.211 479.077L166 458.041L188.789 479.077L166 500.113L143.211 479.077Z" stroke="#6B4A44" stroke-width="3"/>
<path d="M168.211 516L191 494.964L213.789 516L191 537.036L168.211 516Z" stroke="#6B4A44" stroke-width="3"/>
<path d="M118.211 516L141 494.964L163.789 516L141 537.036L118.211 516Z" stroke="#6B4A44" stroke-width="3"/>
<path d="M143.211 552.923L166 531.888L188.789 552.923L166 573.959L143.211 552.923Z" stroke="#6B4A44" stroke-width="3"/>
<path d="M143.211 506.769L166 485.734L188.789 506.769L166 527.805L143.211 506.769Z" stroke="#E99B55" stroke-width="3"/>
<path d="M143.211 525.231L166 504.195L188.789 525.231L166 546.266L143.211 525.231Z" stroke="#E99B55" stroke-width="3"/>
<path d="M203.211 579.077L226 558.041L248.789 579.077L226 600.113L203.211 579.077Z" stroke="#6B4A44" stroke-width="3"/>
<path d="M228.211 616L251 594.964L273.789 616L251 637.036L228.211 616Z" stroke="#6B4A44" stroke-width="3"/>
<path d="M178.211 616L201 594.964L223.789 616L201 637.036L178.211 616Z" stroke="#6B4A44" stroke-width="3"/>
<path d="M203.211 606.769L226 585.734L248.789 606.769L226 627.805L203.211 606.769Z" stroke="#E99B55" stroke-width="3"/>
<path d="M263.211 479.077L286 458.041L308.789 479.077L286 500.113L263.211 479.077Z" stroke="#6B4A44" stroke-width="3"/>
<path d="M288.211 516L311 494.964L333.789 516L311 537.036L288.211 516Z" stroke="#6B4A44" stroke-width="3"/>
<path d="M238.211 516L261 494.964L283.789 516L261 537.036L238.211 516Z" stroke="#6B4A44" stroke-width="3"/>
<path d="M263.211 552.923L286 531.888L308.789 552.923L286 573.959L263.211 552.923Z" stroke="#6B4A44" stroke-width="3"/>
<path d="M263.211 506.769L286 485.734L308.789 506.769L286 527.805L263.211 506.769Z" stroke="#E99B55" stroke-width="3"/>
<path d="M263.211 525.231L286 504.195L308.789 525.231L286 546.266L263.211 525.231Z" stroke="#E99B55" stroke-width="3"/>
<path d="M323.211 579.077L346 558.041L368.789 579.077L346 600.113L323.211 579.077Z" stroke="#6B4A44" stroke-width="3"/>
<path d="M348.211 616L371 594.964L393.789 616L371 637.036L348.211 616Z" stroke="#6B4A44" stroke-width="3"/>
<path d="M298.211 616L321 594.964L343.789 616L321 637.036L298.211 616Z" stroke="#6B4A44" stroke-width="3"/>
<path d="M323.211 606.769L346 585.734L368.789 606.769L346 627.805L323.211 606.769Z" stroke="#E99B55" stroke-width="3"/>
<path d="M383.211 479.077L406 458.041L428.789 479.077L406 500.113L383.211 479.077Z" stroke="#6B4A44" stroke-width="3"/>
<path d="M408.211 516L431 494.964L453.789 516L431 537.036L408.211 516Z" stroke="#6B4A44" stroke-width="3"/>
<path d="M358.211 516L381 494.964L403.789 516L381 537.036L358.211 516Z" stroke="#6B4A44" stroke-width="3"/>
<path d="M383.211 552.923L406 531.888L428.789 552.923L406 573.959L383.211 552.923Z" stroke="#6B4A44" stroke-width="3"/>
<path d="M383.211 506.769L406 485.734L428.789 506.769L406 527.805L383.211 506.769Z" stroke="#E99B55" stroke-width="3"/>
<path d="M383.211 525.231L406 504.195L428.789 525.231L406 546.266L383.211 525.231Z" stroke="#E99B55" stroke-width="3"/>
<path d="M443.211 579.077L466 558.041L488.789 579.077L466 600.113L443.211 579.077Z" stroke="#6B4A44" stroke-width="3"/>
<path d="M468.211 616L491 594.964L513.789 616L491 637.036L468.211 616Z" stroke="#6B4A44" stroke-width="3"/>
<path d="M418.211 616L441 594.964L463.789 616L441 637.036L418.211 616Z" stroke="#6B4A44" stroke-width="3"/>
<path d="M443.211 606.769L466 585.734L488.789 606.769L466 627.805L443.211 606.769Z" stroke="#E99B55" stroke-width="3"/>
<path d="M503.211 479.077L526 458.041L548.789 479.077L526 500.113L503.211 479.077Z" stroke="#6B4A44" stroke-width="3"/>
<path d="M528.211 516L551 494.964L573.789 516L551 537.036L528.211 516Z" stroke="#6B4A44" stroke-width="3"/>
<path d="M478.211 516L501 494.964L523.789 516L501 537.036L478.211 516Z" stroke="#6B4A44" stroke-width="3"/>
<path d="M503.211 552.923L526 531.888L548.789 552.923L526 573.959L503.211 552.923Z" stroke="#6B4A44" stroke-width="3"/>
<path d="M503.211 506.769L526 485.734L548.789 506.769L526 527.805L503.211 506.769Z" stroke="#E99B55" stroke-width="3"/>
<path d="M503.211 525.231L526 504.195L548.789 525.231L526 546.266L503.211 525.231Z" stroke="#E99B55" stroke-width="3"/>
<path d="M563.211 579.077L586 558.041L608.789 579.077L586 600.113L563.211 579.077Z" stroke="#6B4A44" stroke-width="3"/>
<path d="M588.211 616L611 594.964L633.789 616L611 637.036L588.211 616Z" stroke="#6B4A44" stroke-width="3"/>
<path d="M538.211 616L561 594.964L583.789 616L561 637.036L538.211 616Z" stroke="#6B4A44" stroke-width="3"/>
<path d="M563.211 606.769L586 585.734L608.789 606.769L586 627.805L563.211 606.769Z" stroke="#E99B55" stroke-width="3"/>
<path d="M623.211 479.077L646 458.041L668.789 479.077L646 500.113L623.211 479.077Z" stroke="#6B4A44" stroke-width="3"/>
<path d="M648.211 516L671 494.964L693.789 516L671 537.036L648.211 516Z" stroke="#6B4A44" stroke-width="3"/>
<path d="M598.211 516L621 494.964L643.789 516L621 537.036L598.211 516Z" stroke="#6B4A44" stroke-width="3"/>
<path d="M623.211 552.923L646 531.888L668.789 552.923L646 573.959L623.211 552.923Z" stroke="#6B4A44" stroke-width="3"/>
<path d="M623.211 506.769L646 485.734L668.789 506.769L646 527.805L623.211 506.769Z" stroke="#E99B55" stroke-width="3"/>
<path d="M623.211 525.231L646 504.195L668.789 525.231L646 546.266L623.211 525.231Z" stroke="#E99B55" stroke-width="3"/>
<path d="M683.211 579.077L706 558.041L728.789 579.077L706 600.113L683.211 579.077Z" stroke="#6B4A44" stroke-width="3"/>
<path d="M708.211 616L731 594.964L753.789 616L731 637.036L708.211 616Z" stroke="#6B4A44" stroke-width="3"/>
<path d="M658.211 616L681 594.964L703.789 616L681 637.036L658.211 616Z" stroke="#6B4A44" stroke-width="3"/>
<path d="M683.211 606.769L706 585.734L728.789 606.769L706 627.805L683.211 606.769Z" stroke="#E99B55" stroke-width="3"/>
<path d="M743.211 479.077L766 458.041L788.789 479.077L766 500.113L743.211 479.077Z" stroke="#6B4A44" stroke-width="3"/>
<path d="M768.211 516L791 494.964L813.789 516L791 537.036L768.211 516Z" stroke="#6B4A44" stroke-width="3"/>
<path d="M718.211 516L741 494.964L763.789 516L741 537.036L718.211 516Z" stroke="#6B4A44" stroke-width="3"/>
<path d="M743.211 552.923L766 531.888L788.789 552.923L766 573.959L743.211 552.923Z" stroke="#6B4A44" stroke-width="3"/>
<path d="M743.211 506.769L766 485.734L788.789 506.769L766 527.805L743.211 506.769Z" stroke="#E99B55" stroke-width="3"/>
<path d="M743.211 525.231L766 504.195L788.789 525.231L766 546.266L743.211 525.231Z" stroke="#E99B55" stroke-width="3"/>
<path d="M803.211 579.077L826 558.041L848.789 579.077L826 600.113L803.211 579.077Z" stroke="#6B4A44" stroke-width="3"/>
<path d="M828.211 616L851 594.964L873.789 616L851 637.036L828.211 616Z" stroke="#6B4A44" stroke-width="3"/>
<path d="M778.211 616L801 594.964L823.789 616L801 637.036L778.211 616Z" stroke="#6B4A44" stroke-width="3"/>
<path d="M803.211 606.769L826 585.734L848.789 606.769L826 627.805L803.211 606.769Z" stroke="#E99B55" stroke-width="3"/>
<path d="M863.211 479.077L886 458.041L908.789 479.077L886 500.113L863.211 479.077Z" stroke="#6B4A44" stroke-width="3"/>
<path d="M888.211 516L911 494.964L933.789 516L911 537.036L888.211 516Z" stroke="#6B4A44" stroke-width="3"/>
<path d="M838.211 516L861 494.964L883.789 516L861 537.036L838.211 516Z" stroke="#6B4A44" stroke-width="3"/>
<path d="M863.211 552.923L886 531.888L908.789 552.923L886 573.959L863.211 552.923Z" stroke="#6B4A44" stroke-width="3"/>
<path d="M863.211 506.769L886 485.734L908.789 506.769L886 527.805L863.211 506.769Z" stroke="#E99B55" stroke-width="3"/>
<path d="M863.211 525.231L886 504.195L908.789 525.231L886 546.266L863.211 525.231Z" stroke="#E99B55" stroke-width="3"/>
<path d="M923.211 579.077L946 558.041L968.789 579.077L946 600.113L923.211 579.077Z" stroke="#6B4A44" stroke-width="3"/>
<path d="M948.211 616L971 594.964L993.789 616L971 637.036L948.211 616Z" stroke="#6B4A44" stroke-width="3"/>
<path d="M898.211 616L921 594.964L943.789 616L921 637.036L898.211 616Z" stroke="#6B4A44" stroke-width="3"/>
<path d="M923.211 606.769L946 585.734L968.789 606.769L946 627.805L923.211 606.769Z" stroke="#E99B55" stroke-width="3"/>
<path d="M983.211 479.077L1006 458.041L1028.79 479.077L1006 500.113L983.211 479.077Z" stroke="#6B4A44" stroke-width="3"/>
<path d="M1008.21 516L1031 494.964L1053.79 516L1031 537.036L1008.21 516Z" stroke="#6B4A44" stroke-width="3"/>
<path d="M958.211 516L981 494.964L1003.79 516L981 537.036L958.211 516Z" stroke="#6B4A44" stroke-width="3"/>
<path d="M983.211 552.923L1006 531.888L1028.79 552.923L1006 573.959L983.211 552.923Z" stroke="#6B4A44" stroke-width="3"/>
<path d="M983.211 506.769L1006 485.734L1028.79 506.769L1006 527.805L983.211 506.769Z" stroke="#E99B55" stroke-width="3"/>
<path d="M983.211 525.231L1006 504.195L1028.79 525.231L1006 546.266L983.211 525.231Z" stroke="#E99B55" stroke-width="3"/>
<path d="M1043.21 579.077L1066 558.041L1088.79 579.077L1066 600.113L1043.21 579.077Z" stroke="#6B4A44" stroke-width="3"/>
<path d="M1068.21 616L1091 594.964L1113.79 616L1091 637.036L1068.21 616Z" stroke="#6B4A44" stroke-width="3"/>
<path d="M1018.21 616L1041 594.964L1063.79 616L1041 637.036L1018.21 616Z" stroke="#6B4A44" stroke-width="3"/>
<path d="M1043.21 606.769L1066 585.734L1088.79 606.769L1066 627.805L1043.21 606.769Z" stroke="#E99B55" stroke-width="3"/>
<path d="M109.211 -13L132 -34.0356L154.789 -13L132 8.03557L109.211 -13Z" stroke="#6B4A44" stroke-width="3"/>
<path d="M59.2115 -13L82 -34.0356L104.789 -13L82 8.03557L59.2115 -13Z" stroke="#6B4A44" stroke-width="3"/>
<path d="M84.2115 23.9231L107 2.88752L129.789 23.9231L107 44.9586L84.2115 23.9231Z" stroke="#6B4A44" stroke-width="3"/>
<path d="M84.2115 -22.2308L107 -43.2663L129.789 -22.2308L107 -1.19521L84.2115 -22.2308Z" stroke="#E99B55" stroke-width="3"/>
<path d="M84.2115 -3.76921L107 -24.8048L129.789 -3.76921L107 17.2663L84.2115 -3.76921Z" stroke="#E99B55" stroke-width="3"/>
<path d="M229.211 -13L252 -34.0356L274.789 -13L252 8.03557L229.211 -13Z" stroke="#6B4A44" stroke-width="3"/>
<path d="M179.211 -13L202 -34.0356L224.789 -13L202 8.03557L179.211 -13Z" stroke="#6B4A44" stroke-width="3"/>
<path d="M204.211 23.9231L227 2.88752L249.789 23.9231L227 44.9586L204.211 23.9231Z" stroke="#6B4A44" stroke-width="3"/>
<path d="M204.211 -22.2308L227 -43.2663L249.789 -22.2308L227 -1.19521L204.211 -22.2308Z" stroke="#E99B55" stroke-width="3"/>
<path d="M204.211 -3.76921L227 -24.8048L249.789 -3.76921L227 17.2663L204.211 -3.76921Z" stroke="#E99B55" stroke-width="3"/>
<path d="M349.211 -13L372 -34.0356L394.789 -13L372 8.03557L349.211 -13Z" stroke="#6B4A44" stroke-width="3"/>
<path d="M299.211 -13L322 -34.0356L344.789 -13L322 8.03557L299.211 -13Z" stroke="#6B4A44" stroke-width="3"/>
<path d="M324.211 23.9231L347 2.88752L369.789 23.9231L347 44.9586L324.211 23.9231Z" stroke="#6B4A44" stroke-width="3"/>
<path d="M324.211 -22.2308L347 -43.2663L369.789 -22.2308L347 -1.19521L324.211 -22.2308Z" stroke="#E99B55" stroke-width="3"/>
<path d="M324.211 -3.76921L347 -24.8048L369.789 -3.76921L347 17.2663L324.211 -3.76921Z" stroke="#E99B55" stroke-width="3"/>
<path d="M469.211 -13L492 -34.0356L514.789 -13L492 8.03557L469.211 -13Z" stroke="#6B4A44" stroke-width="3"/>
<path d="M419.211 -13L442 -34.0356L464.789 -13L442 8.03557L419.211 -13Z" stroke="#6B4A44" stroke-width="3"/>
<path d="M444.211 23.9231L467 2.88752L489.789 23.9231L467 44.9586L444.211 23.9231Z" stroke="#6B4A44" stroke-width="3"/>
<path d="M444.211 -22.2308L467 -43.2663L489.789 -22.2308L467 -1.19521L444.211 -22.2308Z" stroke="#E99B55" stroke-width="3"/>
<path d="M444.211 -3.76921L467 -24.8048L489.789 -3.76921L467 17.2663L444.211 -3.76921Z" stroke="#E99B55" stroke-width="3"/>
<path d="M589.211 -13L612 -34.0356L634.789 -13L612 8.03557L589.211 -13Z" stroke="#6B4A44" stroke-width="3"/>
<path d="M539.211 -13L562 -34.0356L584.789 -13L562 8.03557L539.211 -13Z" stroke="#6B4A44" stroke-width="3"/>
<path d="M564.211 23.9231L587 2.88752L609.789 23.9231L587 44.9586L564.211 23.9231Z" stroke="#6B4A44" stroke-width="3"/>
<path d="M564.211 -22.2308L587 -43.2663L609.789 -22.2308L587 -1.19521L564.211 -22.2308Z" stroke="#E99B55" stroke-width="3"/>
<path d="M564.211 -3.76921L587 -24.8048L609.789 -3.76921L587 17.2663L564.211 -3.76921Z" stroke="#E99B55" stroke-width="3"/>
<path d="M709.211 -13L732 -34.0356L754.789 -13L732 8.03557L709.211 -13Z" stroke="#6B4A44" stroke-width="3"/>
<path d="M659.211 -13L682 -34.0356L704.789 -13L682 8.03557L659.211 -13Z" stroke="#6B4A44" stroke-width="3"/>
<path d="M684.211 23.9231L707 2.88752L729.789 23.9231L707 44.9586L684.211 23.9231Z" stroke="#6B4A44" stroke-width="3"/>
<path d="M684.211 -22.2308L707 -43.2663L729.789 -22.2308L707 -1.19521L684.211 -22.2308Z" stroke="#E99B55" stroke-width="3"/>
<path d="M684.211 -3.76921L707 -24.8048L729.789 -3.76921L707 17.2663L684.211 -3.76921Z" stroke="#E99B55" stroke-width="3"/>
<path d="M829.211 -13L852 -34.0356L874.789 -13L852 8.03557L829.211 -13Z" stroke="#6B4A44" stroke-width="3"/>
<path d="M779.211 -13L802 -34.0356L824.789 -13L802 8.03557L779.211 -13Z" stroke="#6B4A44" stroke-width="3"/>
<path d="M804.211 23.9231L827 2.88752L849.789 23.9231L827 44.9586L804.211 23.9231Z" stroke="#6B4A44" stroke-width="3"/>
<path d="M804.211 -22.2308L827 -43.2663L849.789 -22.2308L827 -1.19521L804.211 -22.2308Z" stroke="#E99B55" stroke-width="3"/>
<path d="M804.211 -3.76921L827 -24.8048L849.789 -3.76921L827 17.2663L804.211 -3.76921Z" stroke="#E99B55" stroke-width="3"/>
<path d="M949.211 -13L972 -34.0356L994.789 -13L972 8.03557L949.211 -13Z" stroke="#6B4A44" stroke-width="3"/>
<path d="M899.211 -13L922 -34.0356L944.789 -13L922 8.03557L899.211 -13Z" stroke="#6B4A44" stroke-width="3"/>
<path d="M924.211 23.9231L947 2.88752L969.789 23.9231L947 44.9586L924.211 23.9231Z" stroke="#6B4A44" stroke-width="3"/>
<path d="M924.211 -22.2308L947 -43.2663L969.789 -22.2308L947 -1.19521L924.211 -22.2308Z" stroke="#E99B55" stroke-width="3"/>
<path d="M924.211 -3.76921L947 -24.8048L969.789 -3.76921L947 17.2663L924.211 -3.76921Z" stroke="#E99B55" stroke-width="3"/>
<path d="M1069.21 -13L1092 -34.0356L1114.79 -13L1092 8.03557L1069.21 -13Z" stroke="#6B4A44" stroke-width="3"/>
<path d="M1019.21 -13L1042 -34.0356L1064.79 -13L1042 8.03557L1019.21 -13Z" stroke="#6B4A44" stroke-width="3"/>
<path d="M1044.21 23.9231L1067 2.88752L1089.79 23.9231L1067 44.9586L1044.21 23.9231Z" stroke="#6B4A44" stroke-width="3"/>
<path d="M1044.21 -22.2308L1067 -43.2663L1089.79 -22.2308L1067 -1.19521L1044.21 -22.2308Z" stroke="#E99B55" stroke-width="3"/>
<path d="M1044.21 -3.76921L1067 -24.8048L1089.79 -3.76921L1067 17.2663L1044.21 -3.76921Z" stroke="#E99B55" stroke-width="3"/>
<path d="M1189.21 -13L1212 -34.0356L1234.79 -13L1212 8.03557L1189.21 -13Z" stroke="#6B4A44" stroke-width="3"/>
<path d="M1139.21 -13L1162 -34.0356L1184.79 -13L1162 8.03557L1139.21 -13Z" stroke="#6B4A44" stroke-width="3"/>
<path d="M1164.21 23.9231L1187 2.88752L1209.79 23.9231L1187 44.9586L1164.21 23.9231Z" stroke="#6B4A44" stroke-width="3"/>
<path d="M1164.21 -22.2308L1187 -43.2663L1209.79 -22.2308L1187 -1.19521L1164.21 -22.2308Z" stroke="#E99B55" stroke-width="3"/>
<path d="M1164.21 -3.76921L1187 -24.8048L1209.79 -3.76921L1187 17.2663L1164.21 -3.76921Z" stroke="#E99B55" stroke-width="3"/>
<path d="M-10.7885 -13L12 -34.0356L34.7885 -13L12 8.03557L-10.7885 -13Z" stroke="#6B4A44" stroke-width="3"/>
<path d="M-35.7885 23.9231L-13 2.88752L9.78852 23.9231L-13 44.9586L-35.7885 23.9231Z" stroke="#6B4A44" stroke-width="3"/>
<path d="M-35.7885 -22.2308L-13 -43.2663L9.78852 -22.2308L-13 -1.19521L-35.7885 -22.2308Z" stroke="#E99B55" stroke-width="3"/>
<path d="M-35.7885 -3.76921L-13 -24.8048L9.78852 -3.76921L-13 17.2663L-35.7885 -3.76921Z" stroke="#E99B55" stroke-width="3"/>
<path d="M1103.21 479.077L1126 458.041L1148.79 479.077L1126 500.113L1103.21 479.077Z" stroke="#6B4A44" stroke-width="3"/>
<path d="M1128.21 516L1151 494.964L1173.79 516L1151 537.036L1128.21 516Z" stroke="#6B4A44" stroke-width="3"/>
<path d="M1078.21 516L1101 494.964L1123.79 516L1101 537.036L1078.21 516Z" stroke="#6B4A44" stroke-width="3"/>
<path d="M1103.21 552.923L1126 531.888L1148.79 552.923L1126 573.959L1103.21 552.923Z" stroke="#6B4A44" stroke-width="3"/>
<path d="M1103.21 506.769L1126 485.734L1148.79 506.769L1126 527.805L1103.21 506.769Z" stroke="#E99B55" stroke-width="3"/>
<path d="M1103.21 525.231L1126 504.195L1148.79 525.231L1126 546.266L1103.21 525.231Z" stroke="#E99B55" stroke-width="3"/>
<path d="M1163.21 579.077L1186 558.041L1208.79 579.077L1186 600.113L1163.21 579.077Z" stroke="#6B4A44" stroke-width="3"/>
<path d="M1188.21 616L1211 594.964L1233.79 616L1211 637.036L1188.21 616Z" stroke="#6B4A44" stroke-width="3"/>
<path d="M1138.21 616L1161 594.964L1183.79 616L1161 637.036L1138.21 616Z" stroke="#6B4A44" stroke-width="3"/>
<path d="M1163.21 606.769L1186 585.734L1208.79 606.769L1186 627.805L1163.21 606.769Z" stroke="#E99B55" stroke-width="3"/>
</g>
<defs>
<clipPath id="clip0">
<rect width="1200" height="600" fill="white"/>
</clipPath>
</defs>
</svg>
