<svg width="30" height="30" viewBox="0 0 30 30" fill="none" xmlns="http://www.w3.org/2000/svg">
<circle cx="15.0599" cy="14.754" r="14.5" fill="#666666"/>
<ellipse cx="15.06" cy="14.754" rx="10.3571" ry="10.3571" fill="#C4C4C4"/>
<path d="M12.7123 20.1397V14.9397C12.7123 14.9397 11.3314 14.9397 11.3314 13.3397C11.3314 11.7397 12.7123 11.7397 12.7123 11.7397V10.1397C12.7123 10.1397 13.0576 8.53973 14.0933 8.53973C15.129 8.53973 15.4742 10.1397 15.4742 10.1397V20.1397H12.7123Z" fill="#333333" stroke="#333333"/>
<path d="M21.6028 14.754C21.6028 15.6219 20.8993 16.3254 20.0314 16.3254C19.1635 16.3254 18.46 15.6219 18.46 14.754C18.46 13.8861 19.1635 13.1826 20.0314 13.1826C20.8993 13.1826 21.6028 13.8861 21.6028 14.754Z" fill="#C4C4C4" stroke="#333333"/>
</svg>
