<svg width="500" height="500" viewBox="0 0 500 500" fill="none" xmlns="http://www.w3.org/2000/svg">
<path fill-rule="evenodd" clip-rule="evenodd" d="M0 0H500V500H0V0ZM114 118C102.954 118 94 126.954 94 138V257C94 268.046 102.954 277 114 277H386C397.046 277 406 268.046 406 257V138C406 126.954 397.046 118 386 118H114Z" fill="#BF2222"/>
<rect x="252.25" y="442.25" width="4.5" height="32" rx="2.25" fill="#929292" stroke="black" stroke-width="0.5"/>
<rect x="458.25" y="442.25" width="4.5" height="32" rx="2.25" fill="#929292" stroke="black" stroke-width="0.5"/>
<rect x="458.25" y="442.25" width="4.5" height="32" rx="2.25" fill="#929292" stroke="black" stroke-width="0.5"/>
<rect x="252.25" y="442.25" width="4.5" height="32" rx="2.25" fill="#929292" stroke="black" stroke-width="0.5"/>
<rect x="458.25" y="442.25" width="4.5" height="32" rx="2.25" fill="#929292" stroke="black" stroke-width="0.5"/>
<rect x="355.25" y="442.25" width="4.5" height="32" rx="2.25" fill="#929292" stroke="black" stroke-width="0.5"/>
<rect x="406.25" y="442.25" width="4.5" height="32" rx="2.25" fill="#929292" stroke="black" stroke-width="0.5"/>
<rect x="380.25" y="442.25" width="4.5" height="32" rx="2.25" fill="#929292" stroke="black" stroke-width="0.5"/>
<rect x="432.25" y="442.25" width="4.5" height="32" rx="2.25" fill="#929292" stroke="black" stroke-width="0.5"/>
<rect x="419.25" y="442.25" width="4.5" height="32" rx="2.25" fill="#929292" stroke="black" stroke-width="0.5"/>
<rect x="393.25" y="442.25" width="4.5" height="32" rx="2.25" fill="#929292" stroke="black" stroke-width="0.5"/>
<rect x="445.25" y="442.25" width="4.5" height="32" rx="2.25" fill="#929292" stroke="black" stroke-width="0.5"/>
<rect x="367.25" y="442.25" width="4.5" height="32" rx="2.25" fill="#929292" stroke="black" stroke-width="0.5"/>
<rect x="303.25" y="442.25" width="4.5" height="32" rx="2.25" fill="#929292" stroke="black" stroke-width="0.5"/>
<rect x="290.25" y="442.25" width="4.5" height="32" rx="2.25" fill="#929292" stroke="black" stroke-width="0.5"/>
<rect x="277.25" y="442.25" width="4.5" height="32" rx="2.25" fill="#929292" stroke="black" stroke-width="0.5"/>
<rect x="264.25" y="442.25" width="4.5" height="32" rx="2.25" fill="#929292" stroke="black" stroke-width="0.5"/>
<rect x="329.25" y="442.25" width="4.5" height="32" rx="2.25" fill="#929292" stroke="black" stroke-width="0.5"/>
<rect x="342.25" y="442.25" width="4.5" height="32" rx="2.25" fill="#929292" stroke="black" stroke-width="0.5"/>
<rect x="316.25" y="442.25" width="4.5" height="32" rx="2.25" fill="#929292" stroke="black" stroke-width="0.5"/>
<rect x="33.25" y="442.25" width="4.5" height="32" rx="2.25" fill="#929292" stroke="black" stroke-width="0.5"/>
<rect x="239.25" y="442.25" width="4.5" height="32" rx="2.25" fill="#929292" stroke="black" stroke-width="0.5"/>
<rect x="239.25" y="442.25" width="4.5" height="32" rx="2.25" fill="#929292" stroke="black" stroke-width="0.5"/>
<rect x="33.25" y="442.25" width="4.5" height="32" rx="2.25" fill="#929292" stroke="black" stroke-width="0.5"/>
<rect x="239.25" y="442.25" width="4.5" height="32" rx="2.25" fill="#929292" stroke="black" stroke-width="0.5"/>
<rect x="136.25" y="442.25" width="4.5" height="32" rx="2.25" fill="#929292" stroke="black" stroke-width="0.5"/>
<rect x="187.25" y="442.25" width="4.5" height="32" rx="2.25" fill="#929292" stroke="black" stroke-width="0.5"/>
<rect x="161.25" y="442.25" width="4.5" height="32" rx="2.25" fill="#929292" stroke="black" stroke-width="0.5"/>
<rect x="213.25" y="442.25" width="4.5" height="32" rx="2.25" fill="#929292" stroke="black" stroke-width="0.5"/>
<rect x="200.25" y="442.25" width="4.5" height="32" rx="2.25" fill="#929292" stroke="black" stroke-width="0.5"/>
<rect x="174.25" y="442.25" width="4.5" height="32" rx="2.25" fill="#929292" stroke="black" stroke-width="0.5"/>
<rect x="226.25" y="442.25" width="4.5" height="32" rx="2.25" fill="#929292" stroke="black" stroke-width="0.5"/>
<rect x="148.25" y="442.25" width="4.5" height="32" rx="2.25" fill="#929292" stroke="black" stroke-width="0.5"/>
<rect x="84.25" y="442.25" width="4.5" height="32" rx="2.25" fill="#929292" stroke="black" stroke-width="0.5"/>
<rect x="71.25" y="442.25" width="4.5" height="32" rx="2.25" fill="#929292" stroke="black" stroke-width="0.5"/>
<rect x="58.25" y="442.25" width="4.5" height="32" rx="2.25" fill="#929292" stroke="black" stroke-width="0.5"/>
<rect x="45.25" y="442.25" width="4.5" height="32" rx="2.25" fill="#929292" stroke="black" stroke-width="0.5"/>
<rect x="110.25" y="442.25" width="4.5" height="32" rx="2.25" fill="#929292" stroke="black" stroke-width="0.5"/>
<rect x="123.25" y="442.25" width="4.5" height="32" rx="2.25" fill="#929292" stroke="black" stroke-width="0.5"/>
<rect x="97.25" y="442.25" width="4.5" height="32" rx="2.25" fill="#929292" stroke="black" stroke-width="0.5"/>
<rect x="252.25" y="34.25" width="4.5" height="32" rx="2.25" fill="#929292" stroke="black" stroke-width="0.5"/>
<rect x="458.25" y="34.25" width="4.5" height="32" rx="2.25" fill="#929292" stroke="black" stroke-width="0.5"/>
<rect x="458.25" y="34.25" width="4.5" height="32" rx="2.25" fill="#929292" stroke="black" stroke-width="0.5"/>
<rect x="252.25" y="34.25" width="4.5" height="32" rx="2.25" fill="#929292" stroke="black" stroke-width="0.5"/>
<rect x="458.25" y="34.25" width="4.5" height="32" rx="2.25" fill="#929292" stroke="black" stroke-width="0.5"/>
<rect x="355.25" y="34.25" width="4.5" height="32" rx="2.25" fill="#929292" stroke="black" stroke-width="0.5"/>
<rect x="406.25" y="34.25" width="4.5" height="32" rx="2.25" fill="#929292" stroke="black" stroke-width="0.5"/>
<rect x="380.25" y="34.25" width="4.5" height="32" rx="2.25" fill="#929292" stroke="black" stroke-width="0.5"/>
<rect x="432.25" y="34.25" width="4.5" height="32" rx="2.25" fill="#929292" stroke="black" stroke-width="0.5"/>
<rect x="419.25" y="34.25" width="4.5" height="32" rx="2.25" fill="#929292" stroke="black" stroke-width="0.5"/>
<rect x="393.25" y="34.25" width="4.5" height="32" rx="2.25" fill="#929292" stroke="black" stroke-width="0.5"/>
<rect x="445.25" y="34.25" width="4.5" height="32" rx="2.25" fill="#929292" stroke="black" stroke-width="0.5"/>
<rect x="367.25" y="34.25" width="4.5" height="32" rx="2.25" fill="#929292" stroke="black" stroke-width="0.5"/>
<rect x="303.25" y="34.25" width="4.5" height="32" rx="2.25" fill="#929292" stroke="black" stroke-width="0.5"/>
<rect x="290.25" y="34.25" width="4.5" height="32" rx="2.25" fill="#929292" stroke="black" stroke-width="0.5"/>
<rect x="277.25" y="34.25" width="4.5" height="32" rx="2.25" fill="#929292" stroke="black" stroke-width="0.5"/>
<rect x="264.25" y="34.25" width="4.5" height="32" rx="2.25" fill="#929292" stroke="black" stroke-width="0.5"/>
<rect x="329.25" y="34.25" width="4.5" height="32" rx="2.25" fill="#929292" stroke="black" stroke-width="0.5"/>
<rect x="342.25" y="34.25" width="4.5" height="32" rx="2.25" fill="#929292" stroke="black" stroke-width="0.5"/>
<rect x="316.25" y="34.25" width="4.5" height="32" rx="2.25" fill="#929292" stroke="black" stroke-width="0.5"/>
<rect x="33.25" y="34.25" width="4.5" height="32" rx="2.25" fill="#929292" stroke="black" stroke-width="0.5"/>
<rect x="239.25" y="34.25" width="4.5" height="32" rx="2.25" fill="#929292" stroke="black" stroke-width="0.5"/>
<rect x="239.25" y="34.25" width="4.5" height="32" rx="2.25" fill="#929292" stroke="black" stroke-width="0.5"/>
<rect x="33.25" y="34.25" width="4.5" height="32" rx="2.25" fill="#929292" stroke="black" stroke-width="0.5"/>
<rect x="239.25" y="34.25" width="4.5" height="32" rx="2.25" fill="#929292" stroke="black" stroke-width="0.5"/>
<rect x="136.25" y="34.25" width="4.5" height="32" rx="2.25" fill="#929292" stroke="black" stroke-width="0.5"/>
<rect x="187.25" y="34.25" width="4.5" height="32" rx="2.25" fill="#929292" stroke="black" stroke-width="0.5"/>
<rect x="161.25" y="34.25" width="4.5" height="32" rx="2.25" fill="#929292" stroke="black" stroke-width="0.5"/>
<rect x="213.25" y="34.25" width="4.5" height="32" rx="2.25" fill="#929292" stroke="black" stroke-width="0.5"/>
<rect x="200.25" y="34.25" width="4.5" height="32" rx="2.25" fill="#929292" stroke="black" stroke-width="0.5"/>
<rect x="174.25" y="34.25" width="4.5" height="32" rx="2.25" fill="#929292" stroke="black" stroke-width="0.5"/>
<rect x="226.25" y="34.25" width="4.5" height="32" rx="2.25" fill="#929292" stroke="black" stroke-width="0.5"/>
<rect x="148.25" y="34.25" width="4.5" height="32" rx="2.25" fill="#929292" stroke="black" stroke-width="0.5"/>
<rect x="84.25" y="34.25" width="4.5" height="32" rx="2.25" fill="#929292" stroke="black" stroke-width="0.5"/>
<rect x="71.25" y="34.25" width="4.5" height="32" rx="2.25" fill="#929292" stroke="black" stroke-width="0.5"/>
<rect x="58.25" y="34.25" width="4.5" height="32" rx="2.25" fill="#929292" stroke="black" stroke-width="0.5"/>
<rect x="45.25" y="34.25" width="4.5" height="32" rx="2.25" fill="#929292" stroke="black" stroke-width="0.5"/>
<rect x="110.25" y="34.25" width="4.5" height="32" rx="2.25" fill="#929292" stroke="black" stroke-width="0.5"/>
<rect x="123.25" y="34.25" width="4.5" height="32" rx="2.25" fill="#929292" stroke="black" stroke-width="0.5"/>
<rect x="97.25" y="34.25" width="4.5" height="32" rx="2.25" fill="#929292" stroke="black" stroke-width="0.5"/>
<circle cx="87" cy="132" r="3.5" fill="#6D6D6D" stroke="black"/>
<circle cx="18" cy="50" r="3.5" fill="#6D6D6D" stroke="black"/>
<circle cx="87" cy="261" r="3.5" fill="#6D6D6D" stroke="black"/>
<circle cx="250" cy="287" r="3.5" fill="#6D6D6D" stroke="black"/>
<circle cx="413" cy="261" r="3.5" fill="#6D6D6D" stroke="black"/>
<circle cx="413" cy="132" r="3.5" fill="#6D6D6D" stroke="black"/>
<circle cx="250" cy="108" r="3.5" fill="#6D6D6D" stroke="black"/>
<circle cx="447" cy="250" r="3.5" fill="#6D6D6D" stroke="black"/>
<circle cx="471.5" cy="250.5" r="17.5" fill="#666666"/>
<circle cx="471.5" cy="250.5" r="12.5" fill="#C4C4C4"/>
<path d="M468.667 257V250.724C468.667 250.724 467 250.724 467 248.793C467 246.862 468.667 246.862 468.667 246.862V244.931C468.667 244.931 469.083 243 470.333 243C471.583 243 472 244.931 472 244.931V257H468.667Z" fill="#333333" stroke="#333333"/>
<circle cx="477.5" cy="250.5" r="2" fill="#C4C4C4" stroke="#333333"/>
<path d="M384 120H115C103.954 120 95 128.954 95 140V255C95 266.046 103.954 275 115 275H384C395.046 275 404 266.046 404 255V140C404 128.954 395.046 120 384 120Z" stroke="black" stroke-width="6"/>
</svg>
