<svg width="50" height="50" viewBox="0 0 50 50" fill="none" xmlns="http://www.w3.org/2000/svg">
<path d="M7.02032 25.8614C7.64079 22.6706 8.95484 19.6305 10.8307 16.9436C11.0092 19.184 11.9451 21.3822 13.459 23.0743L14.7011 24.4625L14.3211 22.6389C13.3136 17.8029 14.9243 12.5312 18.1781 8.66738C21.064 5.24036 24.9204 2.83552 29.0606 1.11064C27.531 3.70669 27.4631 7.08122 28.2674 9.94107L28.7487 9.8057L28.2674 9.94107C29.0635 12.7715 30.5948 15.3149 32.0907 17.7996C32.4015 18.3158 32.7108 18.8295 33.0116 19.3426C34.7884 22.3736 36.3899 25.4019 36.4899 28.7019L36.5472 30.5912L37.4316 28.9207C37.5824 28.6359 37.7372 28.3489 37.8935 28.059C38.6951 26.5728 39.5359 25.0139 40.0744 23.3086C40.5124 21.9217 40.8102 20.456 40.7755 18.9911C41.8939 20.7209 42.5766 22.5308 42.9651 24.7063C43.4744 27.5585 43.3754 30.5283 43.0651 33.4267C42.6516 36.6273 41.8305 39.8767 40.1181 42.4957L40.1164 42.4983C38.1098 45.6086 34.8887 47.8384 31.3355 49.0643C24.99 50.182 18.8225 49.2474 14.0807 45.1264C11.7925 42.5254 9.55656 39.8722 8.135 36.7272C6.71574 33.3786 6.30926 29.5181 7.02032 25.8614Z" fill="#F3705A" stroke="#6D0000"/>
<path d="M22.7457 47.7139C31.2995 51.0521 39.7491 40.9334 35.0549 33.1097C35.0549 33.0054 34.9505 33.0054 34.9505 32.9011C35.3678 37.1781 34.3247 40.3075 32.3426 42.081C33.3858 39.5774 32.6556 36.6565 31.4038 34.1529C30.152 31.7537 28.3787 29.5631 27.0225 27.2681C25.6664 24.8689 24.6233 22.1566 25.2492 19.4444C22.7456 21.3221 20.9723 24.1386 20.242 27.1638C19.5118 30.1889 19.9291 33.527 21.2852 36.3436C19.7205 35.1961 18.5731 33.3184 18.4687 31.3364C16.7996 33.3184 15.7565 35.9263 15.8608 38.5342C15.8609 42.6025 19.0946 46.2535 22.7457 47.7139Z" fill="#FFD15C"/>
</svg>
