<svg width="13" height="13" viewBox="0 0 13 13" fill="none" xmlns="http://www.w3.org/2000/svg">
<path fill-rule="evenodd" clip-rule="evenodd" d="M2 0C0.895431 0 0 0.89543 0 2V11C0 12.1046 0.89543 13 2 13H11C12.1046 13 13 12.1046 13 11V2C13 0.895431 12.1046 0 11 0H2ZM3.73684 2.39474C3.18456 2.39474 2.73684 2.84245 2.73684 3.39474V6.52632C2.73684 7.0786 3.18456 7.52632 3.73684 7.52632H9.26316C9.81544 7.52632 10.2632 7.0786 10.2632 6.52632V3.39474C10.2632 2.84245 9.81544 2.39474 9.26316 2.39474H3.73684Z" fill="#BF2222"/>
</svg>
