<svg width="320" height="77" viewBox="0 0 320 77" fill="none" xmlns="http://www.w3.org/2000/svg">
<rect width="320" height="77" rx="12" fill="url(#paint0_linear)"/>
<mask id="mask0" mask-type="alpha" maskUnits="userSpaceOnUse" x="0" y="0" width="320" height="77">
<rect width="320" height="77" rx="12" fill="url(#paint1_linear)"/>
</mask>
<g mask="url(#mask0)">
<path d="M-3.24457 82.7641L3.28572 77.5295L9.81601 82.7641L3.28572 87.9987L-3.24457 82.7641Z" stroke="white" stroke-opacity="0.2" stroke-width="3"/>
<path d="M18.184 51.7504L24.7143 46.5159L31.2446 51.7504L24.7143 56.985L18.184 51.7504Z" stroke="white" stroke-opacity="0.2" stroke-width="3"/>
<path d="M27.1125 63.2016L33.6428 57.967L40.1731 63.2016L33.6428 68.4362L27.1125 63.2016Z" stroke="white" stroke-opacity="0.2" stroke-width="3"/>
<path d="M9.25541 63.2016L15.7857 57.9671L22.316 63.2016L15.7857 68.4362L9.25541 63.2016Z" stroke="white" stroke-opacity="0.2" stroke-width="3"/>
<path d="M18.184 74.6528L24.7143 69.4182L31.2446 74.6528L24.7143 79.8874L18.184 74.6528Z" stroke="white" stroke-opacity="0.2" stroke-width="3"/>
<path d="M18.184 60.3388L24.7143 55.1042L31.2446 60.3388L24.7143 65.5734L18.184 60.3388Z" stroke="black" stroke-opacity="0.1" stroke-width="3"/>
<path d="M18.184 66.0644L24.7143 60.8299L31.2446 66.0644L24.7143 71.299L18.184 66.0644Z" stroke="black" stroke-opacity="0.1" stroke-width="3"/>
<path d="M39.6125 82.7641L46.1428 77.5295L52.6731 82.7641L46.1428 87.9987L39.6125 82.7641Z" stroke="white" stroke-opacity="0.2" stroke-width="3"/>
<path d="M61.0411 51.7504L67.5714 46.5159L74.1017 51.7504L67.5714 56.985L61.0411 51.7504Z" stroke="white" stroke-opacity="0.2" stroke-width="3"/>
<path d="M69.9697 63.2016L76.5 57.967L83.0303 63.2016L76.5 68.4362L69.9697 63.2016Z" stroke="white" stroke-opacity="0.2" stroke-width="3"/>
<path d="M52.1125 63.2016L58.6428 57.9671L65.1731 63.2016L58.6428 68.4362L52.1125 63.2016Z" stroke="white" stroke-opacity="0.2" stroke-width="3"/>
<path d="M61.0411 74.6528L67.5714 69.4182L74.1017 74.6528L67.5714 79.8874L61.0411 74.6528Z" stroke="white" stroke-opacity="0.2" stroke-width="3"/>
<path d="M61.0411 60.3388L67.5714 55.1042L74.1017 60.3388L67.5714 65.5734L61.0411 60.3388Z" stroke="black" stroke-opacity="0.1" stroke-width="3"/>
<path d="M61.0411 66.0644L67.5714 60.8299L74.1017 66.0644L67.5714 71.299L61.0411 66.0644Z" stroke="black" stroke-opacity="0.1" stroke-width="3"/>
<path d="M82.4697 82.7641L89 77.5295L95.5302 82.7641L89 87.9987L82.4697 82.7641Z" stroke="white" stroke-opacity="0.2" stroke-width="3"/>
<path d="M103.898 51.7504L110.429 46.5159L116.959 51.7504L110.429 56.985L103.898 51.7504Z" stroke="white" stroke-opacity="0.2" stroke-width="3"/>
<path d="M112.827 63.2016L119.357 57.967L125.887 63.2016L119.357 68.4362L112.827 63.2016Z" stroke="white" stroke-opacity="0.2" stroke-width="3"/>
<path d="M94.9698 63.2016L101.5 57.9671L108.03 63.2016L101.5 68.4362L94.9698 63.2016Z" stroke="white" stroke-opacity="0.2" stroke-width="3"/>
<path d="M103.898 74.6528L110.429 69.4182L116.959 74.6528L110.429 79.8874L103.898 74.6528Z" stroke="white" stroke-opacity="0.2" stroke-width="3"/>
<path d="M103.898 60.3388L110.429 55.1042L116.959 60.3388L110.429 65.5734L103.898 60.3388Z" stroke="black" stroke-opacity="0.1" stroke-width="3"/>
<path d="M103.898 66.0644L110.429 60.8299L116.959 66.0644L110.429 71.299L103.898 66.0644Z" stroke="black" stroke-opacity="0.1" stroke-width="3"/>
<path d="M125.327 82.7641L131.857 77.5295L138.387 82.7641L131.857 87.9987L125.327 82.7641Z" stroke="white" stroke-opacity="0.2" stroke-width="3"/>
<path d="M146.755 51.7504L153.286 46.5159L159.816 51.7504L153.286 56.985L146.755 51.7504Z" stroke="white" stroke-opacity="0.2" stroke-width="3"/>
<path d="M155.684 63.2016L162.214 57.967L168.745 63.2016L162.214 68.4362L155.684 63.2016Z" stroke="white" stroke-opacity="0.2" stroke-width="3"/>
<path d="M137.827 63.2016L144.357 57.9671L150.887 63.2016L144.357 68.4362L137.827 63.2016Z" stroke="white" stroke-opacity="0.2" stroke-width="3"/>
<path d="M146.755 74.6528L153.286 69.4182L159.816 74.6528L153.286 79.8874L146.755 74.6528Z" stroke="white" stroke-opacity="0.2" stroke-width="3"/>
<path d="M146.755 60.3388L153.286 55.1042L159.816 60.3388L153.286 65.5734L146.755 60.3388Z" stroke="black" stroke-opacity="0.1" stroke-width="3"/>
<path d="M146.755 66.0644L153.286 60.8299L159.816 66.0644L153.286 71.299L146.755 66.0644Z" stroke="black" stroke-opacity="0.1" stroke-width="3"/>
<path d="M168.184 82.7641L174.714 77.5295L181.245 82.7641L174.714 87.9987L168.184 82.7641Z" stroke="white" stroke-opacity="0.2" stroke-width="3"/>
<path d="M189.613 51.7504L196.143 46.5159L202.673 51.7504L196.143 56.985L189.613 51.7504Z" stroke="white" stroke-opacity="0.2" stroke-width="3"/>
<path d="M198.541 63.2016L205.071 57.967L211.602 63.2016L205.071 68.4362L198.541 63.2016Z" stroke="white" stroke-opacity="0.2" stroke-width="3"/>
<path d="M180.684 63.2016L187.214 57.9671L193.745 63.2016L187.214 68.4362L180.684 63.2016Z" stroke="white" stroke-opacity="0.2" stroke-width="3"/>
<path d="M189.613 74.6528L196.143 69.4182L202.673 74.6528L196.143 79.8874L189.613 74.6528Z" stroke="white" stroke-opacity="0.2" stroke-width="3"/>
<path d="M189.613 60.3388L196.143 55.1042L202.673 60.3388L196.143 65.5734L189.613 60.3388Z" stroke="black" stroke-opacity="0.1" stroke-width="3"/>
<path d="M189.613 66.0644L196.143 60.8299L202.673 66.0644L196.143 71.299L189.613 66.0644Z" stroke="black" stroke-opacity="0.1" stroke-width="3"/>
<path d="M211.041 82.7641L217.571 77.5295L224.102 82.7641L217.571 87.9987L211.041 82.7641Z" stroke="white" stroke-opacity="0.2" stroke-width="3"/>
<path d="M232.47 51.7504L239 46.5159L245.53 51.7504L239 56.985L232.47 51.7504Z" stroke="white" stroke-opacity="0.2" stroke-width="3"/>
<path d="M241.398 63.2016L247.929 57.967L254.459 63.2016L247.929 68.4362L241.398 63.2016Z" stroke="white" stroke-opacity="0.2" stroke-width="3"/>
<path d="M223.541 63.2016L230.071 57.9671L236.602 63.2016L230.071 68.4362L223.541 63.2016Z" stroke="white" stroke-opacity="0.2" stroke-width="3"/>
<path d="M232.47 74.6528L239 69.4182L245.53 74.6528L239 79.8874L232.47 74.6528Z" stroke="white" stroke-opacity="0.2" stroke-width="3"/>
<path d="M232.47 60.3388L239 55.1042L245.53 60.3388L239 65.5734L232.47 60.3388Z" stroke="black" stroke-opacity="0.1" stroke-width="3"/>
<path d="M232.47 66.0644L239 60.8299L245.53 66.0644L239 71.299L232.47 66.0644Z" stroke="black" stroke-opacity="0.1" stroke-width="3"/>
<path d="M253.898 82.7641L260.429 77.5295L266.959 82.7641L260.429 87.9987L253.898 82.7641Z" stroke="white" stroke-opacity="0.2" stroke-width="3"/>
<path d="M275.327 51.7504L281.857 46.5159L288.387 51.7504L281.857 56.985L275.327 51.7504Z" stroke="white" stroke-opacity="0.2" stroke-width="3"/>
<path d="M284.255 63.2016L290.786 57.967L297.316 63.2016L290.786 68.4362L284.255 63.2016Z" stroke="white" stroke-opacity="0.2" stroke-width="3"/>
<path d="M266.398 63.2016L272.929 57.9671L279.459 63.2016L272.929 68.4362L266.398 63.2016Z" stroke="white" stroke-opacity="0.2" stroke-width="3"/>
<path d="M275.327 74.6528L281.857 69.4182L288.387 74.6528L281.857 79.8874L275.327 74.6528Z" stroke="white" stroke-opacity="0.2" stroke-width="3"/>
<path d="M275.327 60.3388L281.857 55.1042L288.387 60.3388L281.857 65.5734L275.327 60.3388Z" stroke="black" stroke-opacity="0.1" stroke-width="3"/>
<path d="M275.327 66.0644L281.857 60.8299L288.387 66.0644L281.857 71.299L275.327 66.0644Z" stroke="black" stroke-opacity="0.1" stroke-width="3"/>
<path d="M296.755 82.7641L303.286 77.5295L309.816 82.7641L303.286 87.9987L296.755 82.7641Z" stroke="white" stroke-opacity="0.2" stroke-width="3"/>
<path d="M318.184 51.7504L324.714 46.5159L331.245 51.7504L324.714 56.985L318.184 51.7504Z" stroke="white" stroke-opacity="0.2" stroke-width="3"/>
<path d="M309.255 63.2016L315.786 57.9671L322.316 63.2016L315.786 68.4362L309.255 63.2016Z" stroke="white" stroke-opacity="0.2" stroke-width="3"/>
<path d="M318.184 74.6528L324.714 69.4182L331.245 74.6528L324.714 79.8874L318.184 74.6528Z" stroke="white" stroke-opacity="0.2" stroke-width="3"/>
<path d="M318.184 60.3388L324.714 55.1042L331.245 60.3388L324.714 65.5734L318.184 60.3388Z" stroke="black" stroke-opacity="0.1" stroke-width="3"/>
<path d="M318.184 66.0644L324.714 60.8299L331.245 66.0644L324.714 71.299L318.184 66.0644Z" stroke="black" stroke-opacity="0.1" stroke-width="3"/>
<path d="M-3.24845 20.0116L3.28572 14.7599L9.81989 20.0116L3.28572 25.2632L-3.24845 20.0116Z" stroke="white" stroke-opacity="0.2" stroke-width="3"/>
<path d="M5.6801 31.4933L12.2143 26.2416L18.7484 31.4933L12.2143 36.7449L5.6801 31.4933Z" stroke="white" stroke-opacity="0.2" stroke-width="3"/>
<path d="M-12.177 31.4933L-5.64286 26.2416L0.891316 31.4933L-5.64286 36.7449L-12.177 31.4933Z" stroke="white" stroke-opacity="0.2" stroke-width="3"/>
<path d="M-3.24845 42.975L3.28572 37.7234L9.81989 42.975L3.28572 48.2266L-3.24845 42.975Z" stroke="white" stroke-opacity="0.2" stroke-width="3"/>
<path d="M-3.24845 28.6229L3.28572 23.3712L9.81989 28.6229L3.28572 33.8745L-3.24845 28.6229Z" stroke="black" stroke-opacity="0.1" stroke-width="3"/>
<path d="M-3.24845 34.3637L3.28572 29.1121L9.81989 34.3637L3.28572 39.6154L-3.24845 34.3637Z" stroke="black" stroke-opacity="0.1" stroke-width="3"/>
<path d="M27.1087 0.396924L33.6428 -4.85473L40.177 0.396924L33.6428 5.64858L27.1087 0.396924Z" stroke="white" stroke-opacity="0.2" stroke-width="3"/>
<path d="M9.25153 0.396956L15.7857 -4.8547L22.3199 0.396956L15.7857 5.64861L9.25153 0.396956Z" stroke="white" stroke-opacity="0.2" stroke-width="3"/>
<path d="M18.1801 11.8787L24.7143 6.62702L31.2484 11.8787L24.7143 17.1303L18.1801 11.8787Z" stroke="white" stroke-opacity="0.2" stroke-width="3"/>
<path d="M18.1801 -2.4735L24.7143 -7.72515L31.2484 -2.4735L24.7143 2.77815L18.1801 -2.4735Z" stroke="black" stroke-opacity="0.1" stroke-width="3"/>
<path d="M18.1801 3.26739L24.7143 -1.98426L31.2484 3.26739L24.7143 8.51904L18.1801 3.26739Z" stroke="black" stroke-opacity="0.1" stroke-width="3"/>
<path d="M39.6087 20.0116L46.1428 14.7599L52.677 20.0116L46.1428 25.2632L39.6087 20.0116Z" stroke="white" stroke-opacity="0.2" stroke-width="3"/>
<path d="M48.5373 31.4933L55.0714 26.2416L61.6056 31.4933L55.0714 36.7449L48.5373 31.4933Z" stroke="white" stroke-opacity="0.2" stroke-width="3"/>
<path d="M30.6801 31.4933L37.2143 26.2416L43.7484 31.4933L37.2143 36.7449L30.6801 31.4933Z" stroke="white" stroke-opacity="0.2" stroke-width="3"/>
<path d="M39.6087 42.975L46.1428 37.7234L52.677 42.975L46.1428 48.2266L39.6087 42.975Z" stroke="white" stroke-opacity="0.2" stroke-width="3"/>
<path d="M39.6087 28.6229L46.1428 23.3712L52.677 28.6229L46.1428 33.8745L39.6087 28.6229Z" stroke="black" stroke-opacity="0.1" stroke-width="3"/>
<path d="M39.6087 34.3637L46.1428 29.1121L52.677 34.3637L46.1428 39.6154L39.6087 34.3637Z" stroke="black" stroke-opacity="0.1" stroke-width="3"/>
<path d="M69.9658 0.396924L76.5 -4.85473L83.0342 0.396924L76.5 5.64858L69.9658 0.396924Z" stroke="white" stroke-opacity="0.2" stroke-width="3"/>
<path d="M52.1087 0.396956L58.6428 -4.8547L65.177 0.396956L58.6428 5.64861L52.1087 0.396956Z" stroke="white" stroke-opacity="0.2" stroke-width="3"/>
<path d="M61.0372 11.8787L67.5714 6.62702L74.1056 11.8787L67.5714 17.1303L61.0372 11.8787Z" stroke="white" stroke-opacity="0.2" stroke-width="3"/>
<path d="M61.0372 -2.4735L67.5714 -7.72515L74.1056 -2.4735L67.5714 2.77815L61.0372 -2.4735Z" stroke="black" stroke-opacity="0.1" stroke-width="3"/>
<path d="M61.0372 3.26739L67.5714 -1.98426L74.1056 3.26739L67.5714 8.51904L61.0372 3.26739Z" stroke="black" stroke-opacity="0.1" stroke-width="3"/>
<path d="M82.4658 20.0116L89 14.7599L95.5341 20.0116L89 25.2632L82.4658 20.0116Z" stroke="white" stroke-opacity="0.2" stroke-width="3"/>
<path d="M91.3944 31.4933L97.9285 26.2416L104.463 31.4933L97.9285 36.7449L91.3944 31.4933Z" stroke="white" stroke-opacity="0.2" stroke-width="3"/>
<path d="M73.5372 31.4933L80.0714 26.2416L86.6056 31.4933L80.0714 36.7449L73.5372 31.4933Z" stroke="white" stroke-opacity="0.2" stroke-width="3"/>
<path d="M82.4658 42.975L89 37.7234L95.5341 42.975L89 48.2266L82.4658 42.975Z" stroke="white" stroke-opacity="0.2" stroke-width="3"/>
<path d="M82.4658 28.6229L89 23.3712L95.5341 28.6229L89 33.8745L82.4658 28.6229Z" stroke="black" stroke-opacity="0.1" stroke-width="3"/>
<path d="M82.4658 34.3637L89 29.1121L95.5341 34.3637L89 39.6154L82.4658 34.3637Z" stroke="black" stroke-opacity="0.1" stroke-width="3"/>
<path d="M112.823 0.396924L119.357 -4.85473L125.891 0.396924L119.357 5.64858L112.823 0.396924Z" stroke="white" stroke-opacity="0.2" stroke-width="3"/>
<path d="M94.9659 0.396956L101.5 -4.8547L108.034 0.396956L101.5 5.64861L94.9659 0.396956Z" stroke="white" stroke-opacity="0.2" stroke-width="3"/>
<path d="M103.894 11.8787L110.429 6.62702L116.963 11.8787L110.429 17.1303L103.894 11.8787Z" stroke="white" stroke-opacity="0.2" stroke-width="3"/>
<path d="M103.894 -2.4735L110.429 -7.72515L116.963 -2.4735L110.429 2.77815L103.894 -2.4735Z" stroke="black" stroke-opacity="0.1" stroke-width="3"/>
<path d="M103.894 3.26739L110.429 -1.98426L116.963 3.26739L110.429 8.51904L103.894 3.26739Z" stroke="black" stroke-opacity="0.1" stroke-width="3"/>
<path d="M125.323 20.0116L131.857 14.7599L138.391 20.0116L131.857 25.2632L125.323 20.0116Z" stroke="white" stroke-opacity="0.2" stroke-width="3"/>
<path d="M134.252 31.4933L140.786 26.2416L147.32 31.4933L140.786 36.7449L134.252 31.4933Z" stroke="white" stroke-opacity="0.2" stroke-width="3"/>
<path d="M116.394 31.4933L122.929 26.2416L129.463 31.4933L122.929 36.7449L116.394 31.4933Z" stroke="white" stroke-opacity="0.2" stroke-width="3"/>
<path d="M125.323 42.975L131.857 37.7234L138.391 42.975L131.857 48.2266L125.323 42.975Z" stroke="white" stroke-opacity="0.2" stroke-width="3"/>
<path d="M125.323 28.6229L131.857 23.3712L138.391 28.6229L131.857 33.8745L125.323 28.6229Z" stroke="black" stroke-opacity="0.1" stroke-width="3"/>
<path d="M125.323 34.3637L131.857 29.1121L138.391 34.3637L131.857 39.6154L125.323 34.3637Z" stroke="black" stroke-opacity="0.1" stroke-width="3"/>
<path d="M155.68 0.396924L162.214 -4.85473L168.748 0.396924L162.214 5.64858L155.68 0.396924Z" stroke="white" stroke-opacity="0.2" stroke-width="3"/>
<path d="M137.823 0.396956L144.357 -4.8547L150.891 0.396956L144.357 5.64861L137.823 0.396956Z" stroke="white" stroke-opacity="0.2" stroke-width="3"/>
<path d="M146.751 11.8787L153.286 6.62702L159.82 11.8787L153.286 17.1303L146.751 11.8787Z" stroke="white" stroke-opacity="0.2" stroke-width="3"/>
<path d="M146.751 -2.4735L153.286 -7.72515L159.82 -2.4735L153.286 2.77815L146.751 -2.4735Z" stroke="black" stroke-opacity="0.1" stroke-width="3"/>
<path d="M146.751 3.26739L153.286 -1.98426L159.82 3.26739L153.286 8.51904L146.751 3.26739Z" stroke="black" stroke-opacity="0.1" stroke-width="3"/>
<path d="M168.18 20.0116L174.714 14.7599L181.248 20.0116L174.714 25.2632L168.18 20.0116Z" stroke="white" stroke-opacity="0.2" stroke-width="3"/>
<path d="M177.109 31.4933L183.643 26.2416L190.177 31.4933L183.643 36.7449L177.109 31.4933Z" stroke="white" stroke-opacity="0.2" stroke-width="3"/>
<path d="M159.251 31.4933L165.786 26.2416L172.32 31.4933L165.786 36.7449L159.251 31.4933Z" stroke="white" stroke-opacity="0.2" stroke-width="3"/>
<path d="M168.18 42.975L174.714 37.7234L181.248 42.975L174.714 48.2266L168.18 42.975Z" stroke="white" stroke-opacity="0.2" stroke-width="3"/>
<path d="M168.18 28.6229L174.714 23.3712L181.248 28.6229L174.714 33.8745L168.18 28.6229Z" stroke="black" stroke-opacity="0.1" stroke-width="3"/>
<path d="M168.18 34.3637L174.714 29.1121L181.248 34.3637L174.714 39.6154L168.18 34.3637Z" stroke="black" stroke-opacity="0.1" stroke-width="3"/>
<path d="M198.537 0.396924L205.071 -4.85473L211.606 0.396924L205.071 5.64858L198.537 0.396924Z" stroke="white" stroke-opacity="0.2" stroke-width="3"/>
<path d="M180.68 0.396956L187.214 -4.8547L193.748 0.396956L187.214 5.64861L180.68 0.396956Z" stroke="white" stroke-opacity="0.2" stroke-width="3"/>
<path d="M189.609 11.8787L196.143 6.62702L202.677 11.8787L196.143 17.1303L189.609 11.8787Z" stroke="white" stroke-opacity="0.2" stroke-width="3"/>
<path d="M189.609 -2.4735L196.143 -7.72515L202.677 -2.4735L196.143 2.77815L189.609 -2.4735Z" stroke="black" stroke-opacity="0.1" stroke-width="3"/>
<path d="M189.609 3.26739L196.143 -1.98426L202.677 3.26739L196.143 8.51904L189.609 3.26739Z" stroke="black" stroke-opacity="0.1" stroke-width="3"/>
<path d="M211.037 20.0116L217.571 14.7599L224.106 20.0116L217.571 25.2632L211.037 20.0116Z" stroke="white" stroke-opacity="0.2" stroke-width="3"/>
<path d="M219.966 31.4933L226.5 26.2416L233.034 31.4933L226.5 36.7449L219.966 31.4933Z" stroke="white" stroke-opacity="0.2" stroke-width="3"/>
<path d="M202.109 31.4933L208.643 26.2416L215.177 31.4933L208.643 36.7449L202.109 31.4933Z" stroke="white" stroke-opacity="0.2" stroke-width="3"/>
<path d="M211.037 42.975L217.571 37.7234L224.106 42.975L217.571 48.2266L211.037 42.975Z" stroke="white" stroke-opacity="0.2" stroke-width="3"/>
<path d="M211.037 28.6229L217.571 23.3712L224.106 28.6229L217.571 33.8745L211.037 28.6229Z" stroke="black" stroke-opacity="0.1" stroke-width="3"/>
<path d="M211.037 34.3637L217.571 29.1121L224.106 34.3637L217.571 39.6154L211.037 34.3637Z" stroke="black" stroke-opacity="0.1" stroke-width="3"/>
<path d="M241.394 0.396924L247.929 -4.85473L254.463 0.396924L247.929 5.64858L241.394 0.396924Z" stroke="white" stroke-opacity="0.2" stroke-width="3"/>
<path d="M223.537 0.396956L230.071 -4.8547L236.606 0.396956L230.071 5.64861L223.537 0.396956Z" stroke="white" stroke-opacity="0.2" stroke-width="3"/>
<path d="M232.466 11.8787L239 6.62702L245.534 11.8787L239 17.1303L232.466 11.8787Z" stroke="white" stroke-opacity="0.2" stroke-width="3"/>
<path d="M232.466 -2.4735L239 -7.72515L245.534 -2.4735L239 2.77815L232.466 -2.4735Z" stroke="black" stroke-opacity="0.1" stroke-width="3"/>
<path d="M232.466 3.26739L239 -1.98426L245.534 3.26739L239 8.51904L232.466 3.26739Z" stroke="black" stroke-opacity="0.1" stroke-width="3"/>
<path d="M253.894 20.0116L260.429 14.7599L266.963 20.0116L260.429 25.2632L253.894 20.0116Z" stroke="white" stroke-opacity="0.2" stroke-width="3"/>
<path d="M262.823 31.4933L269.357 26.2416L275.891 31.4933L269.357 36.7449L262.823 31.4933Z" stroke="white" stroke-opacity="0.2" stroke-width="3"/>
<path d="M244.966 31.4933L251.5 26.2416L258.034 31.4933L251.5 36.7449L244.966 31.4933Z" stroke="white" stroke-opacity="0.2" stroke-width="3"/>
<path d="M253.894 42.975L260.429 37.7234L266.963 42.975L260.429 48.2266L253.894 42.975Z" stroke="white" stroke-opacity="0.2" stroke-width="3"/>
<path d="M253.894 28.6229L260.429 23.3712L266.963 28.6229L260.429 33.8745L253.894 28.6229Z" stroke="black" stroke-opacity="0.1" stroke-width="3"/>
<path d="M253.894 34.3637L260.429 29.1121L266.963 34.3637L260.429 39.6154L253.894 34.3637Z" stroke="black" stroke-opacity="0.1" stroke-width="3"/>
<path d="M284.252 0.396924L290.786 -4.85473L297.32 0.396924L290.786 5.64858L284.252 0.396924Z" stroke="white" stroke-opacity="0.2" stroke-width="3"/>
<path d="M266.394 0.396956L272.929 -4.8547L279.463 0.396956L272.929 5.64861L266.394 0.396956Z" stroke="white" stroke-opacity="0.2" stroke-width="3"/>
<path d="M275.323 11.8787L281.857 6.62702L288.391 11.8787L281.857 17.1303L275.323 11.8787Z" stroke="white" stroke-opacity="0.2" stroke-width="3"/>
<path d="M275.323 -2.4735L281.857 -7.72515L288.391 -2.4735L281.857 2.77815L275.323 -2.4735Z" stroke="black" stroke-opacity="0.1" stroke-width="3"/>
<path d="M275.323 3.26739L281.857 -1.98426L288.391 3.26739L281.857 8.51904L275.323 3.26739Z" stroke="black" stroke-opacity="0.1" stroke-width="3"/>
<path d="M296.752 20.0116L303.286 14.7599L309.82 20.0116L303.286 25.2632L296.752 20.0116Z" stroke="white" stroke-opacity="0.2" stroke-width="3"/>
<path d="M305.68 31.4933L312.214 26.2416L318.748 31.4933L312.214 36.7449L305.68 31.4933Z" stroke="white" stroke-opacity="0.2" stroke-width="3"/>
<path d="M287.823 31.4933L294.357 26.2416L300.891 31.4933L294.357 36.7449L287.823 31.4933Z" stroke="white" stroke-opacity="0.2" stroke-width="3"/>
<path d="M296.752 42.975L303.286 37.7234L309.82 42.975L303.286 48.2266L296.752 42.975Z" stroke="white" stroke-opacity="0.2" stroke-width="3"/>
<path d="M296.752 28.6229L303.286 23.3712L309.82 28.6229L303.286 33.8745L296.752 28.6229Z" stroke="black" stroke-opacity="0.1" stroke-width="3"/>
<path d="M296.752 34.3637L303.286 29.1121L309.82 34.3637L303.286 39.6154L296.752 34.3637Z" stroke="black" stroke-opacity="0.1" stroke-width="3"/>
<path d="M309.252 0.396956L315.786 -4.8547L322.32 0.396956L315.786 5.64861L309.252 0.396956Z" stroke="white" stroke-opacity="0.2" stroke-width="3"/>
<path d="M318.18 11.8787L324.714 6.62702L331.249 11.8787L324.714 17.1303L318.18 11.8787Z" stroke="white" stroke-opacity="0.2" stroke-width="3"/>
<path d="M318.18 -2.4735L324.714 -7.72515L331.249 -2.4735L324.714 2.77815L318.18 -2.4735Z" stroke="black" stroke-opacity="0.1" stroke-width="3"/>
<path d="M318.18 3.26739L324.714 -1.98426L331.249 3.26739L324.714 8.51904L318.18 3.26739Z" stroke="black" stroke-opacity="0.1" stroke-width="3"/>
</g>
<defs>
<linearGradient id="paint0_linear" x1="114" y1="1.67391" x2="183.824" y2="145.031" gradientUnits="userSpaceOnUse">
<stop offset="0.342847" stop-color="#FF9900"/>
<stop offset="1" stop-color="#FFBB00"/>
</linearGradient>
<linearGradient id="paint1_linear" x1="320" y1="0" x2="58.8" y2="0" gradientUnits="userSpaceOnUse">
<stop stop-color="white"/>
<stop offset="1" stop-color="white" stop-opacity="0"/>
</linearGradient>
</defs>
</svg>
