<svg width="400" height="400" viewBox="0 0 400 400" fill="none" xmlns="http://www.w3.org/2000/svg">
<path fill-rule="evenodd" clip-rule="evenodd" d="M191.793 24.0643C170.835 24.8063 152.129 29.4353 132.882 38.6433C126.417 41.7363 124.709 42.6753 117.793 46.9403C110.432 51.4803 95.4627 63.5543 91.5927 68.0743C91.0427 68.7163 89.0587 70.9433 87.1837 73.0223C76.0757 85.3373 62.9097 106.011 60.1927 115.402C60.0337 115.952 59.6737 116.942 59.3917 117.602C56.5817 124.192 52.5197 138.432 51.4057 145.602C51.2687 146.482 50.9837 148.282 50.7717 149.602C42.0157 204.202 66.2047 260.465 112.493 293.165C115.455 295.257 115.544 295.476 114.429 297.924C112.96 301.148 110.877 305.632 109.097 309.402C108.11 311.492 106.894 314.102 106.394 315.202C105.894 316.302 104.634 319.002 103.593 321.202C101.763 325.07 101.197 326.298 99.0757 331.002C98.5297 332.212 97.0977 335.272 95.8917 337.802C85.8037 358.982 85.7937 356.859 96.0157 363.701C115.394 376.674 137.313 384.193 166.193 387.774C167.953 387.992 171.193 388.402 173.393 388.686C178.949 389.403 212.514 389.4 218.593 388.683C230.366 387.293 236.611 386.387 241.203 385.4C243.287 384.952 245.803 384.417 246.793 384.212C260.726 381.319 278.817 374.617 288.373 368.809C303.441 359.651 304.239 358.856 302.628 354.602C302.108 353.23 298.331 344.38 297.592 342.802C297.016 341.574 294.228 335.145 290.911 327.402C289.263 323.552 287.589 319.682 287.192 318.802C286.796 317.922 285.751 315.492 284.871 313.402C282.834 308.563 279.011 299.782 278.165 298C277.295 296.166 277.168 296.329 282.393 292.591C335.927 254.296 357.89 186.961 337.19 124.593C334.382 116.133 330.005 106.127 326.72 100.661C325.88 99.2643 325.193 98.0673 325.193 98.0023C325.193 97.7033 321.575 91.9623 318.765 87.8023C308.949 73.2713 291.392 56.2953 276.967 47.3883C265.524 40.3213 255.056 35.2383 244.993 31.8623C238.193 29.5803 229.253 27.2333 223.593 26.2443C214.61 24.6743 200.969 23.7393 191.793 24.0643ZM207.393 32.8253C211.353 33.1553 215.673 33.5853 216.993 33.7803C218.313 33.9743 220.743 34.3333 222.393 34.5783C232.164 36.0233 252.273 42.8913 260.923 47.7373C262.062 48.3753 264.253 49.5743 265.793 50.4013C269.992 52.6553 278.91 58.7153 283.096 62.1573C285.132 63.8323 287.652 65.8903 288.696 66.7303C294.648 71.5253 305.831 83.7673 310.822 90.9533C311.796 92.3553 312.796 93.7953 313.044 94.1533C355.225 154.83 338.91 242.646 277.393 286.051C274.049 288.41 266.946 293.002 266.64 293.002C266.52 293.002 264.415 294.098 261.96 295.438C251.499 301.147 233.631 307.408 223.193 309.022C221.983 309.209 219.275 309.631 217.176 309.96C206.057 311.701 188.955 311.833 178.593 310.257C175.733 309.822 172.583 309.353 171.593 309.214C170.603 309.076 169.163 308.801 168.393 308.603C167.623 308.406 165.103 307.772 162.793 307.194C154.056 305.008 140.743 300.099 134.593 296.797C133.273 296.088 130.753 294.738 128.993 293.797C96.4447 276.393 68.0027 238.532 61.0887 203.402C60.9797 202.852 60.6147 201.052 60.2767 199.402C58.2237 189.388 57.8187 184.834 57.8057 171.602C57.7927 159.417 57.9597 157.001 59.4087 148.402C63.6617 123.155 74.7677 99.8793 92.0457 80.0023C101.771 68.8153 116.166 57.0133 127.993 50.5313C135.349 46.4993 137.889 45.2703 143.393 43.0743C155.112 38.3993 164.24 35.7543 173.265 34.4153C175.535 34.0793 178.563 33.6143 179.993 33.3833C186.988 32.2533 197.871 32.0313 207.393 32.8253ZM189.593 38.6553C128.48 41.2773 75.6717 88.3823 65.4257 149.411C62.7547 165.326 63.2417 186.691 66.5837 200.109C66.8977 201.37 67.5207 203.944 67.9667 205.828C72.5517 225.173 84.8357 247.507 99.0167 262.282C113.358 277.222 125.77 286.146 142.593 293.61C167.207 304.531 196.589 308.034 221.393 303.004C223.593 302.557 226.383 301.997 227.593 301.759C235.531 300.195 248.166 295.48 258.653 290.17C280.27 279.223 299.012 261.394 312.123 239.305C315.142 234.22 316.551 231.482 319.532 224.909C324.159 214.708 327.663 201.862 329.655 187.802C331.533 174.542 329.622 149.353 325.741 136.202C307.495 74.3843 253.783 35.9003 189.593 38.6553ZM208.451 46.2043C280.545 53.2083 331.538 117.427 321.975 189.176C321.215 194.88 320.132 199.887 317.99 207.602C309.783 237.165 287.436 265.437 259.819 281.195C249.521 287.072 233.977 293.451 233.147 292.142C232.764 291.538 232.654 157.429 233.036 156.435C233.254 155.865 236.482 155.802 265.438 155.802H297.598L297.496 126.702L297.393 97.6023H197.193H96.9927V126.602V155.602L129.193 155.802L161.393 156.002L161.494 224.114C161.575 278.575 161.494 292.265 161.092 292.42C160.815 292.526 158.969 292.089 156.99 291.449C116.293 278.283 82.3757 240.748 73.9977 199.602C69.3767 176.914 70.0437 156.242 76.0487 136.002C90.7037 86.6063 132.641 52.1163 185.193 46.2413C189.528 45.7573 203.611 45.7343 208.451 46.2043ZM219.77 108.966C220.29 109.806 220.021 269.537 219.5 269.868C218.628 270.422 177.031 270.28 176.473 269.722C176.104 269.353 175.993 254.816 175.993 206.724V144.207L145.093 144.104L114.193 144.002L114.089 126.802C114.031 117.342 114.071 109.377 114.176 109.102C114.41 108.491 219.394 108.356 219.77 108.966ZM130.74 303.918C137.008 307.041 144.344 310.216 148.393 311.556C187.58 324.529 227.32 321.896 263.288 303.944C270.289 300.45 269.588 300.529 270.676 303.109C271.161 304.26 273.076 308.712 274.93 313.002C276.784 317.292 279.293 323.142 280.505 326.002C281.718 328.862 284.008 334.172 285.595 337.802C288.192 343.741 291.353 351.093 292.486 353.826C293.657 356.65 292.05 358.946 286.768 361.992C256.23 379.606 211.489 386.633 165.593 381.024C157.536 380.039 143.91 377.298 137.393 375.351C118.25 369.63 99.8937 360.55 98.4147 356.07C97.9107 354.542 97.7137 355.042 104.498 340.602C105.48 338.512 106.692 335.902 107.191 334.802C107.69 333.702 109.065 330.766 110.246 328.279C111.427 325.791 112.393 323.693 112.393 323.617C112.393 323.54 113.653 320.834 115.193 317.602C116.733 314.37 117.993 311.673 117.993 311.607C117.993 310.936 123.283 300.602 123.627 300.602C123.88 300.602 127.081 302.094 130.74 303.918ZM124.573 311.202C124.254 311.972 123.719 313.264 123.384 314.073C122.673 315.788 122.682 315.799 125.711 317.026C129.051 318.378 129.043 318.042 125.923 325.807C124.377 329.654 121.855 335.952 120.318 339.802C118.782 343.652 117.295 347.342 117.015 348.002C116.735 348.662 116.276 349.742 115.996 350.402C114.871 353.052 113.593 356.37 113.593 356.642C113.593 357.163 119.198 359.158 119.57 358.77C119.764 358.568 122.295 352.462 125.195 345.202C128.094 337.942 130.788 331.282 131.182 330.402C131.576 329.522 132.035 328.352 132.203 327.802C132.37 327.252 133.098 325.506 133.819 323.921C135.279 320.714 135.144 320.755 138.88 322.362C141.167 323.346 141.382 323.218 142.578 320.17C143.934 316.713 144.71 317.368 134.38 313.242C124.357 309.239 125.304 309.436 124.573 311.202ZM260.593 316.497C256.851 317.443 251.193 319.702 251.193 320.25C251.193 320.571 254.655 329.582 256.4 333.802C257.345 336.089 264.995 355.544 266.977 360.702C268.775 365.382 267.789 365.203 275.193 362.194C279.865 360.295 282.456 357.506 282.989 353.802C283.848 347.836 279.347 338.682 274.493 336.521C272.527 335.646 272.613 335.868 273.437 333.809C276.704 325.643 268.447 314.512 260.593 316.497ZM150.263 320.502C149.966 321.63 149.314 324.322 147.38 332.402C145.258 341.265 141.039 358.683 139.975 362.976C139.045 366.722 138.439 366.237 146.49 368.185C150.287 369.104 153.613 369.926 153.882 370.012C154.357 370.164 155.274 367.709 155.811 364.848L156.053 363.558L152.123 362.613C147.094 361.403 147.047 361.36 147.787 358.592C148.109 357.388 148.809 354.602 149.343 352.402L150.314 348.402L151.854 348.45C152.7 348.477 154.195 348.567 155.175 348.65L156.957 348.802L157.742 345.667C158.641 342.079 158.726 342.288 155.175 341.5C152.087 340.815 152.126 340.907 153.576 334.873C154.245 332.088 154.793 329.56 154.793 329.255C154.793 327.842 155.824 327.744 159.855 328.774C164.395 329.935 164.445 329.914 165.169 326.538C165.925 323.016 166.344 323.341 158.639 321.481C150.734 319.572 150.514 319.547 150.263 320.502ZM232.793 323.896C230.703 324.327 228.938 324.732 228.871 324.797C228.803 324.861 228.945 328.128 229.186 332.058C229.426 335.987 229.789 342.082 229.993 345.602C230.584 355.824 231.21 365.713 231.513 369.602L231.793 373.202L233.327 373.08C234.171 373.014 235.521 372.74 236.327 372.473L237.793 371.986L237.615 368.994C237.517 367.349 237.427 365.119 237.415 364.04L237.393 362.077L239.993 361.551C241.423 361.262 242.985 360.93 243.464 360.813C244.24 360.624 244.469 360.96 245.574 363.902C248.039 370.469 247.829 370.285 251.674 369.27C254.104 368.629 254.121 368.603 253.345 366.763C252.983 365.905 252.171 363.807 251.54 362.102C250.909 360.397 249.853 357.562 249.193 355.802C248.533 354.042 247.472 351.207 246.835 349.502C246.199 347.797 244.748 343.972 243.611 341.002C242.474 338.032 240.642 333.181 239.539 330.222C238.437 327.262 237.323 324.452 237.064 323.977L236.593 323.113L232.793 323.896ZM264.627 323.758C267.242 325.352 268.942 330.815 267.653 333.478C266.084 336.719 264.564 336.692 263.252 333.402C259.739 324.588 259.463 323.73 260.024 323.375C260.981 322.769 263.325 322.964 264.627 323.758ZM178.393 326.013C171.282 329.229 170.586 337.791 176.524 348.995C181.897 359.134 182.159 359.766 182.149 362.599C182.121 370.68 175.745 370.431 175.624 362.345C175.591 360.133 175.351 359.883 173.393 360.017C172.733 360.062 171.518 360.122 170.693 360.15L169.193 360.202V363.129C169.193 373.005 178.258 378.246 185.144 372.351C190.841 367.474 190.006 359.436 182.384 345.802C179.34 340.355 178.55 337.772 179.112 335.093C180.223 329.795 184.393 330.15 184.393 335.543C184.393 338.467 184.533 338.603 187.536 338.596C191.246 338.587 191.362 338.469 191.023 335.032C190.288 327.567 184.343 323.322 178.393 326.013ZM202.193 327.359L200.593 327.602L200.604 330.602C200.609 332.252 200.842 337.292 201.121 341.802C201.931 354.898 202.377 362.823 202.618 368.402C202.935 375.754 202.8 375.402 205.287 375.402C208.628 375.402 218.564 374.54 218.911 374.22C219.085 374.059 219.105 372.724 218.954 371.255L218.681 368.583L214.037 368.692L209.393 368.802L209.125 364.602C208.828 359.947 208.204 349.302 207.6 338.602C207.383 334.752 207.089 330.567 206.948 329.302L206.69 327.002L205.241 327.059C204.445 327.09 203.073 327.225 202.193 327.359ZM236.507 338.502C236.621 338.887 237.284 340.732 237.981 342.602C242.459 354.617 242.379 353.842 239.228 354.55C236.26 355.216 236.492 356.017 235.743 342.502C235.504 338.179 235.86 336.316 236.507 338.502ZM271.024 341.643C274.175 343.139 276.921 350.51 275.61 353.957C275.028 355.488 272.815 356.528 272.234 355.544C271.764 354.746 266.817 342.56 266.802 342.163C266.765 341.163 269.342 340.845 271.024 341.643Z" fill="white" fill-opacity="0.5"/>
</svg>
