<svg width="276" height="28" viewBox="0 0 276 28" fill="none" xmlns="http://www.w3.org/2000/svg">
<rect x="140.53" y="0.742004" width="2.7" height="26.735" rx="1.35" fill="#929292" stroke="black" stroke-width="0.5"/>
<rect x="272.37" y="0.742004" width="2.7" height="26.735" rx="1.35" fill="#929292" stroke="black" stroke-width="0.5"/>
<rect x="272.37" y="0.742004" width="2.7" height="26.735" rx="1.35" fill="#929292" stroke="black" stroke-width="0.5"/>
<rect x="140.53" y="0.742004" width="2.7" height="26.735" rx="1.35" fill="#929292" stroke="black" stroke-width="0.5"/>
<rect x="272.37" y="0.742004" width="2.7" height="26.735" rx="1.35" fill="#929292" stroke="black" stroke-width="0.5"/>
<rect x="206.45" y="0.742004" width="2.7" height="26.735" rx="1.35" fill="#929292" stroke="black" stroke-width="0.5"/>
<rect x="239.09" y="0.742004" width="2.7" height="26.735" rx="1.35" fill="#929292" stroke="black" stroke-width="0.5"/>
<rect x="222.45" y="0.742004" width="2.7" height="26.735" rx="1.35" fill="#929292" stroke="black" stroke-width="0.5"/>
<rect x="255.73" y="0.742004" width="2.7" height="26.735" rx="1.35" fill="#929292" stroke="black" stroke-width="0.5"/>
<rect x="247.41" y="0.742004" width="2.7" height="26.735" rx="1.35" fill="#929292" stroke="black" stroke-width="0.5"/>
<rect x="230.77" y="0.742004" width="2.7" height="26.735" rx="1.35" fill="#929292" stroke="black" stroke-width="0.5"/>
<rect x="264.05" y="0.742004" width="2.7" height="26.735" rx="1.35" fill="#929292" stroke="black" stroke-width="0.5"/>
<rect x="214.13" y="0.742004" width="2.7" height="26.735" rx="1.35" fill="#929292" stroke="black" stroke-width="0.5"/>
<rect x="173.17" y="0.742004" width="2.7" height="26.735" rx="1.35" fill="#929292" stroke="black" stroke-width="0.5"/>
<rect x="164.85" y="0.742004" width="2.7" height="26.735" rx="1.35" fill="#929292" stroke="black" stroke-width="0.5"/>
<rect x="156.53" y="0.742004" width="2.7" height="26.735" rx="1.35" fill="#929292" stroke="black" stroke-width="0.5"/>
<rect x="148.21" y="0.742004" width="2.7" height="26.735" rx="1.35" fill="#929292" stroke="black" stroke-width="0.5"/>
<rect x="189.81" y="0.742004" width="2.7" height="26.735" rx="1.35" fill="#929292" stroke="black" stroke-width="0.5"/>
<rect x="198.13" y="0.742004" width="2.7" height="26.735" rx="1.35" fill="#929292" stroke="black" stroke-width="0.5"/>
<rect x="181.49" y="0.742004" width="2.7" height="26.735" rx="1.35" fill="#929292" stroke="black" stroke-width="0.5"/>
<rect x="0.370056" y="0.742004" width="2.7" height="26.735" rx="1.35" fill="#929292" stroke="black" stroke-width="0.5"/>
<rect x="132.21" y="0.742004" width="2.7" height="26.735" rx="1.35" fill="#929292" stroke="black" stroke-width="0.5"/>
<rect x="132.21" y="0.742004" width="2.7" height="26.735" rx="1.35" fill="#929292" stroke="black" stroke-width="0.5"/>
<rect x="0.370056" y="0.742004" width="2.7" height="26.735" rx="1.35" fill="#929292" stroke="black" stroke-width="0.5"/>
<rect x="132.21" y="0.742004" width="2.7" height="26.735" rx="1.35" fill="#929292" stroke="black" stroke-width="0.5"/>
<rect x="66.29" y="0.742004" width="2.7" height="26.735" rx="1.35" fill="#929292" stroke="black" stroke-width="0.5"/>
<rect x="98.9301" y="0.742004" width="2.7" height="26.735" rx="1.35" fill="#929292" stroke="black" stroke-width="0.5"/>
<rect x="82.29" y="0.742004" width="2.7" height="26.735" rx="1.35" fill="#929292" stroke="black" stroke-width="0.5"/>
<rect x="115.57" y="0.742004" width="2.7" height="26.735" rx="1.35" fill="#929292" stroke="black" stroke-width="0.5"/>
<rect x="107.25" y="0.742004" width="2.7" height="26.735" rx="1.35" fill="#929292" stroke="black" stroke-width="0.5"/>
<rect x="90.61" y="0.742004" width="2.7" height="26.735" rx="1.35" fill="#929292" stroke="black" stroke-width="0.5"/>
<rect x="123.89" y="0.742004" width="2.7" height="26.735" rx="1.35" fill="#929292" stroke="black" stroke-width="0.5"/>
<rect x="73.9701" y="0.742004" width="2.7" height="26.735" rx="1.35" fill="#929292" stroke="black" stroke-width="0.5"/>
<rect x="33.0101" y="0.742004" width="2.7" height="26.735" rx="1.35" fill="#929292" stroke="black" stroke-width="0.5"/>
<rect x="24.6901" y="0.742004" width="2.7" height="26.735" rx="1.35" fill="#929292" stroke="black" stroke-width="0.5"/>
<rect x="16.3701" y="0.742004" width="2.7" height="26.735" rx="1.35" fill="#929292" stroke="black" stroke-width="0.5"/>
<rect x="8.04993" y="0.742004" width="2.7" height="26.735" rx="1.35" fill="#929292" stroke="black" stroke-width="0.5"/>
<rect x="49.6501" y="0.742004" width="2.7" height="26.735" rx="1.35" fill="#929292" stroke="black" stroke-width="0.5"/>
<rect x="57.97" y="0.742004" width="2.7" height="26.735" rx="1.35" fill="#929292" stroke="black" stroke-width="0.5"/>
<rect x="41.3301" y="0.742004" width="2.7" height="26.735" rx="1.35" fill="#929292" stroke="black" stroke-width="0.5"/>
</svg>
