<svg width="601" height="354" viewBox="0 0 601 354" fill="none" xmlns="http://www.w3.org/2000/svg">
<rect width="601" height="354" fill="#EDEDED"/>
<mask id="mask0" mask-type="alpha" maskUnits="userSpaceOnUse" x="0" y="0" width="601" height="354">
<path d="M15.5605 242.045L26.8304 231.023L38.1002 242.045L26.8304 253.066L15.5605 242.045Z" stroke="#F98D33" stroke-opacity="0.3" stroke-width="3"/>
<path d="M28.9757 263.036L40.2455 252.015L51.5154 263.036L40.2455 274.058L28.9757 263.036Z" stroke="#F98D33" stroke-opacity="0.3" stroke-width="3"/>
<path d="M2.14534 263.036L13.4152 252.015L24.685 263.036L13.4152 274.058L2.14534 263.036Z" stroke="#F98D33" stroke-opacity="0.3" stroke-width="3"/>
<path d="M15.5605 284.028L26.8304 273.006L38.1002 284.028L26.8304 295.05L15.5605 284.028Z" stroke="#F98D33" stroke-opacity="0.3" stroke-width="3"/>
<path d="M15.5605 257.788L26.8304 246.767L38.1002 257.788L26.8304 268.81L15.5605 257.788Z" stroke="black" stroke-opacity="0.3" stroke-width="3"/>
<path d="M15.5605 268.284L26.8304 257.263L38.1002 268.284L26.8304 279.306L15.5605 268.284Z" stroke="black" stroke-opacity="0.3" stroke-width="3"/>
<path d="M47.7569 298.897L59.0268 287.875L70.2966 298.897L59.0268 309.919L47.7569 298.897Z" stroke="#F98D33" stroke-opacity="0.3" stroke-width="3"/>
<path d="M61.1721 319.889L72.4419 308.867L83.7118 319.889L72.4419 330.91L61.1721 319.889Z" stroke="#F98D33" stroke-opacity="0.3" stroke-width="3"/>
<path d="M34.3418 319.889L45.6116 308.867L56.8814 319.889L45.6116 330.91L34.3418 319.889Z" stroke="#F98D33" stroke-opacity="0.3" stroke-width="3"/>
<path d="M47.7569 340.88L59.0268 329.859L70.2966 340.88L59.0268 351.902L47.7569 340.88Z" stroke="#F98D33" stroke-opacity="0.3" stroke-width="3"/>
<path d="M47.7569 314.641L59.0268 303.619L70.2966 314.641L59.0268 325.662L47.7569 314.641Z" stroke="black" stroke-opacity="0.3" stroke-width="3"/>
<path d="M47.7569 325.137L59.0268 314.115L70.2966 325.137L59.0268 336.158L47.7569 325.137Z" stroke="black" stroke-opacity="0.3" stroke-width="3"/>
<path d="M79.9534 242.045L91.2232 231.023L102.493 242.045L91.2232 253.066L79.9534 242.045Z" stroke="#F98D33" stroke-opacity="0.3" stroke-width="3"/>
<path d="M93.3685 263.036L104.638 252.015L115.908 263.036L104.638 274.058L93.3685 263.036Z" stroke="#F98D33" stroke-opacity="0.3" stroke-width="3"/>
<path d="M66.5382 263.036L77.808 252.015L89.0779 263.036L77.808 274.058L66.5382 263.036Z" stroke="#F98D33" stroke-opacity="0.3" stroke-width="3"/>
<path d="M79.9534 284.028L91.2232 273.006L102.493 284.028L91.2232 295.05L79.9534 284.028Z" stroke="#F98D33" stroke-opacity="0.3" stroke-width="3"/>
<path d="M79.9534 257.788L91.2232 246.767L102.493 257.788L91.2232 268.81L79.9534 257.788Z" stroke="black" stroke-opacity="0.3" stroke-width="3"/>
<path d="M79.9534 268.284L91.2232 257.263L102.493 268.284L91.2232 279.306L79.9534 268.284Z" stroke="black" stroke-opacity="0.3" stroke-width="3"/>
<path d="M112.15 298.897L123.42 287.875L134.689 298.897L123.42 309.919L112.15 298.897Z" stroke="#F98D33" stroke-opacity="0.3" stroke-width="3"/>
<path d="M125.565 319.889L136.835 308.867L148.105 319.889L136.835 330.91L125.565 319.889Z" stroke="#F98D33" stroke-opacity="0.3" stroke-width="3"/>
<path d="M98.7346 319.889L110.004 308.867L121.274 319.889L110.004 330.91L98.7346 319.889Z" stroke="#F98D33" stroke-opacity="0.3" stroke-width="3"/>
<path d="M112.15 340.88L123.42 329.859L134.689 340.88L123.42 351.902L112.15 340.88Z" stroke="#F98D33" stroke-opacity="0.3" stroke-width="3"/>
<path d="M112.15 314.641L123.42 303.619L134.689 314.641L123.42 325.662L112.15 314.641Z" stroke="black" stroke-opacity="0.3" stroke-width="3"/>
<path d="M112.15 325.137L123.42 314.115L134.689 325.137L123.42 336.158L112.15 325.137Z" stroke="black" stroke-opacity="0.3" stroke-width="3"/>
<path d="M144.346 242.045L155.616 231.023L166.886 242.045L155.616 253.066L144.346 242.045Z" stroke="#F98D33" stroke-opacity="0.3" stroke-width="3"/>
<path d="M157.761 263.036L169.031 252.015L180.301 263.036L169.031 274.058L157.761 263.036Z" stroke="#F98D33" stroke-opacity="0.3" stroke-width="3"/>
<path d="M130.931 263.036L142.201 252.015L153.471 263.036L142.201 274.058L130.931 263.036Z" stroke="#F98D33" stroke-opacity="0.3" stroke-width="3"/>
<path d="M144.346 284.028L155.616 273.006L166.886 284.028L155.616 295.05L144.346 284.028Z" stroke="#F98D33" stroke-opacity="0.3" stroke-width="3"/>
<path d="M144.346 257.788L155.616 246.767L166.886 257.788L155.616 268.81L144.346 257.788Z" stroke="black" stroke-opacity="0.3" stroke-width="3"/>
<path d="M144.346 268.284L155.616 257.263L166.886 268.284L155.616 279.306L144.346 268.284Z" stroke="black" stroke-opacity="0.3" stroke-width="3"/>
<path d="M176.543 298.897L187.812 287.875L199.082 298.897L187.812 309.919L176.543 298.897Z" stroke="#F98D33" stroke-opacity="0.3" stroke-width="3"/>
<path d="M189.958 319.889L201.228 308.867L212.497 319.889L201.228 330.91L189.958 319.889Z" stroke="#F98D33" stroke-opacity="0.3" stroke-width="3"/>
<path d="M163.127 319.889L174.397 308.867L185.667 319.889L174.397 330.91L163.127 319.889Z" stroke="#F98D33" stroke-opacity="0.3" stroke-width="3"/>
<path d="M176.543 340.88L187.812 329.859L199.082 340.88L187.812 351.902L176.543 340.88Z" stroke="#F98D33" stroke-opacity="0.3" stroke-width="3"/>
<path d="M176.543 314.641L187.812 303.619L199.082 314.641L187.812 325.662L176.543 314.641Z" stroke="black" stroke-opacity="0.3" stroke-width="3"/>
<path d="M176.543 325.137L187.812 314.115L199.082 325.137L187.812 336.158L176.543 325.137Z" stroke="black" stroke-opacity="0.3" stroke-width="3"/>
<path d="M208.739 242.045L220.009 231.023L231.279 242.045L220.009 253.066L208.739 242.045Z" stroke="#F98D33" stroke-opacity="0.3" stroke-width="3"/>
<path d="M222.154 263.036L233.424 252.015L244.694 263.036L233.424 274.058L222.154 263.036Z" stroke="#F98D33" stroke-opacity="0.3" stroke-width="3"/>
<path d="M195.324 263.036L206.594 252.015L217.864 263.036L206.594 274.058L195.324 263.036Z" stroke="#F98D33" stroke-opacity="0.3" stroke-width="3"/>
<path d="M208.739 284.028L220.009 273.006L231.279 284.028L220.009 295.05L208.739 284.028Z" stroke="#F98D33" stroke-opacity="0.3" stroke-width="3"/>
<path d="M208.739 257.788L220.009 246.767L231.279 257.788L220.009 268.81L208.739 257.788Z" stroke="black" stroke-opacity="0.3" stroke-width="3"/>
<path d="M208.739 268.284L220.009 257.263L231.279 268.284L220.009 279.306L208.739 268.284Z" stroke="black" stroke-opacity="0.3" stroke-width="3"/>
<path d="M240.936 298.897L252.205 287.875L263.475 298.897L252.205 309.919L240.936 298.897Z" stroke="#F98D33" stroke-opacity="0.3" stroke-width="3"/>
<path d="M254.351 319.889L265.621 308.867L276.89 319.889L265.621 330.91L254.351 319.889Z" stroke="#F98D33" stroke-opacity="0.3" stroke-width="3"/>
<path d="M227.52 319.889L238.79 308.867L250.06 319.889L238.79 330.91L227.52 319.889Z" stroke="#F98D33" stroke-opacity="0.3" stroke-width="3"/>
<path d="M240.936 340.88L252.205 329.859L263.475 340.88L252.205 351.902L240.936 340.88Z" stroke="#F98D33" stroke-opacity="0.3" stroke-width="3"/>
<path d="M240.936 314.641L252.205 303.619L263.475 314.641L252.205 325.662L240.936 314.641Z" stroke="black" stroke-opacity="0.3" stroke-width="3"/>
<path d="M240.936 325.137L252.205 314.115L263.475 325.137L252.205 336.158L240.936 325.137Z" stroke="black" stroke-opacity="0.3" stroke-width="3"/>
<path d="M273.132 242.045L284.402 231.023L295.672 242.045L284.402 253.066L273.132 242.045Z" stroke="#F98D33" stroke-opacity="0.3" stroke-width="3"/>
<path d="M286.547 263.036L297.817 252.015L309.087 263.036L297.817 274.058L286.547 263.036Z" stroke="#F98D33" stroke-opacity="0.3" stroke-width="3"/>
<path d="M259.717 263.036L270.987 252.015L282.256 263.036L270.987 274.058L259.717 263.036Z" stroke="#F98D33" stroke-opacity="0.3" stroke-width="3"/>
<path d="M273.132 284.028L284.402 273.006L295.672 284.028L284.402 295.05L273.132 284.028Z" stroke="#F98D33" stroke-opacity="0.3" stroke-width="3"/>
<path d="M273.132 257.788L284.402 246.767L295.672 257.788L284.402 268.81L273.132 257.788Z" stroke="black" stroke-opacity="0.3" stroke-width="3"/>
<path d="M273.132 268.284L284.402 257.263L295.672 268.284L284.402 279.306L273.132 268.284Z" stroke="black" stroke-opacity="0.3" stroke-width="3"/>
<path d="M305.328 298.897L316.598 287.875L327.868 298.897L316.598 309.919L305.328 298.897Z" stroke="#F98D33" stroke-opacity="0.3" stroke-width="3"/>
<path d="M318.744 319.889L330.013 308.867L341.283 319.889L330.013 330.91L318.744 319.889Z" stroke="#F98D33" stroke-opacity="0.3" stroke-width="3"/>
<path d="M291.913 319.889L303.183 308.867L314.453 319.889L303.183 330.91L291.913 319.889Z" stroke="#F98D33" stroke-opacity="0.3" stroke-width="3"/>
<path d="M305.328 340.88L316.598 329.859L327.868 340.88L316.598 351.902L305.328 340.88Z" stroke="#F98D33" stroke-opacity="0.3" stroke-width="3"/>
<path d="M305.328 314.641L316.598 303.619L327.868 314.641L316.598 325.662L305.328 314.641Z" stroke="black" stroke-opacity="0.3" stroke-width="3"/>
<path d="M305.328 325.137L316.598 314.115L327.868 325.137L316.598 336.158L305.328 325.137Z" stroke="black" stroke-opacity="0.3" stroke-width="3"/>
<path d="M337.525 242.045L348.795 231.023L360.065 242.045L348.795 253.066L337.525 242.045Z" stroke="#F98D33" stroke-opacity="0.3" stroke-width="3"/>
<path d="M350.94 263.036L362.21 252.015L373.48 263.036L362.21 274.058L350.94 263.036Z" stroke="#F98D33" stroke-opacity="0.3" stroke-width="3"/>
<path d="M324.11 263.036L335.38 252.015L346.649 263.036L335.38 274.058L324.11 263.036Z" stroke="#F98D33" stroke-opacity="0.3" stroke-width="3"/>
<path d="M337.525 284.028L348.795 273.006L360.065 284.028L348.795 295.05L337.525 284.028Z" stroke="#F98D33" stroke-opacity="0.3" stroke-width="3"/>
<path d="M337.525 257.788L348.795 246.767L360.065 257.788L348.795 268.81L337.525 257.788Z" stroke="black" stroke-opacity="0.3" stroke-width="3"/>
<path d="M337.525 268.284L348.795 257.263L360.065 268.284L348.795 279.306L337.525 268.284Z" stroke="black" stroke-opacity="0.3" stroke-width="3"/>
<path d="M369.721 298.897L380.991 287.875L392.261 298.897L380.991 309.919L369.721 298.897Z" stroke="#F98D33" stroke-opacity="0.3" stroke-width="3"/>
<path d="M383.136 319.889L394.406 308.867L405.676 319.889L394.406 330.91L383.136 319.889Z" stroke="#F98D33" stroke-opacity="0.3" stroke-width="3"/>
<path d="M356.306 319.889L367.576 308.867L378.846 319.889L367.576 330.91L356.306 319.889Z" stroke="#F98D33" stroke-opacity="0.3" stroke-width="3"/>
<path d="M369.721 340.88L380.991 329.859L392.261 340.88L380.991 351.902L369.721 340.88Z" stroke="#F98D33" stroke-opacity="0.3" stroke-width="3"/>
<path d="M369.721 314.641L380.991 303.619L392.261 314.641L380.991 325.662L369.721 314.641Z" stroke="black" stroke-opacity="0.3" stroke-width="3"/>
<path d="M369.721 325.137L380.991 314.115L392.261 325.137L380.991 336.158L369.721 325.137Z" stroke="black" stroke-opacity="0.3" stroke-width="3"/>
<path d="M401.918 242.045L413.188 231.023L424.457 242.045L413.188 253.066L401.918 242.045Z" stroke="#F98D33" stroke-opacity="0.3" stroke-width="3"/>
<path d="M415.333 263.036L426.603 252.015L437.873 263.036L426.603 274.058L415.333 263.036Z" stroke="#F98D33" stroke-opacity="0.3" stroke-width="3"/>
<path d="M388.502 263.036L399.772 252.015L411.042 263.036L399.772 274.058L388.502 263.036Z" stroke="#F98D33" stroke-opacity="0.3" stroke-width="3"/>
<path d="M401.918 284.028L413.188 273.006L424.457 284.028L413.188 295.05L401.918 284.028Z" stroke="#F98D33" stroke-opacity="0.3" stroke-width="3"/>
<path d="M401.918 257.788L413.188 246.767L424.457 257.788L413.188 268.81L401.918 257.788Z" stroke="black" stroke-opacity="0.3" stroke-width="3"/>
<path d="M401.918 268.284L413.188 257.263L424.457 268.284L413.188 279.306L401.918 268.284Z" stroke="black" stroke-opacity="0.3" stroke-width="3"/>
<path d="M434.114 298.897L445.384 287.875L456.654 298.897L445.384 309.919L434.114 298.897Z" stroke="#F98D33" stroke-opacity="0.3" stroke-width="3"/>
<path d="M447.529 319.889L458.799 308.867L470.069 319.889L458.799 330.91L447.529 319.889Z" stroke="#F98D33" stroke-opacity="0.3" stroke-width="3"/>
<path d="M420.699 319.889L431.969 308.867L443.239 319.889L431.969 330.91L420.699 319.889Z" stroke="#F98D33" stroke-opacity="0.3" stroke-width="3"/>
<path d="M434.114 340.88L445.384 329.859L456.654 340.88L445.384 351.902L434.114 340.88Z" stroke="#F98D33" stroke-opacity="0.3" stroke-width="3"/>
<path d="M434.114 314.641L445.384 303.619L456.654 314.641L445.384 325.662L434.114 314.641Z" stroke="black" stroke-opacity="0.3" stroke-width="3"/>
<path d="M434.114 325.137L445.384 314.115L456.654 325.137L445.384 336.158L434.114 325.137Z" stroke="black" stroke-opacity="0.3" stroke-width="3"/>
<path d="M466.311 242.045L477.58 231.023L488.85 242.045L477.58 253.066L466.311 242.045Z" stroke="#F98D33" stroke-opacity="0.3" stroke-width="3"/>
<path d="M479.726 263.036L490.996 252.015L502.265 263.036L490.996 274.058L479.726 263.036Z" stroke="#F98D33" stroke-opacity="0.3" stroke-width="3"/>
<path d="M452.895 263.036L464.165 252.015L475.435 263.036L464.165 274.058L452.895 263.036Z" stroke="#F98D33" stroke-opacity="0.3" stroke-width="3"/>
<path d="M466.311 284.028L477.58 273.006L488.85 284.028L477.58 295.05L466.311 284.028Z" stroke="#F98D33" stroke-opacity="0.3" stroke-width="3"/>
<path d="M466.311 257.788L477.58 246.767L488.85 257.788L477.58 268.81L466.311 257.788Z" stroke="black" stroke-opacity="0.3" stroke-width="3"/>
<path d="M466.311 268.284L477.58 257.263L488.85 268.284L477.58 279.306L466.311 268.284Z" stroke="black" stroke-opacity="0.3" stroke-width="3"/>
<path d="M498.507 298.897L509.777 287.875L521.047 298.897L509.777 309.919L498.507 298.897Z" stroke="#F98D33" stroke-opacity="0.3" stroke-width="3"/>
<path d="M511.922 319.889L523.192 308.867L534.462 319.889L523.192 330.91L511.922 319.889Z" stroke="#F98D33" stroke-opacity="0.3" stroke-width="3"/>
<path d="M485.092 319.889L496.362 308.867L507.631 319.889L496.362 330.91L485.092 319.889Z" stroke="#F98D33" stroke-opacity="0.3" stroke-width="3"/>
<path d="M498.507 340.88L509.777 329.859L521.047 340.88L509.777 351.902L498.507 340.88Z" stroke="#F98D33" stroke-opacity="0.3" stroke-width="3"/>
<path d="M498.507 314.641L509.777 303.619L521.047 314.641L509.777 325.662L498.507 314.641Z" stroke="black" stroke-opacity="0.3" stroke-width="3"/>
<path d="M498.507 325.137L509.777 314.115L521.047 325.137L509.777 336.158L498.507 325.137Z" stroke="black" stroke-opacity="0.3" stroke-width="3"/>
<path d="M530.703 242.045L541.973 231.023L553.243 242.045L541.973 253.066L530.703 242.045Z" stroke="#F98D33" stroke-opacity="0.3" stroke-width="3"/>
<path d="M544.119 263.036L555.388 252.015L566.658 263.036L555.388 274.058L544.119 263.036Z" stroke="#F98D33" stroke-opacity="0.3" stroke-width="3"/>
<path d="M517.288 263.036L528.558 252.015L539.828 263.036L528.558 274.058L517.288 263.036Z" stroke="#F98D33" stroke-opacity="0.3" stroke-width="3"/>
<path d="M530.703 284.028L541.973 273.006L553.243 284.028L541.973 295.05L530.703 284.028Z" stroke="#F98D33" stroke-opacity="0.3" stroke-width="3"/>
<path d="M530.703 257.788L541.973 246.767L553.243 257.788L541.973 268.81L530.703 257.788Z" stroke="black" stroke-opacity="0.3" stroke-width="3"/>
<path d="M530.703 268.284L541.973 257.263L553.243 268.284L541.973 279.306L530.703 268.284Z" stroke="black" stroke-opacity="0.3" stroke-width="3"/>
<path d="M562.9 298.897L574.17 287.875L585.44 298.897L574.17 309.919L562.9 298.897Z" stroke="#F98D33" stroke-opacity="0.3" stroke-width="3"/>
<path d="M576.315 319.889L587.585 308.867L598.855 319.889L587.585 330.91L576.315 319.889Z" stroke="#F98D33" stroke-opacity="0.3" stroke-width="3"/>
<path d="M549.485 319.889L560.754 308.867L572.024 319.889L560.754 330.91L549.485 319.889Z" stroke="#F98D33" stroke-opacity="0.3" stroke-width="3"/>
<path d="M562.9 340.88L574.17 329.859L585.44 340.88L574.17 351.902L562.9 340.88Z" stroke="#F98D33" stroke-opacity="0.3" stroke-width="3"/>
<path d="M562.9 314.641L574.17 303.619L585.44 314.641L574.17 325.662L562.9 314.641Z" stroke="black" stroke-opacity="0.3" stroke-width="3"/>
<path d="M562.9 325.137L574.17 314.115L585.44 325.137L574.17 336.158L562.9 325.137Z" stroke="black" stroke-opacity="0.3" stroke-width="3"/>
<path d="M15.5605 128.34L26.8304 117.319L38.1002 128.34L26.8304 139.362L15.5605 128.34Z" stroke="#F98D33" stroke-opacity="0.3" stroke-width="3"/>
<path d="M28.9757 149.332L40.2455 138.31L51.5154 149.332L40.2455 160.354L28.9757 149.332Z" stroke="#F98D33" stroke-opacity="0.3" stroke-width="3"/>
<path d="M2.14534 149.332L13.4152 138.31L24.685 149.332L13.4152 160.354L2.14534 149.332Z" stroke="#F98D33" stroke-opacity="0.3" stroke-width="3"/>
<path d="M15.5605 170.323L26.8304 159.302L38.1002 170.323L26.8304 181.345L15.5605 170.323Z" stroke="#F98D33" stroke-opacity="0.3" stroke-width="3"/>
<path d="M15.5605 144.084L26.8304 133.062L38.1002 144.084L26.8304 155.106L15.5605 144.084Z" stroke="black" stroke-opacity="0.3" stroke-width="3"/>
<path d="M15.5605 154.58L26.8304 143.558L38.1002 154.58L26.8304 165.601L15.5605 154.58Z" stroke="black" stroke-opacity="0.3" stroke-width="3"/>
<path d="M47.7569 185.193L59.0268 174.171L70.2966 185.193L59.0268 196.214L47.7569 185.193Z" stroke="#F98D33" stroke-opacity="0.3" stroke-width="3"/>
<path d="M61.1721 206.184L72.4419 195.162L83.7118 206.184L72.4419 217.206L61.1721 206.184Z" stroke="#F98D33" stroke-opacity="0.3" stroke-width="3"/>
<path d="M34.3418 206.184L45.6116 195.162L56.8814 206.184L45.6116 217.206L34.3418 206.184Z" stroke="#F98D33" stroke-opacity="0.3" stroke-width="3"/>
<path d="M47.7569 227.176L59.0268 216.154L70.2966 227.176L59.0268 238.197L47.7569 227.176Z" stroke="#F98D33" stroke-opacity="0.3" stroke-width="3"/>
<path d="M47.7569 200.936L59.0268 189.915L70.2966 200.936L59.0268 211.958L47.7569 200.936Z" stroke="black" stroke-opacity="0.3" stroke-width="3"/>
<path d="M47.7569 211.432L59.0268 200.41L70.2966 211.432L59.0268 222.454L47.7569 211.432Z" stroke="black" stroke-opacity="0.3" stroke-width="3"/>
<path d="M79.9534 128.34L91.2232 117.319L102.493 128.34L91.2232 139.362L79.9534 128.34Z" stroke="#F98D33" stroke-opacity="0.3" stroke-width="3"/>
<path d="M93.3685 149.332L104.638 138.31L115.908 149.332L104.638 160.354L93.3685 149.332Z" stroke="#F98D33" stroke-opacity="0.3" stroke-width="3"/>
<path d="M66.5382 149.332L77.808 138.31L89.0779 149.332L77.808 160.354L66.5382 149.332Z" stroke="#F98D33" stroke-opacity="0.3" stroke-width="3"/>
<path d="M79.9534 170.323L91.2232 159.302L102.493 170.323L91.2232 181.345L79.9534 170.323Z" stroke="#F98D33" stroke-opacity="0.3" stroke-width="3"/>
<path d="M79.9534 144.084L91.2232 133.062L102.493 144.084L91.2232 155.106L79.9534 144.084Z" stroke="black" stroke-opacity="0.3" stroke-width="3"/>
<path d="M79.9534 154.58L91.2232 143.558L102.493 154.58L91.2232 165.601L79.9534 154.58Z" stroke="black" stroke-opacity="0.3" stroke-width="3"/>
<path d="M112.15 185.193L123.42 174.171L134.689 185.193L123.42 196.214L112.15 185.193Z" stroke="#F98D33" stroke-opacity="0.3" stroke-width="3"/>
<path d="M125.565 206.184L136.835 195.162L148.105 206.184L136.835 217.206L125.565 206.184Z" stroke="#F98D33" stroke-opacity="0.3" stroke-width="3"/>
<path d="M98.7346 206.184L110.004 195.162L121.274 206.184L110.004 217.206L98.7346 206.184Z" stroke="#F98D33" stroke-opacity="0.3" stroke-width="3"/>
<path d="M112.15 227.176L123.42 216.154L134.689 227.176L123.42 238.197L112.15 227.176Z" stroke="#F98D33" stroke-opacity="0.3" stroke-width="3"/>
<path d="M112.15 200.936L123.42 189.915L134.689 200.936L123.42 211.958L112.15 200.936Z" stroke="black" stroke-opacity="0.3" stroke-width="3"/>
<path d="M112.15 211.432L123.42 200.41L134.689 211.432L123.42 222.454L112.15 211.432Z" stroke="black" stroke-opacity="0.3" stroke-width="3"/>
<path d="M144.346 128.34L155.616 117.319L166.886 128.34L155.616 139.362L144.346 128.34Z" stroke="#F98D33" stroke-opacity="0.3" stroke-width="3"/>
<path d="M157.761 149.332L169.031 138.31L180.301 149.332L169.031 160.354L157.761 149.332Z" stroke="#F98D33" stroke-opacity="0.3" stroke-width="3"/>
<path d="M130.931 149.332L142.201 138.31L153.471 149.332L142.201 160.354L130.931 149.332Z" stroke="#F98D33" stroke-opacity="0.3" stroke-width="3"/>
<path d="M144.346 170.323L155.616 159.302L166.886 170.323L155.616 181.345L144.346 170.323Z" stroke="#F98D33" stroke-opacity="0.3" stroke-width="3"/>
<path d="M144.346 144.084L155.616 133.062L166.886 144.084L155.616 155.106L144.346 144.084Z" stroke="black" stroke-opacity="0.3" stroke-width="3"/>
<path d="M144.346 154.58L155.616 143.558L166.886 154.58L155.616 165.601L144.346 154.58Z" stroke="black" stroke-opacity="0.3" stroke-width="3"/>
<path d="M176.543 185.193L187.812 174.171L199.082 185.193L187.812 196.214L176.543 185.193Z" stroke="#F98D33" stroke-opacity="0.3" stroke-width="3"/>
<path d="M189.958 206.184L201.228 195.162L212.497 206.184L201.228 217.206L189.958 206.184Z" stroke="#F98D33" stroke-opacity="0.3" stroke-width="3"/>
<path d="M163.127 206.184L174.397 195.162L185.667 206.184L174.397 217.206L163.127 206.184Z" stroke="#F98D33" stroke-opacity="0.3" stroke-width="3"/>
<path d="M176.543 227.176L187.812 216.154L199.082 227.176L187.812 238.197L176.543 227.176Z" stroke="#F98D33" stroke-opacity="0.3" stroke-width="3"/>
<path d="M176.543 200.936L187.812 189.915L199.082 200.936L187.812 211.958L176.543 200.936Z" stroke="black" stroke-opacity="0.3" stroke-width="3"/>
<path d="M176.543 211.432L187.812 200.41L199.082 211.432L187.812 222.454L176.543 211.432Z" stroke="black" stroke-opacity="0.3" stroke-width="3"/>
<path d="M208.739 128.34L220.009 117.319L231.279 128.34L220.009 139.362L208.739 128.34Z" stroke="#F98D33" stroke-opacity="0.3" stroke-width="3"/>
<path d="M222.154 149.332L233.424 138.31L244.694 149.332L233.424 160.354L222.154 149.332Z" stroke="#F98D33" stroke-opacity="0.3" stroke-width="3"/>
<path d="M195.324 149.332L206.594 138.31L217.864 149.332L206.594 160.354L195.324 149.332Z" stroke="#F98D33" stroke-opacity="0.3" stroke-width="3"/>
<path d="M208.739 170.323L220.009 159.302L231.279 170.323L220.009 181.345L208.739 170.323Z" stroke="#F98D33" stroke-opacity="0.3" stroke-width="3"/>
<path d="M208.739 144.084L220.009 133.062L231.279 144.084L220.009 155.106L208.739 144.084Z" stroke="black" stroke-opacity="0.3" stroke-width="3"/>
<path d="M208.739 154.58L220.009 143.558L231.279 154.58L220.009 165.601L208.739 154.58Z" stroke="black" stroke-opacity="0.3" stroke-width="3"/>
<path d="M240.936 185.193L252.205 174.171L263.475 185.193L252.205 196.214L240.936 185.193Z" stroke="#F98D33" stroke-opacity="0.3" stroke-width="3"/>
<path d="M254.351 206.184L265.621 195.162L276.89 206.184L265.621 217.206L254.351 206.184Z" stroke="#F98D33" stroke-opacity="0.3" stroke-width="3"/>
<path d="M227.52 206.184L238.79 195.162L250.06 206.184L238.79 217.206L227.52 206.184Z" stroke="#F98D33" stroke-opacity="0.3" stroke-width="3"/>
<path d="M240.936 227.176L252.205 216.154L263.475 227.176L252.205 238.197L240.936 227.176Z" stroke="#F98D33" stroke-opacity="0.3" stroke-width="3"/>
<path d="M240.936 200.936L252.205 189.915L263.475 200.936L252.205 211.958L240.936 200.936Z" stroke="black" stroke-opacity="0.3" stroke-width="3"/>
<path d="M240.936 211.432L252.205 200.41L263.475 211.432L252.205 222.454L240.936 211.432Z" stroke="black" stroke-opacity="0.3" stroke-width="3"/>
<path d="M273.132 128.34L284.402 117.319L295.672 128.34L284.402 139.362L273.132 128.34Z" stroke="#F98D33" stroke-opacity="0.3" stroke-width="3"/>
<path d="M286.547 149.332L297.817 138.31L309.087 149.332L297.817 160.354L286.547 149.332Z" stroke="#F98D33" stroke-opacity="0.3" stroke-width="3"/>
<path d="M259.717 149.332L270.987 138.31L282.256 149.332L270.987 160.354L259.717 149.332Z" stroke="#F98D33" stroke-opacity="0.3" stroke-width="3"/>
<path d="M273.132 170.323L284.402 159.302L295.672 170.323L284.402 181.345L273.132 170.323Z" stroke="#F98D33" stroke-opacity="0.3" stroke-width="3"/>
<path d="M273.132 144.084L284.402 133.062L295.672 144.084L284.402 155.106L273.132 144.084Z" stroke="black" stroke-opacity="0.3" stroke-width="3"/>
<path d="M273.132 154.58L284.402 143.558L295.672 154.58L284.402 165.601L273.132 154.58Z" stroke="black" stroke-opacity="0.3" stroke-width="3"/>
<path d="M305.328 185.193L316.598 174.171L327.868 185.193L316.598 196.214L305.328 185.193Z" stroke="#F98D33" stroke-opacity="0.3" stroke-width="3"/>
<path d="M318.744 206.184L330.013 195.162L341.283 206.184L330.013 217.206L318.744 206.184Z" stroke="#F98D33" stroke-opacity="0.3" stroke-width="3"/>
<path d="M291.913 206.184L303.183 195.162L314.453 206.184L303.183 217.206L291.913 206.184Z" stroke="#F98D33" stroke-opacity="0.3" stroke-width="3"/>
<path d="M305.328 227.176L316.598 216.154L327.868 227.176L316.598 238.197L305.328 227.176Z" stroke="#F98D33" stroke-opacity="0.3" stroke-width="3"/>
<path d="M305.328 200.936L316.598 189.915L327.868 200.936L316.598 211.958L305.328 200.936Z" stroke="black" stroke-opacity="0.3" stroke-width="3"/>
<path d="M305.328 211.432L316.598 200.41L327.868 211.432L316.598 222.454L305.328 211.432Z" stroke="black" stroke-opacity="0.3" stroke-width="3"/>
<path d="M337.525 128.34L348.795 117.319L360.065 128.34L348.795 139.362L337.525 128.34Z" stroke="#F98D33" stroke-opacity="0.3" stroke-width="3"/>
<path d="M350.94 149.332L362.21 138.31L373.48 149.332L362.21 160.354L350.94 149.332Z" stroke="#F98D33" stroke-opacity="0.3" stroke-width="3"/>
<path d="M324.11 149.332L335.38 138.31L346.649 149.332L335.38 160.354L324.11 149.332Z" stroke="#F98D33" stroke-opacity="0.3" stroke-width="3"/>
<path d="M337.525 170.323L348.795 159.302L360.065 170.323L348.795 181.345L337.525 170.323Z" stroke="#F98D33" stroke-opacity="0.3" stroke-width="3"/>
<path d="M337.525 144.084L348.795 133.062L360.065 144.084L348.795 155.106L337.525 144.084Z" stroke="black" stroke-opacity="0.3" stroke-width="3"/>
<path d="M337.525 154.58L348.795 143.558L360.065 154.58L348.795 165.601L337.525 154.58Z" stroke="black" stroke-opacity="0.3" stroke-width="3"/>
<path d="M369.721 185.193L380.991 174.171L392.261 185.193L380.991 196.214L369.721 185.193Z" stroke="#F98D33" stroke-opacity="0.3" stroke-width="3"/>
<path d="M383.136 206.184L394.406 195.162L405.676 206.184L394.406 217.206L383.136 206.184Z" stroke="#F98D33" stroke-opacity="0.3" stroke-width="3"/>
<path d="M356.306 206.184L367.576 195.162L378.846 206.184L367.576 217.206L356.306 206.184Z" stroke="#F98D33" stroke-opacity="0.3" stroke-width="3"/>
<path d="M369.721 227.176L380.991 216.154L392.261 227.176L380.991 238.197L369.721 227.176Z" stroke="#F98D33" stroke-opacity="0.3" stroke-width="3"/>
<path d="M369.721 200.936L380.991 189.915L392.261 200.936L380.991 211.958L369.721 200.936Z" stroke="black" stroke-opacity="0.3" stroke-width="3"/>
<path d="M369.721 211.432L380.991 200.41L392.261 211.432L380.991 222.454L369.721 211.432Z" stroke="black" stroke-opacity="0.3" stroke-width="3"/>
<path d="M401.918 128.34L413.188 117.319L424.457 128.34L413.188 139.362L401.918 128.34Z" stroke="#F98D33" stroke-opacity="0.3" stroke-width="3"/>
<path d="M415.333 149.332L426.603 138.31L437.873 149.332L426.603 160.354L415.333 149.332Z" stroke="#F98D33" stroke-opacity="0.3" stroke-width="3"/>
<path d="M388.502 149.332L399.772 138.31L411.042 149.332L399.772 160.354L388.502 149.332Z" stroke="#F98D33" stroke-opacity="0.3" stroke-width="3"/>
<path d="M401.918 170.323L413.188 159.302L424.457 170.323L413.188 181.345L401.918 170.323Z" stroke="#F98D33" stroke-opacity="0.3" stroke-width="3"/>
<path d="M401.918 144.084L413.188 133.062L424.457 144.084L413.188 155.106L401.918 144.084Z" stroke="black" stroke-opacity="0.3" stroke-width="3"/>
<path d="M401.918 154.58L413.188 143.558L424.457 154.58L413.188 165.601L401.918 154.58Z" stroke="black" stroke-opacity="0.3" stroke-width="3"/>
<path d="M434.114 185.193L445.384 174.171L456.654 185.193L445.384 196.214L434.114 185.193Z" stroke="#F98D33" stroke-opacity="0.3" stroke-width="3"/>
<path d="M447.529 206.184L458.799 195.162L470.069 206.184L458.799 217.206L447.529 206.184Z" stroke="#F98D33" stroke-opacity="0.3" stroke-width="3"/>
<path d="M420.699 206.184L431.969 195.162L443.239 206.184L431.969 217.206L420.699 206.184Z" stroke="#F98D33" stroke-opacity="0.3" stroke-width="3"/>
<path d="M434.114 227.176L445.384 216.154L456.654 227.176L445.384 238.197L434.114 227.176Z" stroke="#F98D33" stroke-opacity="0.3" stroke-width="3"/>
<path d="M434.114 200.936L445.384 189.915L456.654 200.936L445.384 211.958L434.114 200.936Z" stroke="black" stroke-opacity="0.3" stroke-width="3"/>
<path d="M434.114 211.432L445.384 200.41L456.654 211.432L445.384 222.454L434.114 211.432Z" stroke="black" stroke-opacity="0.3" stroke-width="3"/>
<path d="M466.311 128.34L477.58 117.319L488.85 128.34L477.58 139.362L466.311 128.34Z" stroke="#F98D33" stroke-opacity="0.3" stroke-width="3"/>
<path d="M479.726 149.332L490.996 138.31L502.265 149.332L490.996 160.354L479.726 149.332Z" stroke="#F98D33" stroke-opacity="0.3" stroke-width="3"/>
<path d="M452.895 149.332L464.165 138.31L475.435 149.332L464.165 160.354L452.895 149.332Z" stroke="#F98D33" stroke-opacity="0.3" stroke-width="3"/>
<path d="M466.311 170.323L477.58 159.302L488.85 170.323L477.58 181.345L466.311 170.323Z" stroke="#F98D33" stroke-opacity="0.3" stroke-width="3"/>
<path d="M466.311 144.084L477.58 133.062L488.85 144.084L477.58 155.106L466.311 144.084Z" stroke="black" stroke-opacity="0.3" stroke-width="3"/>
<path d="M466.311 154.58L477.58 143.558L488.85 154.58L477.58 165.601L466.311 154.58Z" stroke="black" stroke-opacity="0.3" stroke-width="3"/>
<path d="M498.507 185.193L509.777 174.171L521.047 185.193L509.777 196.214L498.507 185.193Z" stroke="#F98D33" stroke-opacity="0.3" stroke-width="3"/>
<path d="M511.922 206.184L523.192 195.162L534.462 206.184L523.192 217.206L511.922 206.184Z" stroke="#F98D33" stroke-opacity="0.3" stroke-width="3"/>
<path d="M485.092 206.184L496.362 195.162L507.631 206.184L496.362 217.206L485.092 206.184Z" stroke="#F98D33" stroke-opacity="0.3" stroke-width="3"/>
<path d="M498.507 227.176L509.777 216.154L521.047 227.176L509.777 238.197L498.507 227.176Z" stroke="#F98D33" stroke-opacity="0.3" stroke-width="3"/>
<path d="M498.507 200.936L509.777 189.915L521.047 200.936L509.777 211.958L498.507 200.936Z" stroke="black" stroke-opacity="0.3" stroke-width="3"/>
<path d="M498.507 211.432L509.777 200.41L521.047 211.432L509.777 222.454L498.507 211.432Z" stroke="black" stroke-opacity="0.3" stroke-width="3"/>
<path d="M530.703 128.34L541.973 117.319L553.243 128.34L541.973 139.362L530.703 128.34Z" stroke="#F98D33" stroke-opacity="0.3" stroke-width="3"/>
<path d="M544.119 149.332L555.388 138.31L566.658 149.332L555.388 160.354L544.119 149.332Z" stroke="#F98D33" stroke-opacity="0.3" stroke-width="3"/>
<path d="M517.288 149.332L528.558 138.31L539.828 149.332L528.558 160.354L517.288 149.332Z" stroke="#F98D33" stroke-opacity="0.3" stroke-width="3"/>
<path d="M530.703 170.323L541.973 159.302L553.243 170.323L541.973 181.345L530.703 170.323Z" stroke="#F98D33" stroke-opacity="0.3" stroke-width="3"/>
<path d="M530.703 144.084L541.973 133.062L553.243 144.084L541.973 155.106L530.703 144.084Z" stroke="black" stroke-opacity="0.3" stroke-width="3"/>
<path d="M530.703 154.58L541.973 143.558L553.243 154.58L541.973 165.601L530.703 154.58Z" stroke="black" stroke-opacity="0.3" stroke-width="3"/>
<path d="M562.9 185.193L574.17 174.171L585.44 185.193L574.17 196.214L562.9 185.193Z" stroke="#F98D33" stroke-opacity="0.3" stroke-width="3"/>
<path d="M576.315 206.184L587.585 195.162L598.855 206.184L587.585 217.206L576.315 206.184Z" stroke="#F98D33" stroke-opacity="0.3" stroke-width="3"/>
<path d="M549.485 206.184L560.754 195.162L572.024 206.184L560.754 217.206L549.485 206.184Z" stroke="#F98D33" stroke-opacity="0.3" stroke-width="3"/>
<path d="M562.9 227.176L574.17 216.154L585.44 227.176L574.17 238.197L562.9 227.176Z" stroke="#F98D33" stroke-opacity="0.3" stroke-width="3"/>
<path d="M562.9 200.936L574.17 189.915L585.44 200.936L574.17 211.958L562.9 200.936Z" stroke="black" stroke-opacity="0.3" stroke-width="3"/>
<path d="M562.9 211.432L574.17 200.41L585.44 211.432L574.17 222.454L562.9 211.432Z" stroke="black" stroke-opacity="0.3" stroke-width="3"/>
<path d="M15.5576 13.1547L26.8304 2.10083L38.1031 13.1547L26.8304 24.2086L15.5576 13.1547Z" stroke="#F98D33" stroke-opacity="0.3" stroke-width="3"/>
<path d="M28.9728 34.2023L40.2455 23.1484L51.5183 34.2023L40.2455 45.2562L28.9728 34.2023Z" stroke="#F98D33" stroke-opacity="0.3" stroke-width="3"/>
<path d="M2.14242 34.2023L13.4152 23.1484L24.6879 34.2023L13.4152 45.2562L2.14242 34.2023Z" stroke="#F98D33" stroke-opacity="0.3" stroke-width="3"/>
<path d="M15.5576 55.2499L26.8304 44.196L38.1031 55.2499L26.8304 66.3038L15.5576 55.2499Z" stroke="#F98D33" stroke-opacity="0.3" stroke-width="3"/>
<path d="M15.5576 28.9404L26.8304 17.8865L38.1031 28.9404L26.8304 39.9943L15.5576 28.9404Z" stroke="black" stroke-opacity="0.3" stroke-width="3"/>
<path d="M15.5576 39.4642L26.8304 28.4103L38.1031 39.4642L26.8304 50.5181L15.5576 39.4642Z" stroke="black" stroke-opacity="0.3" stroke-width="3"/>
<path d="M47.754 70.1586L59.0268 59.1047L70.2995 70.1586L59.0268 81.2125L47.754 70.1586Z" stroke="#F98D33" stroke-opacity="0.3" stroke-width="3"/>
<path d="M61.1692 91.2061L72.4419 80.1522L83.7147 91.2061L72.4419 102.26L61.1692 91.2061Z" stroke="#F98D33" stroke-opacity="0.3" stroke-width="3"/>
<path d="M34.3388 91.2061L45.6116 80.1522L56.8844 91.2061L45.6116 102.26L34.3388 91.2061Z" stroke="#F98D33" stroke-opacity="0.3" stroke-width="3"/>
<path d="M47.754 112.254L59.0268 101.2L70.2995 112.254L59.0268 123.308L47.754 112.254Z" stroke="#F98D33" stroke-opacity="0.3" stroke-width="3"/>
<path d="M47.754 85.9443L59.0268 74.8904L70.2995 85.9443L59.0268 96.9982L47.754 85.9443Z" stroke="black" stroke-opacity="0.3" stroke-width="3"/>
<path d="M47.754 96.4681L59.0268 85.4142L70.2995 96.4681L59.0268 107.522L47.754 96.4681Z" stroke="black" stroke-opacity="0.3" stroke-width="3"/>
<path d="M79.9505 13.1547L91.2232 2.10083L102.496 13.1547L91.2232 24.2086L79.9505 13.1547Z" stroke="#F98D33" stroke-opacity="0.3" stroke-width="3"/>
<path d="M93.3656 34.2023L104.638 23.1484L115.911 34.2023L104.638 45.2562L93.3656 34.2023Z" stroke="#F98D33" stroke-opacity="0.3" stroke-width="3"/>
<path d="M66.5353 34.2023L77.808 23.1484L89.0808 34.2023L77.808 45.2562L66.5353 34.2023Z" stroke="#F98D33" stroke-opacity="0.3" stroke-width="3"/>
<path d="M79.9505 55.2499L91.2232 44.196L102.496 55.2499L91.2232 66.3038L79.9505 55.2499Z" stroke="#F98D33" stroke-opacity="0.3" stroke-width="3"/>
<path d="M79.9505 28.9404L91.2232 17.8865L102.496 28.9404L91.2232 39.9943L79.9505 28.9404Z" stroke="black" stroke-opacity="0.3" stroke-width="3"/>
<path d="M79.9505 39.4642L91.2232 28.4103L102.496 39.4642L91.2232 50.5181L79.9505 39.4642Z" stroke="black" stroke-opacity="0.3" stroke-width="3"/>
<path d="M112.147 70.1586L123.42 59.1047L134.692 70.1586L123.42 81.2125L112.147 70.1586Z" stroke="#F98D33" stroke-opacity="0.3" stroke-width="3"/>
<path d="M125.562 91.2061L136.835 80.1522L148.108 91.2061L136.835 102.26L125.562 91.2061Z" stroke="#F98D33" stroke-opacity="0.3" stroke-width="3"/>
<path d="M98.7317 91.2061L110.004 80.1522L121.277 91.2061L110.004 102.26L98.7317 91.2061Z" stroke="#F98D33" stroke-opacity="0.3" stroke-width="3"/>
<path d="M112.147 112.254L123.42 101.2L134.692 112.254L123.42 123.308L112.147 112.254Z" stroke="#F98D33" stroke-opacity="0.3" stroke-width="3"/>
<path d="M112.147 85.9443L123.42 74.8904L134.692 85.9443L123.42 96.9982L112.147 85.9443Z" stroke="black" stroke-opacity="0.3" stroke-width="3"/>
<path d="M112.147 96.4681L123.42 85.4142L134.692 96.4681L123.42 107.522L112.147 96.4681Z" stroke="black" stroke-opacity="0.3" stroke-width="3"/>
<path d="M144.343 13.1547L155.616 2.10083L166.889 13.1547L155.616 24.2086L144.343 13.1547Z" stroke="#F98D33" stroke-opacity="0.3" stroke-width="3"/>
<path d="M157.758 34.2023L169.031 23.1484L180.304 34.2023L169.031 45.2562L157.758 34.2023Z" stroke="#F98D33" stroke-opacity="0.3" stroke-width="3"/>
<path d="M130.928 34.2023L142.201 23.1484L153.474 34.2023L142.201 45.2562L130.928 34.2023Z" stroke="#F98D33" stroke-opacity="0.3" stroke-width="3"/>
<path d="M144.343 55.2499L155.616 44.196L166.889 55.2499L155.616 66.3038L144.343 55.2499Z" stroke="#F98D33" stroke-opacity="0.3" stroke-width="3"/>
<path d="M144.343 28.9404L155.616 17.8865L166.889 28.9404L155.616 39.9943L144.343 28.9404Z" stroke="black" stroke-opacity="0.3" stroke-width="3"/>
<path d="M144.343 39.4642L155.616 28.4103L166.889 39.4642L155.616 50.5181L144.343 39.4642Z" stroke="black" stroke-opacity="0.3" stroke-width="3"/>
<path d="M176.54 70.1586L187.812 59.1047L199.085 70.1586L187.812 81.2125L176.54 70.1586Z" stroke="#F98D33" stroke-opacity="0.3" stroke-width="3"/>
<path d="M189.955 91.2061L201.228 80.1522L212.5 91.2061L201.228 102.26L189.955 91.2061Z" stroke="#F98D33" stroke-opacity="0.3" stroke-width="3"/>
<path d="M163.125 91.2061L174.397 80.1522L185.67 91.2061L174.397 102.26L163.125 91.2061Z" stroke="#F98D33" stroke-opacity="0.3" stroke-width="3"/>
<path d="M176.54 112.254L187.812 101.2L199.085 112.254L187.812 123.308L176.54 112.254Z" stroke="#F98D33" stroke-opacity="0.3" stroke-width="3"/>
<path d="M176.54 85.9443L187.812 74.8904L199.085 85.9443L187.812 96.9982L176.54 85.9443Z" stroke="black" stroke-opacity="0.3" stroke-width="3"/>
<path d="M176.54 96.4681L187.812 85.4142L199.085 96.4681L187.812 107.522L176.54 96.4681Z" stroke="black" stroke-opacity="0.3" stroke-width="3"/>
<path d="M208.736 13.1547L220.009 2.10083L231.282 13.1547L220.009 24.2086L208.736 13.1547Z" stroke="#F98D33" stroke-opacity="0.3" stroke-width="3"/>
<path d="M222.151 34.2023L233.424 23.1484L244.697 34.2023L233.424 45.2562L222.151 34.2023Z" stroke="#F98D33" stroke-opacity="0.3" stroke-width="3"/>
<path d="M195.321 34.2023L206.594 23.1484L217.867 34.2023L206.594 45.2562L195.321 34.2023Z" stroke="#F98D33" stroke-opacity="0.3" stroke-width="3"/>
<path d="M208.736 55.2499L220.009 44.196L231.282 55.2499L220.009 66.3038L208.736 55.2499Z" stroke="#F98D33" stroke-opacity="0.3" stroke-width="3"/>
<path d="M208.736 28.9404L220.009 17.8865L231.282 28.9404L220.009 39.9943L208.736 28.9404Z" stroke="black" stroke-opacity="0.3" stroke-width="3"/>
<path d="M208.736 39.4642L220.009 28.4103L231.282 39.4642L220.009 50.5181L208.736 39.4642Z" stroke="black" stroke-opacity="0.3" stroke-width="3"/>
<path d="M240.933 70.1586L252.205 59.1047L263.478 70.1586L252.205 81.2125L240.933 70.1586Z" stroke="#F98D33" stroke-opacity="0.3" stroke-width="3"/>
<path d="M254.348 91.2061L265.621 80.1522L276.893 91.2061L265.621 102.26L254.348 91.2061Z" stroke="#F98D33" stroke-opacity="0.3" stroke-width="3"/>
<path d="M227.517 91.2061L238.79 80.1522L250.063 91.2061L238.79 102.26L227.517 91.2061Z" stroke="#F98D33" stroke-opacity="0.3" stroke-width="3"/>
<path d="M240.933 112.254L252.205 101.2L263.478 112.254L252.205 123.308L240.933 112.254Z" stroke="#F98D33" stroke-opacity="0.3" stroke-width="3"/>
<path d="M240.933 85.9443L252.205 74.8904L263.478 85.9443L252.205 96.9982L240.933 85.9443Z" stroke="black" stroke-opacity="0.3" stroke-width="3"/>
<path d="M240.933 96.4681L252.205 85.4142L263.478 96.4681L252.205 107.522L240.933 96.4681Z" stroke="black" stroke-opacity="0.3" stroke-width="3"/>
<path d="M273.129 13.1547L284.402 2.10083L295.675 13.1547L284.402 24.2086L273.129 13.1547Z" stroke="#F98D33" stroke-opacity="0.3" stroke-width="3"/>
<path d="M286.544 34.2023L297.817 23.1484L309.09 34.2023L297.817 45.2562L286.544 34.2023Z" stroke="#F98D33" stroke-opacity="0.3" stroke-width="3"/>
<path d="M259.714 34.2023L270.987 23.1484L282.259 34.2023L270.987 45.2562L259.714 34.2023Z" stroke="#F98D33" stroke-opacity="0.3" stroke-width="3"/>
<path d="M273.129 55.2499L284.402 44.196L295.675 55.2499L284.402 66.3038L273.129 55.2499Z" stroke="#F98D33" stroke-opacity="0.3" stroke-width="3"/>
<path d="M273.129 28.9404L284.402 17.8865L295.675 28.9404L284.402 39.9943L273.129 28.9404Z" stroke="black" stroke-opacity="0.3" stroke-width="3"/>
<path d="M273.129 39.4642L284.402 28.4103L295.675 39.4642L284.402 50.5181L273.129 39.4642Z" stroke="black" stroke-opacity="0.3" stroke-width="3"/>
<path d="M305.325 70.1586L316.598 59.1047L327.871 70.1586L316.598 81.2125L305.325 70.1586Z" stroke="#F98D33" stroke-opacity="0.3" stroke-width="3"/>
<path d="M318.741 91.2061L330.013 80.1522L341.286 91.2061L330.013 102.26L318.741 91.2061Z" stroke="#F98D33" stroke-opacity="0.3" stroke-width="3"/>
<path d="M291.91 91.2061L303.183 80.1522L314.456 91.2061L303.183 102.26L291.91 91.2061Z" stroke="#F98D33" stroke-opacity="0.3" stroke-width="3"/>
<path d="M305.325 112.254L316.598 101.2L327.871 112.254L316.598 123.308L305.325 112.254Z" stroke="#F98D33" stroke-opacity="0.3" stroke-width="3"/>
<path d="M305.325 85.9443L316.598 74.8904L327.871 85.9443L316.598 96.9982L305.325 85.9443Z" stroke="black" stroke-opacity="0.3" stroke-width="3"/>
<path d="M305.325 96.4681L316.598 85.4142L327.871 96.4681L316.598 107.522L305.325 96.4681Z" stroke="black" stroke-opacity="0.3" stroke-width="3"/>
<path d="M337.522 13.1547L348.795 2.10083L360.067 13.1547L348.795 24.2086L337.522 13.1547Z" stroke="#F98D33" stroke-opacity="0.3" stroke-width="3"/>
<path d="M350.937 34.2023L362.21 23.1484L373.483 34.2023L362.21 45.2562L350.937 34.2023Z" stroke="#F98D33" stroke-opacity="0.3" stroke-width="3"/>
<path d="M324.107 34.2023L335.38 23.1484L346.652 34.2023L335.38 45.2562L324.107 34.2023Z" stroke="#F98D33" stroke-opacity="0.3" stroke-width="3"/>
<path d="M337.522 55.2499L348.795 44.196L360.067 55.2499L348.795 66.3038L337.522 55.2499Z" stroke="#F98D33" stroke-opacity="0.3" stroke-width="3"/>
<path d="M337.522 28.9404L348.795 17.8865L360.067 28.9404L348.795 39.9943L337.522 28.9404Z" stroke="black" stroke-opacity="0.3" stroke-width="3"/>
<path d="M337.522 39.4642L348.795 28.4103L360.067 39.4642L348.795 50.5181L337.522 39.4642Z" stroke="black" stroke-opacity="0.3" stroke-width="3"/>
<path d="M369.718 70.1586L380.991 59.1047L392.264 70.1586L380.991 81.2125L369.718 70.1586Z" stroke="#F98D33" stroke-opacity="0.3" stroke-width="3"/>
<path d="M383.134 91.2061L394.406 80.1522L405.679 91.2061L394.406 102.26L383.134 91.2061Z" stroke="#F98D33" stroke-opacity="0.3" stroke-width="3"/>
<path d="M356.303 91.2061L367.576 80.1522L378.849 91.2061L367.576 102.26L356.303 91.2061Z" stroke="#F98D33" stroke-opacity="0.3" stroke-width="3"/>
<path d="M369.718 112.254L380.991 101.2L392.264 112.254L380.991 123.308L369.718 112.254Z" stroke="#F98D33" stroke-opacity="0.3" stroke-width="3"/>
<path d="M369.718 85.9443L380.991 74.8904L392.264 85.9443L380.991 96.9982L369.718 85.9443Z" stroke="black" stroke-opacity="0.3" stroke-width="3"/>
<path d="M369.718 96.4681L380.991 85.4142L392.264 96.4681L380.991 107.522L369.718 96.4681Z" stroke="black" stroke-opacity="0.3" stroke-width="3"/>
<path d="M401.915 13.1547L413.188 2.10083L424.46 13.1547L413.188 24.2086L401.915 13.1547Z" stroke="#F98D33" stroke-opacity="0.3" stroke-width="3"/>
<path d="M415.33 34.2023L426.603 23.1484L437.875 34.2023L426.603 45.2562L415.33 34.2023Z" stroke="#F98D33" stroke-opacity="0.3" stroke-width="3"/>
<path d="M388.5 34.2023L399.772 23.1484L411.045 34.2023L399.772 45.2562L388.5 34.2023Z" stroke="#F98D33" stroke-opacity="0.3" stroke-width="3"/>
<path d="M401.915 55.2499L413.188 44.196L424.46 55.2499L413.188 66.3038L401.915 55.2499Z" stroke="#F98D33" stroke-opacity="0.3" stroke-width="3"/>
<path d="M401.915 28.9404L413.188 17.8865L424.46 28.9404L413.188 39.9943L401.915 28.9404Z" stroke="black" stroke-opacity="0.3" stroke-width="3"/>
<path d="M401.915 39.4642L413.188 28.4103L424.46 39.4642L413.188 50.5181L401.915 39.4642Z" stroke="black" stroke-opacity="0.3" stroke-width="3"/>
<path d="M434.111 70.1586L445.384 59.1047L456.657 70.1586L445.384 81.2125L434.111 70.1586Z" stroke="#F98D33" stroke-opacity="0.3" stroke-width="3"/>
<path d="M447.526 91.2061L458.799 80.1522L470.072 91.2061L458.799 102.26L447.526 91.2061Z" stroke="#F98D33" stroke-opacity="0.3" stroke-width="3"/>
<path d="M420.696 91.2061L431.969 80.1522L443.242 91.2061L431.969 102.26L420.696 91.2061Z" stroke="#F98D33" stroke-opacity="0.3" stroke-width="3"/>
<path d="M434.111 112.254L445.384 101.2L456.657 112.254L445.384 123.308L434.111 112.254Z" stroke="#F98D33" stroke-opacity="0.3" stroke-width="3"/>
<path d="M434.111 85.9443L445.384 74.8904L456.657 85.9443L445.384 96.9982L434.111 85.9443Z" stroke="black" stroke-opacity="0.3" stroke-width="3"/>
<path d="M434.111 96.4681L445.384 85.4142L456.657 96.4681L445.384 107.522L434.111 96.4681Z" stroke="black" stroke-opacity="0.3" stroke-width="3"/>
<path d="M466.308 13.1547L477.58 2.10083L488.853 13.1547L477.58 24.2086L466.308 13.1547Z" stroke="#F98D33" stroke-opacity="0.3" stroke-width="3"/>
<path d="M479.723 34.2023L490.996 23.1484L502.268 34.2023L490.996 45.2562L479.723 34.2023Z" stroke="#F98D33" stroke-opacity="0.3" stroke-width="3"/>
<path d="M452.892 34.2023L464.165 23.1484L475.438 34.2023L464.165 45.2562L452.892 34.2023Z" stroke="#F98D33" stroke-opacity="0.3" stroke-width="3"/>
<path d="M466.308 55.2499L477.58 44.196L488.853 55.2499L477.58 66.3038L466.308 55.2499Z" stroke="#F98D33" stroke-opacity="0.3" stroke-width="3"/>
<path d="M466.308 28.9404L477.58 17.8865L488.853 28.9404L477.58 39.9943L466.308 28.9404Z" stroke="black" stroke-opacity="0.3" stroke-width="3"/>
<path d="M466.308 39.4642L477.58 28.4103L488.853 39.4642L477.58 50.5181L466.308 39.4642Z" stroke="black" stroke-opacity="0.3" stroke-width="3"/>
<path d="M498.504 70.1586L509.777 59.1047L521.05 70.1586L509.777 81.2125L498.504 70.1586Z" stroke="#F98D33" stroke-opacity="0.3" stroke-width="3"/>
<path d="M511.919 91.2061L523.192 80.1522L534.465 91.2061L523.192 102.26L511.919 91.2061Z" stroke="#F98D33" stroke-opacity="0.3" stroke-width="3"/>
<path d="M485.089 91.2061L496.362 80.1522L507.634 91.2061L496.362 102.26L485.089 91.2061Z" stroke="#F98D33" stroke-opacity="0.3" stroke-width="3"/>
<path d="M498.504 112.254L509.777 101.2L521.05 112.254L509.777 123.308L498.504 112.254Z" stroke="#F98D33" stroke-opacity="0.3" stroke-width="3"/>
<path d="M498.504 85.9443L509.777 74.8904L521.05 85.9443L509.777 96.9982L498.504 85.9443Z" stroke="black" stroke-opacity="0.3" stroke-width="3"/>
<path d="M498.504 96.4681L509.777 85.4142L521.05 96.4681L509.777 107.522L498.504 96.4681Z" stroke="black" stroke-opacity="0.3" stroke-width="3"/>
<path d="M530.7 13.1547L541.973 2.10083L553.246 13.1547L541.973 24.2086L530.7 13.1547Z" stroke="#F98D33" stroke-opacity="0.3" stroke-width="3"/>
<path d="M544.116 34.2023L555.388 23.1484L566.661 34.2023L555.388 45.2562L544.116 34.2023Z" stroke="#F98D33" stroke-opacity="0.3" stroke-width="3"/>
<path d="M517.285 34.2023L528.558 23.1484L539.831 34.2023L528.558 45.2562L517.285 34.2023Z" stroke="#F98D33" stroke-opacity="0.3" stroke-width="3"/>
<path d="M530.7 55.2499L541.973 44.196L553.246 55.2499L541.973 66.3038L530.7 55.2499Z" stroke="#F98D33" stroke-opacity="0.3" stroke-width="3"/>
<path d="M530.7 28.9404L541.973 17.8865L553.246 28.9404L541.973 39.9943L530.7 28.9404Z" stroke="black" stroke-opacity="0.3" stroke-width="3"/>
<path d="M530.7 39.4642L541.973 28.4103L553.246 39.4642L541.973 50.5181L530.7 39.4642Z" stroke="black" stroke-opacity="0.3" stroke-width="3"/>
<path d="M562.897 70.1586L574.17 59.1047L585.442 70.1586L574.17 81.2125L562.897 70.1586Z" stroke="#F98D33" stroke-opacity="0.3" stroke-width="3"/>
<path d="M576.312 91.2061L587.585 80.1522L598.858 91.2061L587.585 102.26L576.312 91.2061Z" stroke="#F98D33" stroke-opacity="0.3" stroke-width="3"/>
<path d="M549.482 91.2061L560.754 80.1522L572.027 91.2061L560.754 102.26L549.482 91.2061Z" stroke="#F98D33" stroke-opacity="0.3" stroke-width="3"/>
<path d="M562.897 112.254L574.17 101.2L585.442 112.254L574.17 123.308L562.897 112.254Z" stroke="#F98D33" stroke-opacity="0.3" stroke-width="3"/>
<path d="M562.897 85.9443L574.17 74.8904L585.442 85.9443L574.17 96.9982L562.897 85.9443Z" stroke="black" stroke-opacity="0.3" stroke-width="3"/>
<path d="M562.897 96.4681L574.17 85.4142L585.442 96.4681L574.17 107.522L562.897 96.4681Z" stroke="black" stroke-opacity="0.3" stroke-width="3"/>
</mask>
<g mask="url(#mask0)">
<rect width="601" height="354" fill="url(#paint0_linear)"/>
</g>
<defs>
<linearGradient id="paint0_linear" x1="300.5" y1="0" x2="300.5" y2="354" gradientUnits="userSpaceOnUse">
<stop stop-color="#F98D33" stop-opacity="0.2"/>
<stop offset="1" stop-color="#F98D33" stop-opacity="0.1"/>
</linearGradient>
</defs>
</svg>
